SplineFontDB: 3.0
FontName: Untitled
FullName: UntitledRegular
FamilyName: Untitled
Weight: Book
Copyright: 
Version: 1.0
ItalicAngle: 0
UnderlinePosition: -103
UnderlineWidth: 102
Ascent: 1638
Descent: 410
sfntRevision: 0x00010000
LayerCount: 2
Layer: 0 0 "Back"  1
Layer: 1 0 "Fore"  0
XUID: [1021 208 2069950124 3526972]
FSType: 4
OS2Version: 2
OS2_WeightWidthSlopeOnly: 0
OS2_UseTypoMetrics: 1
CreationTime: 1296433391
ModificationTime: 1313942724
PfmFamily: 81
TTFWeight: 400
TTFWidth: 5
LineGap: 28
VLineGap: 0
Panose: 0 0 0 0 0 0 0 0 0 0
OS2TypoAscent: 7
OS2TypoAOffset: 1
OS2TypoDescent: 52
OS2TypoDOffset: 1
OS2TypoLinegap: 115
OS2WinAscent: -212
OS2WinAOffset: 1
OS2WinDescent: 653
OS2WinDOffset: 1
HheadAscent: -212
HheadAOffset: 1
HheadDescent: 0
HheadDOffset: 1
OS2SubXSize: 1434
OS2SubYSize: 1331
OS2SubXOff: 0
OS2SubYOff: 287
OS2SupXSize: 1434
OS2SupYSize: 1331
OS2SupXOff: 0
OS2SupYOff: 977
OS2StrikeYSize: 102
OS2StrikeYPos: 512
OS2Vendor: 'newt'
OS2CodePages: 00000001.00000000
OS2UnicodeRanges: 00000027.08000000.14000000.00000000
MarkAttachClasses: 1
DEI: 91125
TtTable: prep
PUSHW_1
 0
CALL
SVTCA[y-axis]
PUSHW_3
 1
 3
 2
CALL
SVTCA[y-axis]
PUSHW_8
 1
 30
 27
 21
 15
 9
 0
 8
CALL
PUSHW_8
 2
 33
 27
 21
 15
 9
 0
 8
CALL
PUSHW_8
 3
 36
 27
 21
 15
 9
 0
 8
CALL
SVTCA[y-axis]
PUSHW_3
 4
 4
 7
CALL
PUSHW_1
 0
DUP
RCVT
RDTG
ROUND[Black]
RTG
WCVTP
EndTTInstrs
TtTable: fpgm
PUSHW_1
 0
FDEF
MPPEM
PUSHW_1
 9
LT
IF
PUSHB_2
 1
 1
INSTCTRL
EIF
PUSHW_1
 511
SCANCTRL
PUSHW_1
 68
SCVTCI
PUSHW_2
 9
 3
SDS
SDB
ENDF
PUSHW_1
 1
FDEF
DUP
DUP
RCVT
ROUND[Black]
WCVTP
PUSHB_1
 1
ADD
ENDF
PUSHW_1
 2
FDEF
PUSHW_1
 1
LOOPCALL
POP
ENDF
PUSHW_1
 3
FDEF
DUP
GC[cur]
PUSHB_1
 3
CINDEX
GC[cur]
GT
IF
SWAP
EIF
DUP
ROLL
DUP
ROLL
MD[grid]
ABS
ROLL
DUP
GC[cur]
DUP
ROUND[Grey]
SUB
ABS
PUSHB_1
 4
CINDEX
GC[cur]
DUP
ROUND[Grey]
SUB
ABS
GT
IF
SWAP
NEG
ROLL
EIF
MDAP[rnd]
DUP
PUSHB_1
 0
GTEQ
IF
ROUND[Black]
DUP
PUSHB_1
 0
EQ
IF
POP
PUSHB_1
 64
EIF
ELSE
ROUND[Black]
DUP
PUSHB_1
 0
EQ
IF
POP
PUSHB_1
 64

StartChar: E
Encoding: 69 69 4
Width: 1999
Flags: HW
LayerCount: 2
Fore
SplineSet
1925 2 m 1
 82 2 l 1
 82 1642 l 1
 1868 1642 l 1
 1868 1229 l 1
 721 1231 l 1
 721 1030 l 1
 1696 1030 l 1
 1696 614 l 1
 721 614 l 1
 721 418 l 1
 1925 416 l 1
 1925 2 l 1
EndSplineSet
EndChar

StartChar: F
Encoding: 70 70 5
Width: 1921
Flags: HW
LayerCount: 2
Fore
SplineSet
1851 1223 m 1
 719 1223 l 1
 719 1032 l 1
 1690 1032 l 1
 1683 610 l 1
 713 610 l 1
 709 0 l 1
 66 0 l 1
 66 1642 l 1
 1851 1642 l 1
 1851 1223 l 1
EndSplineSet
EndChar

StartChar: G
Encoding: 71 71 6
Width: 2345
Flags: HW
LayerCount: 2
Fore
SplineSet
1309 928 m 1
 2267 928 l 1
 2267 221 l 1
 2203.66666667 167 2132.66666667 122 2054 86 c 128
 1975.33333333 50 1891.33333333 21.5 1802 0.5 c 128
 1712.66666667 -20.5 1619.5 -35.3333333333 1522.5 -44 c 128
 1425.5 -52.6666666667 1327.66666667 -57 1229 -57 c 0
 1028.33333333 -57 855.166666667 -36.6666666667 709.5 4 c 128
 563.833333333 44.6666666667 443.833333333 103.5 349.5 180.5 c 128
 255.166666667 257.5 185.333333333 351.333333333 140 462 c 128
 94.6666666667 572.666666667 72 698 72 838 c 0
 72 942.666666667 84.6666666667 1036.66666667 110 1120 c 128
 135.333333333 1203.33333333 171 1277 217 1341 c 128
 263 1405 318.166666667 1459.5 382.5 1504.5 c 128
 446.833333333 1549.5 517.666666667 1586.33333333 595 1615 c 128
 672.333333333 1643.66666667 755.166666667 1664.66666667 843.5 1678 c 128
 931.833333333 1691.33333333 1023.33333333 1698 1118 1698 c 0
 1255.33333333 1698 1378.5 1688.83333333 1487.5 1670.5 c 128
 1596.5 1652.16666667 1692.83333333 1627.33333333 1776.5 1596 c 128
 1860.16666667 1564.66666667 1931.5 1528.5 1990.5 1487.5 c 128
 2049.5 1446.5 2097.83333333 1403.5 2135.5 1358.5 c 128
 2173.16666667 1313.5 2200.83333333 1267.83333333 2218.5 1221.5 c 128
 2236.16666667 1175.16666667 2245 1131.33333333 2245 1090 c 1
 1524 1065 l 1
 1502 1101.66666667 1480.66666667 1133.33333333 1460 1160 c 128
 1439.33333333 1186.66666667 1414.83333333 1208.5 1386.5 1225.5 c 128
 1358.16666667 1242.5 1323.66666667 1255.16666667 1283 1263.5 c 128
 1242.33333333 1271.83333333 1190.66666667 1276 1128 1276 c 0
 1059.33333333 1276 1001 1264.16666667 953 1240.5 c 128
 905 1216.83333333 865.833333333 1185.33333333 835.5 1146 c 128
 805.166666667 1106.66666667 783 1061 769 1009 c 128
 755 957 748 902.666666667 748 846 c 0
 748 771.333333333 759 704 781 644 c 128
 803 584 834.833333333 533 876.5 491 c 128
 918.166666667 449 969 416.666666667 1029 394 c 128
 1089 371.333333333 1157 360 1233 360 c 0
 1303 360 1361 362.5 1407 367.5 c 128
 1453 372.5 1490 378.333333333 1518 385 c 0
 1550.66666667 392.333333333 1576.33333333 400.666666667 1595 410 c 1
 1595 545 l 1
 1309 545 l 1
 1309 928 l 1
EndSplineSet
EndChar

StartChar: H
Encoding: 72 72 7
Width: 2142
Flags: HW
LayerCount: 2
Fore
SplineSet
1425 614 m 1
 719 614 l 1
 719 0 l 1
 76 0 l 1
 76 1645 l 1
 719 1645 l 1
 719 1036 l 1
 1430 1036 l 1
 1430 1645 l 1
 2066 1645 l 1
 2066 0 l 1
 1430 0 l 1
 1425 614 l 1
EndSplineSet
EndChar

StartChar: I
Encoding: 73 73 8
Width: 805
Flags: HW
LayerCount: 2
Fore
SplineSet
84 1645 m 1
 731 1645 l 1
 731 0 l 1
 84 0 l 1
 84 1645 l 1
EndSplineSet
EndChar

StartChar: J
Encoding: 74 74 9
Width: 1901
Flags: HW
LayerCount: 2
Fore
SplineSet
1812 584 m 2
 1812 497.333333333 1799.66666667 421.166666667 1775 355.5 c 128
 1750.33333333 289.833333333 1716.83333333 233.333333333 1674.5 186 c 128
 1632.16666667 138.666666667 1582.66666667 99.3333333333 1526 68 c 128
 1469.33333333 36.6666666667 1408.66666667 11.8333333333 1344 -6.5 c 128
 1279.33333333 -24.8333333333 1212.33333333 -37.8333333333 1143 -45.5 c 128
 1073.66666667 -53.1666666667 1005.33333333 -57 938 -57 c 0
 800 -57 675.5 -44.6666666667 564.5 -20 c 128
 453.5 4.66666666667 359 43.6666666667 281 97 c 128
 203 150.333333333 142.833333333 219 100.5 303 c 128
 58.1666666667 387 37 488.666666667 37 608 c 2
 37 698 l 1
 655 782 l 1
 655 728 658 676.166666667 664 626.5 c 128
 670 576.833333333 681.833333333 532.666666667 699.5 494 c 128
 717.166666667 455.333333333 742.333333333 424.5 775 401.5 c 128
 807.666666667 378.5 851 367 905 367 c 0
 952.333333333 367 993.333333333 374 1028 388 c 128
 1062.66666667 402 1091.16666667 421.666666667 1113.5 447 c 128
 1135.83333333 472.333333333 1152.5 502.833333333 1163.5 538.5 c 128
 1174.5 574.166666667 1180 613.666666667 1180 657 c 2
 1182 1645 l 1
 1812 1645 l 1
 1812 584 l 2
EndSplineSet
EndChar

StartChar: K
Encoding: 75 75 10
Width: 2279
Flags: HW
LayerCount: 2
Fore
SplineSet
2128 1645 m 1
 1477 1077 l 1
 2230 0 l 1
 1434 0 l 1
 969 688 l 1
 700 463 l 1
 700 0 l 1
 72 0 l 1
 72 1645 l 1
 700 1645 l 1
 700 1061 l 1
 1309 1645 l 1
 2128 1645 l 1
EndSplineSet
EndChar

StartChar: L
Encoding: 76 76 11
Width: 1872
Flags: HW
LayerCount: 2
Fore
SplineSet
1798 426 m 1
 1798 0 l 1
 66 0 l 1
 66 1645 l 1
 709 1645 l 1
 709 426 l 1
 1798 426 l 1
 1798 426 l 1
EndSplineSet
EndChar

StartChar: M
Encoding: 77 77 12
Width: 2716
Flags: HW
LayerCount: 2
Fore
SplineSet
1575 0 m 1
 1128 0 l 1
 692 1157 l 1
 692 0 l 1
 78 0 l 1
 78 1645 l 1
 1069 1645 l 1
 1352 877 l 1
 1634 1645 l 1
 2626 1645 l 1
 2626 0 l 1
 2011 0 l 1
 2011 1157 l 1
 1575 0 l 1
EndSplineSet
EndChar

StartChar: N
Encoding: 78 78 13
Width: 2177
Flags: HW
LayerCount: 2
Fore
SplineSet
694 905 m 1
 694 0 l 1
 76 0 l 1
 76 1645 l 1
 807 1645 l 1
 1485 793 l 1
 1485 1645 l 1
 2099 1645 l 1
 2099 0 l 1
 1411 0 l 1
 694 905 l 1
EndSplineSet
EndChar

StartChar: O
Encoding: 79 79 14
Width: 2357
Flags: HW
LayerCount: 2
Fore
SplineSet
1178 -57 m 0
 1099.33333333 -57 1017.16666667 -52.6666666667 931.5 -44 c 128
 845.833333333 -35.3333333333 761.666666667 -19.3333333333 679 4 c 128
 596.333333333 27.3333333333 517.666666667 59.8333333333 443 101.5 c 128
 368.333333333 143.166666667 302.666666667 197 246 263 c 128
 189.333333333 329 144.333333333 409 111 503 c 128
 77.6666666667 597 61 708 61 836 c 0
 61 940 73.6666666667 1033.66666667 99 1117 c 128
 124.333333333 1200.33333333 160.5 1273.83333333 207.5 1337.5 c 128
 254.5 1401.16666667 311.5 1455.83333333 378.5 1501.5 c 128
 445.5 1547.16666667 520.333333333 1584.5 603 1613.5 c 128
 685.666666667 1642.5 775.333333333 1663.83333333 872 1677.5 c 128
 968.666666667 1691.16666667 1070.66666667 1698 1178 1698 c 256
 1285.33333333 1698 1387.33333333 1691.16666667 1484 1677.5 c 128
 1580.66666667 1663.83333333 1670.33333333 1642.5 1753 1613.5 c 128
 1835.66666667 1584.5 1910.33333333 1547.16666667 1977 1501.5 c 128
 2043.66666667 1455.83333333 2100.5 1401.16666667 2147.5 1337.5 c 128
 2194.5 1273.83333333 2230.66666667 1200.33333333 2256 1117 c 128
 2281.33333333 1033.66666667 2294 940 2294 836 c 0
 2294 740 2284.5 653.666666667 2265.5 577 c 128
 2246.5 500.333333333 2220 432.166666667 2186 372.5 c 128
 2152 312.833333333 2111.66666667 260.666666667 2065 216 c 128
 2018.33333333 171.333333333 1967.5 133.166666667 1912.5 101.5 c 128
 1857.5 69.8333333333 1799.33333333 43.6666666667 1738 23 c 128
 1676.66666667 2.33333333333 1614.33333333 -13.8333333333 1551 -25.5 c 128
 1487.66666667 -37.1666666667 1424.33333333 -45.3333333333 1361 -50 c 128
 1297.66666667 -54.6666666667 1236.66666667 -57 1178 -57 c 0
1178 1262 m 256
 1113.33333333 1262 1054.66666667 1253.5 1002 1236.5 c 128
 949.333333333 1219.5 904.166666667 1193.5 866.5 1158.5 c 128
 828.833333333 1123.5 799.666666667 1079.16666667 779 1025.5 c 128
 758.333333333 971.833333333 748 908 748 834 c 0
 748 762 756.333333333 698 773 642 c 128
 789.666666667 586 815.5 538.833333333 850.5 500.5 c 128
 885.5 462.166666667 930 433 984 413 c 128
 1038 393 1102.66666667 383 1178 383 c 256
 1253.33333333 383 1318 393 1372 413 c 128
 1426 433 1470.5 462.166666667 1505.5 500.5 c 128
 1540.5 538.833333333 1566.33333333 586 1583 642 c 128
 1599.66666667 698 1608 762 1608 834 c 0
 1608 908 1597.66666667 971.833333333 1577 1025.5 c 128
 1556.33333333 1079.16666667 1527.16666667 1123.5 1489.5 1158.5 c 128
 1451.83333333 1193.5 1406.66666667 1219.5 1354 1236.5 c 128
 1301.33333333 1253.5 1242.66666667 1262 1178 1262 c 256
EndSplineSet
EndChar

StartChar: P
Encoding: 80 80 15
Width: 2138
Flags: HW
LayerCount: 2
Fore
SplineSet
717 0 m 1
 76 0 l 1
 76 1649 l 1
 1241 1649 l 2
 1301.66666667 1649 1365 1648 1431 1646 c 128
 1497 1644 1561.66666667 1638 1625 1628 c 128
 1688.33333333 1618 1748.33333333 1602.83333333 1805 1582.5 c 128
 1861.66666667 1562.16666667 1911.5 1533.33333333 1954.5 1496 c 128
 1997.5 1458.66666667 2031.66666667 1411.83333333 2057 1355.5 c 128
 2082.33333333 1299.16666667 2095 1230.33333333 2095 1149 c 0
 2095 1069 2085.16666667 995 2065.5 927 c 128
 2045.83333333 859 2012.83333333 800.166666667 1966.5 750.5 c 128
 1920.16666667 700.833333333 1858.83333333 662 1782.5 634 c 128
 1706.16666667 606 1611 592 1497 592 c 2
 717 592 l 1
 717 0 l 1
1217 965 m 2
 1247.66666667 965 1276.5 965.833333333 1303.5 967.5 c 128
 1330.5 969.166666667 1354 974.333333333 1374 983 c 128
 1394 991.666666667 1409.66666667 1005.5 1421 1024.5 c 128
 1432.33333333 1043.5 1438 1070 1438 1104 c 0
 1438 1136.66666667 1430.16666667 1162 1414.5 1180 c 128
 1398.83333333 1198 1379.66666667 1211.16666667 1357 1219.5 c 128
 1334.33333333 1227.83333333 1310.83333333 1232.83333333 1286.5 1234.5 c 128
 1262.16666667 1236.16666667 1241 1237 1223 1237 c 2
 717 1237 l 1
 717 965 l 1
 1217 965 l 2
EndSplineSet
EndChar

StartChar: Q
Encoding: 81 81 16
Width: 2433
Flags: HW
LayerCount: 2
Fore
SplineSet
1178 -6 m 0
 1099.33333333 -6 1017.16666667 -1.83333333333 931.5 6.5 c 128
 845.833333333 14.8333333333 761.666666667 30.5 679 53.5 c 128
 596.333333333 76.5 517.666666667 108.333333333 443 149 c 128
 368.333333333 189.666666667 302.666666667 242.333333333 246 307 c 128
 189.333333333 371.666666667 144.333333333 449.833333333 111 541.5 c 128
 77.6666666667 633.166666667 61 741.333333333 61 866 c 0
 61 970.666666667 73.6666666667 1064.66666667 99 1148 c 128
 124.333333333 1231.33333333 160.5 1304.83333333 207.5 1368.5 c 128
 254.5 1432.16666667 311.5 1486.83333333 378.5 1532.5 c 128
 445.5 1578.16666667 520.333333333 1615.5 603 1644.5 c 128
 685.666666667 1673.5 775.333333333 1694.83333333 872 1708.5 c 128
 968.666666667 1722.16666667 1070.66666667 1729 1178 1729 c 256
 1285.33333333 1729 1387.33333333 1722.16666667 1484 1708.5 c 128
 1580.66666667 1694.83333333 1670.33333333 1673.5 1753 1644.5 c 128
 1835.66666667 1615.5 1910.33333333 1578.16666667 1977 1532.5 c 128
 2043.66666667 1486.83333333 2100.5 1432.16666667 2147.5 1368.5 c 128
 2194.5 1304.83333333 2230.66666667 1231.33333333 2256 1148 c 128
 2281.33333333 1064.66666667 2294 970.666666667 2294 866 c 0
 2294 794.666666667 2288.5 729.333333333 2277.5 670 c 128
 2266.5 610.666666667 2250.5 556.5 2229.5 507.5 c 128
 2208.5 458.5 2182.5 414 2151.5 374 c 128
 2120.5 334 2084.66666667 297.333333333 2044 264 c 1
 2372 43 l 1
 1995 -285 l 1
 1511 29 l 1
 1452.33333333 19.6666666667 1395.66666667 11.5 1341 4.5 c 128
 1286.33333333 -2.5 1232 -6 1178 -6 c 0
1180 1300 m 256
 1115.33333333 1300 1056.33333333 1291.66666667 1003 1275 c 128
 949.666666667 1258.33333333 903.833333333 1232.5 865.5 1197.5 c 128
 827.166666667 1162.5 797.5 1118 776.5 1064 c 128
 755.5 1010 745 946 745 872 c 0
 745 800 753.5 736 770.5 680 c 128
 787.5 624 813.833333333 577 849.5 539 c 128
 885.166666667 501 930.333333333 472 985 452 c 128
 1039.66666667 432 1104.66666667 422 1180 422 c 256
 1255.33333333 422 1320.33333333 432 1375 452 c 128
 1429.66666667 472 1474.66666667 501 1510 539 c 128
 1545.33333333 577 1571.5 624 1588.5 680 c 128
 1605.5 736 1614 800 1614 872 c 0
 1614 946 1603.5 1010 1582.5 1064 c 128
 1561.5 1118 1532 1162.5 1494 1197.5 c 128
 1456 1232.5 1410.33333333 1258.33333333 1357 1275 c 128
 1303.66666667 1291.66666667 1244.66666667 1300 1180 1300 c 256
EndSplineSet
EndChar

StartChar: R
Encoding: 82 82 17
Width: 2138
Flags: HW
LayerCount: 2
Fore
SplineSet
717 0 m 1
 76 0 l 1
 76 1649 l 1
 1282 1649 l 2
 1342.66666667 1649 1406 1648 1472 1646 c 128
 1538 1644 1602.66666667 1638 1666 1628 c 128
 1729.33333333 1618 1789.33333333 1602.83333333 1846 1582.5 c 128
 1902.66666667 1562.16666667 1952.5 1533.33333333 1995.5 1496 c 128
 2038.5 1458.66666667 2072.66666667 1411.83333333 2098 1355.5 c 128
 2123.33333333 1299.16666667 2136 1230.33333333 2136 1149 c 0
 2136 1083 2130.5 1022.5 2119.5 967.5 c 128
 2108.5 912.5 2088.66666667 863.833333333 2060 821.5 c 128
 2031.33333333 779.166666667 1992.16666667 743.666666667 1942.5 715 c 128
 1892.83333333 686.333333333 1829.66666667 665.666666667 1753 653 c 1
 2148 23 l 1
 2148 0 l 1
 1432 0 l 1
 1057 590 l 1
 717 590 l 1
 717 0 l 1
1257 954 m 2
 1288.33333333 954 1318 955.5 1346 958.5 c 128
 1374 961.5 1398.66666667 968 1420 978 c 128
 1441.33333333 988 1458.16666667 1002.83333333 1470.5 1022.5 c 128
 1482.83333333 1042.16666667 1489 1068.66666667 1489 1102 c 0
 1489 1124 1485.16666667 1142.5 1477.5 1157.5 c 128
 1469.83333333 1172.5 1459.5 1185 1446.5 1195 c 128
 1433.5 1205 1419 1212.83333333 1403 1218.5 c 128
 1387 1224.16666667 1370.66666667 1228.33333333 1354 1231 c 128
 1337.33333333 1233.66666667 1321.16666667 1235.33333333 1305.5 1236 c 128
 1289.83333333 1236.66666667 1276 1237 1264 1237 c 2
 717 1237 l 1
 717 954 l 1
 1257 954 l 2
EndSplineSet
EndChar

StartChar: S
Encoding: 83 83 18
Width: 2232
Flags: HW
LayerCount: 2
Fore
SplineSet
895 561 m 1
 909.666666667 531 927.833333333 507.166666667 949.5 489.5 c 128
 971.166666667 471.833333333 995.5 458.5 1022.5 449.5 c 128
 1049.5 440.5 1078.83333333 434.666666667 1110.5 432 c 128
 1142.16666667 429.333333333 1175.33333333 428 1210 428 c 0
 1220.66666667 428 1236.66666667 428.833333333 1258 430.5 c 128
 1279.33333333 432.166666667 1300.83333333 435.833333333 1322.5 441.5 c 128
 1344.16666667 447.166666667 1363 455.5 1379 466.5 c 128
 1395 477.5 1403 492.666666667 1403 512 c 0
 1403 534.666666667 1395.5 552.833333333 1380.5 566.5 c 128
 1365.5 580.166666667 1347.66666667 590 1327 596 c 0
 1283.66666667 608.666666667 1232.66666667 619 1174 627 c 128
 1115.33333333 635 1052.83333333 642.666666667 986.5 650 c 128
 920.166666667 657.333333333 851.666666667 665.333333333 781 674 c 128
 710.333333333 682.666666667 641.5 694.333333333 574.5 709 c 128
 507.5 723.666666667 444.166666667 742.333333333 384.5 765 c 128
 324.833333333 787.666666667 272.666666667 816.666666667 228 852 c 128
 183.333333333 887.333333333 147.833333333 930 121.5 980 c 128
 95.1666666667 1030 82 1089.66666667 82 1159 c 0
 82 1239 96 1308.83333333 124 1368.5 c 128
 152 1428.16666667 190.166666667 1479.5 238.5 1522.5 c 128
 286.833333333 1565.5 343.166666667 1601.16666667 407.5 1629.5 c 128
 471.833333333 1657.83333333 540.166666667 1680.16666667 612.5 1696.5 c 128
 684.833333333 1712.83333333 759.166666667 1724.33333333 835.5 1731 c 128
 911.833333333 1737.66666667 986.333333333 1741 1059 1741 c 0
 1119 1741 1184.16666667 1739.5 1254.5 1736.5 c 128
 1324.83333333 1733.5 1395.66666667 1726.5 1467 1715.5 c 128
 1538.33333333 1704.5 1608 1688.33333333 1676 1667 c 128
 1744 1645.66666667 1806 1616.83333333 1862 1580.5 c 128
 1918 1544.16666667 1965.66666667 1499 2005 1445 c 128
 2044.33333333 1391 2071 1325.66666667 2085 1249 c 1
 1957 1243 1829.66666667 1236.66666667 1703 1230 c 128
 1576.33333333 1223.33333333 1449 1216.66666667 1321 1210 c 1
 1300.33333333 1230.66666667 1279.83333333 1248 1259.5 1262 c 128
 1239.16666667 1276 1217.5 1287.33333333 1194.5 1296 c 128
 1171.5 1304.66666667 1147 1311 1121 1315 c 128
 1095 1319 1066 1321 1034 1321 c 0
 1020 1321 1001.5 1320.5 978.5 1319.5 c 128
 955.5 1318.5 932.666666667 1315.5 910 1310.5 c 128
 887.333333333 1305.5 867.833333333 1297.5 851.5 1286.5 c 128
 835.166666667 1275.5 827 1259.66666667 827 1239 c 0
 827 1222.33333333 837.666666667 1208 859 1196 c 128
 880.333333333 1184 908.166666667 1173.66666667 942.5 1165 c 128
 976.833333333 1156.33333333 1016 1148.83333333 1060 1142.5 c 128
 1104 1136.16666667 1148.83333333 1130.66666667 1194.5 1126 c 128
 1240.16666667 1121.33333333 1284.33333333 1117 1327 1113 c 128
 1369.66666667 1109 1407.33333333 1104.66666667 1440 1100 c 0
 1490 1092.66666667 1542.33333333 1084.5 1597 1075.5 c 128
 1651.66666667 1066.5 1705.66666667 1054.83333333 1759 1040.5 c 128
 1812.33333333 1026.16666667 1863.16666667 1007.66666667 1911.5 985 c 128
 1959.83333333 962.333333333 2002.33333333 933.666666667 2039 899 c 128
 2075.66666667 864.333333333 2104.83333333 822.166666667 2126.5 772.5 c 128
 2148.16666667 722.833333333 2159 664 2159 596 c 0
 2159 511.333333333 2143.83333333 437.666666667 2113.5 375 c 128
 2083.16666667 312.333333333 2042.16666667 258.666666667 1990.5 214 c 128
 1938.83333333 169.333333333 1879 132.5 1811 103.5 c 128
 1743 74.5 1671.33333333 51.8333333333 1596 35.5 c 128
 1520.66666667 19.1666666667 1444 7.83333333333 1366 1.5 c 128
 1288 -4.83333333333 1213.66666667 -8 1143 -8 c 0
 1089.66666667 -8 1034.66666667 -7.5 978 -6.5 c 128
 921.333333333 -5.5 864.166666667 -2.66666666667 806.5 2 c 128
 748.833333333 6.66666666667 692 13.6666666667 636 23 c 128
 580 32.3333333333 526.166666667 45.5 474.5 62.5 c 128
 422.833333333 79.5 374.5 100.833333333 329.5 126.5 c 128
 284.5 152.166666667 244.333333333 183.5 209 220.5 c 128
 173.666666667 257.5 144.166666667 301 120.5 351 c 128
 96.8333333333 401 80.6666666667 458.666666667 72 524 c 1
 74 524 87.1666666667 524.333333333 111.5 525 c 128
 135.833333333 525.666666667 167.5 526.833333333 206.5 528.5 c 128
 245.5 530.166666667 289.5 532.166666667 338.5 534.5 c 128
 387.5 536.833333333 437.666666667 539.333333333 489 542 c 0
 609 547.333333333 744.333333333 553.666666667 895 561 c 1
EndSplineSet
EndChar

StartChar: T
Encoding: 84 84 19
Width: 1937
Flags: HW
LayerCount: 2
Fore
SplineSet
1884 1225 m 1
 1290 1225 l 1
 1290 0 l 1
 643 0 l 1
 647 1225 l 1
 63 1225 l 1
 63 1647 l 1
 1884 1647 l 1
 1884 1225 l 1
EndSplineSet
EndChar

StartChar: U
Encoding: 85 85 20
Width: 2114
Flags: HW
LayerCount: 2
Fore
SplineSet
1057 12 m 0
 883 12 734.166666667 24.3333333333 610.5 49 c 128
 486.833333333 73.6666666667 385.333333333 112.833333333 306 166.5 c 128
 226.666666667 220.166666667 168.5 289.166666667 131.5 373.5 c 128
 94.5 457.833333333 76 560 76 680 c 0
 75.3333333333 814.666666667 74.6666666667 945 74 1071 c 0
 74 1125 73.8333333333 1180.5 73.5 1237.5 c 128
 73.1666666667 1294.5 73.1666666667 1350.33333333 73.5 1405 c 128
 73.8333333333 1459.66666667 74.1666666667 1511.66666667 74.5 1561 c 128
 74.8333333333 1610.33333333 75.3333333333 1654 76 1692 c 1
 713 1692 l 1
 717 958 l 2
 717 912 717.833333333 867.166666667 719.5 823.5 c 128
 721.166666667 779.833333333 725.5 738.833333333 732.5 700.5 c 128
 739.5 662.166666667 750 626.833333333 764 594.5 c 128
 778 562.166666667 797.5 534.5 822.5 511.5 c 128
 847.5 488.5 879 470.5 917 457.5 c 128
 955 444.5 1001.66666667 438 1057 438 c 0
 1111.66666667 438 1158 444.5 1196 457.5 c 128
 1234 470.5 1265.66666667 488.5 1291 511.5 c 128
 1316.33333333 534.5 1336 562.166666667 1350 594.5 c 128
 1364 626.833333333 1374.33333333 662.166666667 1381 700.5 c 128
 1387.66666667 738.833333333 1391.83333333 779.833333333 1393.5 823.5 c 128
 1395.16666667 867.166666667 1396.33333333 912 1397 958 c 2
 1401 1692 l 1
 2038 1692 l 1
 2038.66666667 1654 2039.16666667 1610.33333333 2039.5 1561 c 128
 2039.83333333 1511.66666667 2040.16666667 1459.66666667 2040.5 1405 c 128
 2040.83333333 1350.33333333 2040.83333333 1294.5 2040.5 1237.5 c 128
 2040.16666667 1180.5 2040 1125 2040 1071 c 0
 2039.33333333 945 2038.66666667 814.666666667 2038 680 c 0
 2038 560 2019.5 457.833333333 1982.5 373.5 c 128
 1945.5 289.166666667 1887.33333333 220.166666667 1808 166.5 c 128
 1728.66666667 112.833333333 1627 73.6666666667 1503 49 c 128
 1379 24.3333333333 1230.33333333 12 1057 12 c 0
EndSplineSet
EndChar

StartChar: V
Encoding: 86 86 21
Width: 2208
Flags: HW
LayerCount: 2
Fore
SplineSet
1460 39 m 1
 764 39 l 1
 66 1692 l 1
 696 1692 l 1
 772.666666667 1506.66666667 841.666666667 1341.66666667 903 1197 c 0
 929 1135 954.5 1074.33333333 979.5 1015 c 128
 1004.5 955.666666667 1026.66666667 902.833333333 1046 856.5 c 128
 1065.33333333 810.166666667 1081.16666667 772.833333333 1093.5 744.5 c 128
 1112 702 l 257
 1112 702 1112 702 1130.5 744.5 c 128
 1142.83333333 772.833333333 1158.66666667 810.166666667 1178 856.5 c 128
 1197.33333333 902.833333333 1219.5 955.666666667 1244.5 1015 c 128
 1269.5 1074.33333333 1295 1135 1321 1197 c 0
 1382.33333333 1341.66666667 1451.33333333 1506.66666667 1528 1692 c 1
 2159 1692 l 1
 1460 39 l 1
EndSplineSet
EndChar

StartChar: W
Encoding: 87 87 22
Width: 3172
Flags: HW
LayerCount: 2
Fore
SplineSet
1868 1671 m 1
 2189 799 l 1
 2462 1671 l 1
 3115 1671 l 1
 2550 23 l 1
 1892 25 l 1
 1593 854 l 1
 1294 25 l 1
 637 23 l 1
 72 1671 l 1
 725 1671 l 1
 997 799 l 1
 1319 1671 l 1
 1868 1671 l 1
EndSplineSet
EndChar

StartChar: X
Encoding: 88 88 23
Width: 2308
Flags: HW
LayerCount: 2
Fore
SplineSet
1155 459 m 1
 836 18 l 1
 53 18 l 1
 778 891 l 1
 172 1669 l 1
 922 1667 l 1
 1186 1321 l 1
 1450 1667 l 1
 2187 1669 l 1
 1554 891 l 1
 2245 18 l 1
 1475 18 l 1
 1155 459 l 1
EndSplineSet
EndChar

StartChar: Y
Encoding: 89 89 24
Width: 2222
Flags: HW
LayerCount: 2
Fore
SplineSet
1419 12 m 1
 799 12 l 1
 799 463 l 1
 70 1653 l 1
 768 1655 l 1
 1128 1040 l 1
 1489 1655 l 1
 2157 1653 l 1
 1419 463 l 1
 1419 12 l 1
EndSplineSet
EndChar

StartChar: Z
Encoding: 90 90 25
Width: 2138
Flags: HW
LayerCount: 2
Fore
SplineSet
76 360 m 1
 1092 1233 l 1
 160 1233 l 1
 160 1645 l 1
 2060 1645 l 1
 2060 1253 l 1
 1071 424 l 1
 2023 424 l 1
 2023 0 l 1
 76 0 l 1
 76 360 l 1
EndSplineSet
EndChar

StartChar: one
Encoding: 49 49 26
Width: 1001
Flags: HW
LayerCount: 2
Fore
SplineSet
920 1575 m 1
 920 0 l 1
 328 0 l 1
 328 1047 l 1
 328.666666667 1047 319.5 1043.16666667 300.5 1035.5 c 128
 281.5 1027.83333333 257.833333333 1019.5 229.5 1010.5 c 128
 201.166666667 1001.5 170.333333333 993.333333333 137 986 c 128
 103.666666667 978.666666667 73 975 45 975 c 1
 45 1317 l 1
 83.6666666667 1331 122.833333333 1346.5 162.5 1363.5 c 128
 202.166666667 1380.5 241.5 1399.5 280.5 1420.5 c 128
 319.5 1441.5 357.666666667 1464.83333333 395 1490.5 c 128
 432.333333333 1516.16666667 468 1544.33333333 502 1575 c 1
 920 1575 l 1
EndSplineSet
EndChar

StartChar: two
Encoding: 50 50 27
Width: 2185
Flags: HW
LayerCount: 2
Fore
SplineSet
72 0 m 1
 72 114.666666667 85.8333333333 215.5 113.5 302.5 c 128
 141.166666667 389.5 178.666666667 465.333333333 226 530 c 128
 273.333333333 594.666666667 328.666666667 649.333333333 392 694 c 128
 455.333333333 738.666666667 522.833333333 776.666666667 594.5 808 c 128
 666.166666667 839.333333333 739.833333333 865 815.5 885 c 128
 891.166666667 905 965.333333333 922.666666667 1038 938 c 0
 1054.66666667 941.333333333 1076.16666667 945 1102.5 949 c 128
 1128.83333333 953 1156.66666667 958 1186 964 c 128
 1215.33333333 970 1244.83333333 977 1274.5 985 c 128
 1304.16666667 993 1331 1003 1355 1015 c 128
 1379 1027 1398.5 1040.83333333 1413.5 1056.5 c 128
 1428.5 1072.16666667 1436 1090.66666667 1436 1112 c 0
 1436 1126.66666667 1431.33333333 1139.5 1422 1150.5 c 128
 1412.66666667 1161.5 1400.5 1171 1385.5 1179 c 128
 1370.5 1187 1353.66666667 1193.5 1335 1198.5 c 128
 1316.33333333 1203.5 1297.5 1207.5 1278.5 1210.5 c 128
 1259.5 1213.5 1241.16666667 1215.66666667 1223.5 1217 c 128
 1205.83333333 1218.33333333 1190.66666667 1219 1178 1219 c 0
 1128 1219 1081 1214.83333333 1037 1206.5 c 128
 993 1198.16666667 954.666666667 1185.33333333 922 1168 c 128
 889.333333333 1150.66666667 863.666666667 1128.66666667 845 1102 c 128
 826.333333333 1075.33333333 817 1044 817 1008 c 1
 106 1008 l 1
 112.666666667 1090.66666667 131.833333333 1162.83333333 163.5 1224.5 c 128
 195.166666667 1286.16666667 236.166666667 1339.5 286.5 1384.5 c 128
 336.833333333 1429.5 394.5 1466.66666667 459.5 1496 c 128
 524.5 1525.33333333 593.5 1548.5 666.5 1565.5 c 128
 739.5 1582.5 814.833333333 1594.5 892.5 1601.5 c 128
 970.166666667 1608.5 1046.66666667 1612 1122 1612 c 0
 1184 1612 1251.33333333 1610 1324 1606 c 128
 1396.66666667 1602 1469.66666667 1593.66666667 1543 1581 c 128
 1616.33333333 1568.33333333 1687.16666667 1549.66666667 1755.5 1525 c 128
 1823.83333333 1500.33333333 1884.33333333 1467.33333333 1937 1426 c 128
 1989.66666667 1384.66666667 2031.83333333 1333.66666667 2063.5 1273 c 128
 2095.16666667 1212.33333333 2111 1139.66666667 2111 1055 c 0
 2111 985 2096.33333333 924.666666667 2067 874 c 128
 2037.66666667 823.333333333 1998.83333333 780.333333333 1950.5 745 c 128
 1902.16666667 709.666666667 1846.83333333 680.5 1784.5 657.5 c 128
 1722.16666667 634.5 1658.16666667 615.666666667 1592.5 601 c 128
 1526.83333333 586.333333333 1462.16666667 574.5 1398.5 565.5 c 128
 1334.83333333 556.5 1277 548.333333333 1225 541 c 0
 1185.66666667 535 1142.83333333 528.333333333 1096.5 521 c 128
 1050.16666667 513.666666667 1003.66666667 505 957 495 c 128
 910.333333333 485 865.833333333 473 823.5 459 c 128
 781.166666667 445 745 428.666666667 715 410 c 1
 724 410 724 410 757 410 c 128
 790 410 790 410 841.5 410 c 128
 893 410 893 410 960 410 c 128
 1027 410 1027 410 1103.5 410 c 128
 1154.5 410 1207.66666667 410.166666667 1263 410.5 c 128
 1318.33333333 410.833333333 1374 411 1430 411 c 0
 1626.66666667 411 1847 411.333333333 2091 412 c 1
 2091 0 l 1
 72 0 l 1
EndSplineSet
EndChar

StartChar: three
Encoding: 51 51 28
Width: 2159
Flags: HW
LayerCount: 2
Fore
SplineSet
1126 -43 m 0
 1074.66666667 -43 1020.5 -42.3333333333 963.5 -41 c 128
 906.5 -39.6666666667 848.5 -36.5 789.5 -31.5 c 128
 730.5 -26.5 671.833333333 -18.6666666667 613.5 -8 c 128
 555.166666667 2.66666666667 499.333333333 17.3333333333 446 36 c 128
 392.666666667 54.6666666667 343 78.3333333333 297 107 c 128
 251 135.666666667 211 170.333333333 177 211 c 128
 143 251.666666667 115.833333333 299.333333333 95.5 354 c 128
 75.1666666667 408.666666667 64.3333333333 471.666666667 63 543 c 1
 768 543 l 1
 778 505.666666667 794.5 475 817.5 451 c 128
 840.5 427 867.333333333 408.166666667 898 394.5 c 128
 928.666666667 380.833333333 962 371.333333333 998 366 c 128
 1034 360.666666667 1070 358 1106 358 c 0
 1120 358 1136.83333333 358.666666667 1156.5 360 c 128
 1176.16666667 361.333333333 1196.66666667 364 1218 368 c 128
 1239.33333333 372 1260.66666667 377.333333333 1282 384 c 128
 1303.33333333 390.666666667 1322.33333333 399.166666667 1339 409.5 c 128
 1355.66666667 419.833333333 1369.16666667 432.333333333 1379.5 447 c 128
 1389.83333333 461.666666667 1395 478.666666667 1395 498 c 0
 1395 520 1390 538.666666667 1380 554 c 128
 1370 569.333333333 1356.66666667 582.166666667 1340 592.5 c 128
 1323.33333333 602.833333333 1304.33333333 610.833333333 1283 616.5 c 128
 1261.66666667 622.166666667 1240 626.333333333 1218 629 c 128
 1196 631.666666667 1174.33333333 633.333333333 1153 634 c 128
 1131.66666667 634.666666667 1112.66666667 635 1096 635 c 2
 584 635 l 1
 584 1022 l 1
 1087 1022 l 2
 1100 1022 1100 1022 1125 1022 c 128
 1141.66666667 1022 1159.66666667 1022.66666667 1179 1024 c 128
 1198.33333333 1025.33333333 1218.16666667 1027.5 1238.5 1030.5 c 128
 1258.83333333 1033.5 1277.33333333 1038.16666667 1294 1044.5 c 128
 1310.66666667 1050.83333333 1324.16666667 1058.83333333 1334.5 1068.5 c 128
 1344.83333333 1078.16666667 1350 1090.66666667 1350 1106 c 0
 1350 1122 1345.16666667 1135.83333333 1335.5 1147.5 c 128
 1325.83333333 1159.16666667 1313.16666667 1169 1297.5 1177 c 128
 1281.83333333 1185 1264 1191.33333333 1244 1196 c 128
 1224 1200.66666667 1204.16666667 1204.33333333 1184.5 1207 c 128
 1164.83333333 1209.66666667 1145.83333333 1211.5 1127.5 1212.5 c 128
 1109.16666667 1213.5 1093.66666667 1214 1081 1214 c 0
 1055 1214 1029.5 1212.66666667 1004.5 1210 c 128
 979.5 1207.33333333 955.666666667 1202.5 933 1195.5 c 128
 910.333333333 1188.5 889.5 1179.16666667 870.5 1167.5 c 128
 851.5 1155.83333333 835 1140.66666667 821 1122 c 1
 131 1122 l 1
 131 1192.66666667 144.833333333 1253.5 172.5 1304.5 c 128
 200.166666667 1355.5 237.666666667 1398.5 285 1433.5 c 128
 332.333333333 1468.5 387.5 1496.83333333 450.5 1518.5 c 128
 513.5 1540.16666667 580.666666667 1556.83333333 652 1568.5 c 128
 723.333333333 1580.16666667 796.5 1587.83333333 871.5 1591.5 c 128
 946.5 1595.16666667 1020 1597 1092 1597 c 0
 1140 1597 1197 1595 1263 1591 c 128
 1329 1587 1397.5 1579.16666667 1468.5 1567.5 c 128
 1539.5 1555.83333333 1609.66666667 1539.83333333 1679 1519.5 c 128
 1748.33333333 1499.16666667 1810.5 1472.66666667 1865.5 1440 c 128
 1920.5 1407.33333333 1965 1367.66666667 1999 1321 c 128
 2033 1274.33333333 2050 1219 2050 1155 c 0
 2050 1124.33333333 2046.66666667 1096.5 2040 1071.5 c 128
 2033.33333333 1046.5 2024.66666667 1023.83333333 2014 1003.5 c 128
 2003.33333333 983.166666667 1991.16666667 965 1977.5 949 c 128
 1963.83333333 933 1950 919 1936 907 c 0
 1902.66666667 879 1865 857.333333333 1823 842 c 1
 1873 827.333333333 1917.66666667 804 1957 772 c 0
 1973.66666667 758.666666667 1990 742.666666667 2006 724 c 128
 2022 705.333333333 2036.33333333 683.666666667 2049 659 c 128
 2061.66666667 634.333333333 2071.83333333 606.333333333 2079.5 575 c 128
 2087.16666667 543.666666667 2091 509 2091 471 c 0
 2091 414.333333333 2082.16666667 363.666666667 2064.5 319 c 128
 2046.83333333 274.333333333 2022.66666667 234.666666667 1992 200 c 128
 1961.33333333 165.333333333 1925 135.166666667 1883 109.5 c 128
 1841 83.8333333333 1795.66666667 62 1747 44 c 128
 1698.33333333 26 1647.16666667 11.3333333333 1593.5 0 c 128
 1539.83333333 -11.3333333333 1486.16666667 -20.1666666667 1432.5 -26.5 c 128
 1378.83333333 -32.8333333333 1325.83333333 -37.1666666667 1273.5 -39.5 c 128
 1221.16666667 -41.8333333333 1172 -43 1126 -43 c 0
EndSplineSet
EndChar

StartChar: four
Encoding: 52 52 29
Width: 2136
Flags: HW
LayerCount: 2
Fore
SplineSet
1774 -29 m 1
 1196 -29 l 1
 1196 233 l 1
 49 236 l 1
 51 655 l 1
 944 1556 l 1
 1784 1556 l 1
 1784 680 l 1
 2068 680 l 1
 2068 233 l 1
 1774 233 l 1
 1774 -29 l 1
1196 680 m 1
 1196 1190 l 1
 700 680 l 1
 1196 680 l 1
EndSplineSet
EndChar

StartChar: five
Encoding: 53 53 30
Width: 2193
Flags: HW
LayerCount: 2
Fore
SplineSet
745 1145 m 1
 721 1006 l 1
 755.666666667 1014.66666667 790 1021.83333333 824 1027.5 c 128
 858 1033.16666667 893.5 1037.66666667 930.5 1041 c 128
 967.5 1044.33333333 1007.16666667 1046.83333333 1049.5 1048.5 c 128
 1091.83333333 1050.16666667 1138.66666667 1051 1190 1051 c 0
 1228 1051 1270.33333333 1050 1317 1048 c 128
 1363.66666667 1046 1412.33333333 1042 1463 1036 c 128
 1513.66666667 1030 1565 1021.33333333 1617 1010 c 128
 1669 998.666666667 1719.16666667 983.833333333 1767.5 965.5 c 128
 1815.83333333 947.166666667 1861.33333333 924.666666667 1904 898 c 128
 1946.66666667 871.333333333 1983.83333333 839.333333333 2015.5 802 c 128
 2047.16666667 764.666666667 2072.16666667 721.833333333 2090.5 673.5 c 128
 2108.83333333 625.166666667 2118 570 2118 508 c 0
 2118 424.666666667 2103.5 352.5 2074.5 291.5 c 128
 2045.5 230.5 2006.66666667 178.5 1958 135.5 c 128
 1909.33333333 92.5 1853.16666667 57.5 1789.5 30.5 c 128
 1725.83333333 3.5 1659.16666667 -17.6666666667 1589.5 -33 c 128
 1519.83333333 -48.3333333333 1449.5 -58.6666666667 1378.5 -64 c 128
 1307.5 -69.3333333333 1240.66666667 -72 1178 -72 c 0
 1131.33333333 -72 1080.16666667 -71.1666666667 1024.5 -69.5 c 128
 968.833333333 -67.8333333333 911.166666667 -64.1666666667 851.5 -58.5 c 128
 791.833333333 -52.8333333333 731.666666667 -44.3333333333 671 -33 c 128
 610.333333333 -21.6666666667 551.666666667 -6.16666666667 495 13.5 c 128
 438.333333333 33.1666666667 385.166666667 57.6666666667 335.5 87 c 128
 285.833333333 116.333333333 242.333333333 151.833333333 205 193.5 c 128
 167.666666667 235.166666667 137.666666667 283.5 115 338.5 c 128
 92.3333333333 393.5 80 456.666666667 78 528 c 1
 733 504 l 1
 743 470 762.5 441.666666667 791.5 419 c 128
 820.5 396.333333333 853.833333333 378.333333333 891.5 365 c 128
 929.166666667 351.666666667 968.5 342.5 1009.5 337.5 c 128
 1050.5 332.5 1088 330.666666667 1122 332 c 0
 1150 332.666666667 1181.5 336.166666667 1216.5 342.5 c 128
 1251.5 348.833333333 1284.5 359 1315.5 373 c 128
 1346.5 387 1372.5 405.5 1393.5 428.5 c 128
 1414.5 451.5 1425 480.666666667 1425 516 c 0
 1425 542.666666667 1418.16666667 565.5 1404.5 584.5 c 128
 1390.83333333 603.5 1372.83333333 619.333333333 1350.5 632 c 128
 1328.16666667 644.666666667 1302.83333333 654.666666667 1274.5 662 c 128
 1246.16666667 669.333333333 1217.66666667 675 1189 679 c 128
 1160.33333333 683 1132.83333333 685.5 1106.5 686.5 c 128
 1080.16666667 687.5 1057.33333333 688 1038 688 c 0
 992.666666667 688 947.166666667 684.166666667 901.5 676.5 c 128
 855.833333333 668.833333333 809.333333333 654.333333333 762 633 c 1
 190 655 l 1
 315 1536 l 1
 2013 1534 l 1
 2013 1145 l 1
 745 1145 l 1
EndSplineSet
EndChar

StartChar: six
Encoding: 54 54 31
Width: 2148
Flags: HW
LayerCount: 2
Fore
SplineSet
1130 33 m 1
 1010.66666667 29 894.166666667 36.5 780.5 55.5 c 128
 666.833333333 74.5 556.333333333 108 449 156 c 1
 444 156 l 1
 423.333333333 171.333333333 402.333333333 184.833333333 381 196.5 c 128
 359.666666667 208.166666667 340 222.666666667 322 240 c 0
 308.666666667 252 296.666666667 263.333333333 286 274 c 128
 275.333333333 284.666666667 265 295.333333333 255 306 c 128
 245 316.666666667 235.5 327.666666667 226.5 339 c 128
 217.5 350.333333333 208.333333333 363 199 377 c 0
 199 377.666666667 198.333333333 378.666666667 197 380 c 0
 196.333333333 380.666666667 195.666666667 381 195 381 c 0
 192.333333333 385 188.333333333 391.666666667 183 401 c 128
 177.666666667 410.333333333 172 420.166666667 166 430.5 c 128
 160 440.833333333 154.5 450.666666667 149.5 460 c 128
 144.5 469.333333333 141 475.666666667 139 479 c 0
 135 488.333333333 132.666666667 495.666666667 132 501 c 128
 131.333333333 506.333333333 129 512.666666667 125 520 c 1
 123 526.666666667 119.666666667 538.833333333 115 556.5 c 128
 110.333333333 574.166666667 105.5 593 100.5 613 c 128
 95.5 633 90.6666666667 651.833333333 86 669.5 c 128
 81.3333333333 687.166666667 78 699.666666667 76 707 c 0
 69.3333333333 733.666666667 66 761.5 66 790.5 c 128
 66 834 66 834 66 874 c 2
 66 965 l 1
 70 991 74.1666666667 1017.5 78.5 1044.5 c 128
 82.8333333333 1071.5 88.3333333333 1098.16666667 95 1124.5 c 128
 101.666666667 1150.83333333 109.833333333 1176.66666667 119.5 1202 c 128
 129.166666667 1227.33333333 141.333333333 1251.33333333 156 1274 c 1
 166 1292.66666667 176 1308.33333333 186 1321 c 128
 196 1333.66666667 207 1347.33333333 219 1362 c 1
 219 1363.33333333 219.666666667 1365 221 1367 c 128
 222.333333333 1369 223 1370.66666667 223 1372 c 1
 307 1456 l 1
 313.666666667 1460 321.666666667 1464.66666667 331 1470 c 128
 340.333333333 1475.33333333 349.333333333 1481.16666667 358 1487.5 c 128
 366.666666667 1493.83333333 374.5 1500.5 381.5 1507.5 c 128
 388.5 1514.5 393 1522 395 1530 c 1
 399 1526 l 1
 543 1593 l 2
 547 1594.33333333 551.666666667 1595.66666667 557 1597 c 128
 562.333333333 1598.33333333 567 1600.66666667 571 1604 c 1
 637 1625.33333333 705 1641.33333333 775 1652 c 128
 845 1662.66666667 914.333333333 1669 983 1671 c 1
 1011 1669.66666667 1039.83333333 1670.33333333 1069.5 1673 c 128
 1099.16666667 1675.66666667 1128.33333333 1677 1157 1677 c 0
 1173.66666667 1677 1190.66666667 1676.16666667 1208 1674.5 c 128
 1225.33333333 1672.83333333 1242.5 1671.16666667 1259.5 1669.5 c 128
 1276.5 1667.83333333 1293.5 1666.66666667 1310.5 1666 c 128
 1327.5 1665.33333333 1344.66666667 1665.66666667 1362 1667 c 1
 1534 1642 l 1
 1537.33333333 1639.33333333 1539.5 1637.83333333 1540.5 1637.5 c 128
 1541.5 1637.16666667 1542.16666667 1637 1542.5 1637 c 128
 1542.83333333 1637 1543.16666667 1637.33333333 1543.5 1638 c 128
 1543.83333333 1638.66666667 1545.33333333 1638.66666667 1548 1638 c 0
 1553.33333333 1636.66666667 1560.5 1634.83333333 1569.5 1632.5 c 128
 1578.5 1630.16666667 1587.33333333 1628 1596 1626 c 128
 1604.66666667 1624 1612.33333333 1622.33333333 1619 1621 c 128
 1625.66666667 1619.66666667 1629.33333333 1618.66666667 1630 1618 c 0
 1636 1616.66666667 1645.83333333 1613.5 1659.5 1608.5 c 128
 1673.16666667 1603.5 1687.66666667 1598.16666667 1703 1592.5 c 128
 1718.33333333 1586.83333333 1732.66666667 1581.33333333 1746 1576 c 128
 1759.33333333 1570.66666667 1768.66666667 1567 1774 1565 c 1
 1792 1552.33333333 1812 1540 1834 1528 c 128
 1856 1516 1874.66666667 1501.66666667 1890 1485 c 1
 1907.33333333 1467.66666667 1925.83333333 1448.33333333 1945.5 1427 c 128
 1965.16666667 1405.66666667 1979.66666667 1382.66666667 1989 1358 c 0
 1989.66666667 1356.66666667 1991.83333333 1351.16666667 1995.5 1341.5 c 128
 1999.16666667 1331.83333333 2003 1321 2007 1309 c 128
 2013 1291 2013 1291 2019 1273 c 128
 2023 1261 2026 1251.66666667 2028 1245 c 1
 2031.33333333 1237 2033.16666667 1231.33333333 2033.5 1228 c 128
 2033.83333333 1224.66666667 2034 1218.66666667 2034 1210 c 2
 2034 1196 l 1
 2026.66666667 1192.66666667 2022.16666667 1191.16666667 2020.5 1191.5 c 128
 2018.83333333 1191.83333333 2015 1192 2009 1192 c 1
 2005.66666667 1191.33333333 1998.5 1190.66666667 1987.5 1190 c 128
 1976.5 1189.33333333 1964.66666667 1188.66666667 1952 1188 c 128
 1939.33333333 1187.33333333 1927.5 1186.83333333 1916.5 1186.5 c 128
 1905.5 1186.16666667 1898.66666667 1186 1896 1186 c 2
 1636 1186 l 1
 1376 1186 l 1
 1376 1187.33333333 1375.33333333 1188.33333333 1374 1189 c 128
 1372.66666667 1189.66666667 1372 1190.66666667 1372 1192 c 1
 1358.66666667 1208.66666667 1345.66666667 1224 1333 1238 c 128
 1320.33333333 1252 1303.33333333 1262.66666667 1282 1270 c 0
 1279.33333333 1270.66666667 1274.5 1272.16666667 1267.5 1274.5 c 128
 1260.5 1276.83333333 1252.83333333 1279.33333333 1244.5 1282 c 128
 1236.16666667 1284.66666667 1228.16666667 1287 1220.5 1289 c 128
 1212.83333333 1291 1207.33333333 1292.66666667 1204 1294 c 1
 1198 1293.33333333 1190.83333333 1293.33333333 1182.5 1294 c 128
 1174.16666667 1294.66666667 1165.66666667 1295.5 1157 1296.5 c 128
 1148.33333333 1297.5 1139.66666667 1298.33333333 1131 1299 c 128
 1122.33333333 1299.66666667 1114.66666667 1300 1108 1300 c 0
 1062 1300 1015.66666667 1295.33333333 969 1286 c 128
 922.333333333 1276.66666667 880 1258.33333333 842 1231 c 0
 840.666666667 1229.66666667 837.666666667 1227 833 1223 c 128
 828.333333333 1219 823.333333333 1214.33333333 818 1209 c 128
 812.666666667 1203.66666667 807.666666667 1198.5 803 1193.5 c 128
 798.333333333 1188.5 795 1184.66666667 793 1182 c 0
 789 1177.33333333 786.5 1173.66666667 785.5 1171 c 128
 784.5 1168.33333333 783.833333333 1166 783.5 1164 c 128
 783.166666667 1162 782.333333333 1160.33333333 781 1159 c 128
 779.666666667 1157.66666667 776.666666667 1155.66666667 772 1153 c 1
 771.333333333 1151 770.166666667 1147.33333333 768.5 1142 c 128
 766.833333333 1136.66666667 765 1131.16666667 763 1125.5 c 128
 761 1119.83333333 759.166666667 1114.33333333 757.5 1109 c 128
 755.833333333 1103.66666667 754.666666667 1100 754 1098 c 0
 752.666666667 1094 751.5 1091.5 750.5 1090.5 c 128
 749 1089 749 1089 748.5 1088.5 c 128
 748.166666667 1088.16666667 748 1087.66666667 748 1087 c 128
 748 1086 748 1086 748 1081 c 0
 748 1079.66666667 748.166666667 1077 748.5 1073 c 128
 748.833333333 1069 750.666666667 1067.66666667 754 1069 c 2
 909 1104 l 1
 910.333333333 1102.66666667 912.166666667 1102 914.5 1102 c 128
 916.833333333 1102 918.666666667 1102.66666667 920 1104 c 1
 979.333333333 1110 1037.5 1115.5 1094.5 1120.5 c 128
 1151.5 1125.5 1210 1128 1270 1128 c 0
 1316 1128 1361.5 1125.5 1406.5 1120.5 c 128
 1451.5 1115.5 1496.66666667 1110 1542 1104 c 1
 1565.33333333 1100 1588 1096.66666667 1610 1094 c 128
 1632 1091.33333333 1653.66666667 1086.33333333 1675 1079 c 1
 1675 1077.66666667 1675.66666667 1077 1677 1077 c 128
 1678.33333333 1077 1679 1077.66666667 1679 1079 c 1
 1732.33333333 1062.33333333 1781.5 1042.5 1826.5 1019.5 c 128
 1871.5 996.5 1911.33333333 969 1946 937 c 128
 1980.66666667 905 2009.66666667 867.5 2033 824.5 c 128
 2056.33333333 781.5 2073 732 2083 676 c 0
 2083 673.333333333 2083.16666667 668.833333333 2083.5 662.5 c 128
 2083.83333333 656.166666667 2084 649.333333333 2084 642 c 128
 2084 634.666666667 2084.16666667 627.833333333 2084.5 621.5 c 128
 2084.83333333 615.166666667 2085 610.666666667 2085 608 c 0
 2085 548 2078.33333333 495.666666667 2065 451 c 128
 2051.66666667 406.333333333 2032.33333333 366.5 2007 331.5 c 128
 1981.66666667 296.5 1950.5 264.666666667 1913.5 236 c 128
 1876.5 207.333333333 1834.66666667 179.333333333 1788 152 c 1
 1786.66666667 152.666666667 1782.66666667 151.333333333 1776 148 c 128
 1769.33333333 144.666666667 1762 140.833333333 1754 136.5 c 128
 1746 132.166666667 1738.33333333 128 1731 124 c 128
 1723.66666667 120 1718 117.666666667 1714 117 c 0
 1670 102.333333333 1624 88.6666666667 1576 76 c 128
 1528 63.3333333333 1481.33333333 54.3333333333 1436 49 c 1
 1434 47.6666666667 1428.83333333 47.3333333333 1420.5 48 c 128
 1412.16666667 48.6666666667 1407 49 1405 49 c 0
 1402.33333333 48.3333333333 1395.33333333 47.5 1384 46.5 c 128
 1372.66666667 45.5 1360.33333333 44.5 1347 43.5 c 128
 1333.66666667 42.5 1321.16666667 41.5 1309.5 40.5 c 128
 1297.83333333 39.5 1290.66666667 39 1288 39 c 2
 1278 39 l 2
 1275.33333333 39 1269 38.8333333333 1259 38.5 c 128
 1249 38.1666666667 1238.33333333 37.6666666667 1227 37 c 128
 1215.66666667 36.3333333333 1205 35.6666666667 1195 35 c 128
 1185 34.3333333333 1178.66666667 33.6666666667 1176 33 c 1
 1171.33333333 33 1164.66666667 33.6666666667 1156 35 c 128
 1147.33333333 36.3333333333 1141 34.3333333333 1137 29 c 1
 1141 29 l 1
 1130 33 l 1
1092 350 m 256
 1090.66666667 350 1090 349 1090 347 c 128
 1090 345 1090.66666667 344 1092 344 c 256
 1093.33333333 344 1094 345 1094 347 c 128
 1094 349 1093.33333333 350 1092 350 c 256
772 578 m 0
 772 554 778.333333333 533.833333333 791 517.5 c 128
 803.666666667 501.166666667 819.5 488 838.5 478 c 128
 857.5 468 877.666666667 460.666666667 899 456 c 128
 920.333333333 451.333333333 940 448 958 446 c 0
 975.333333333 444 993.5 440.833333333 1012.5 436.5 c 128
 1031.5 432.166666667 1049.66666667 430 1067 430 c 0
 1083.66666667 430 1103.5 430.833333333 1126.5 432.5 c 128
 1149.5 434.166666667 1173.33333333 437 1198 441 c 128
 1222.66666667 445 1246.83333333 450.833333333 1270.5 458.5 c 128
 1294.16666667 466.166666667 1315.33333333 475.833333333 1334 487.5 c 128
 1352.66666667 499.166666667 1367.83333333 513.5 1379.5 530.5 c 128
 1391.16666667 547.5 1397 567.333333333 1397 590 c 0
 1397 614.666666667 1391.83333333 635.5 1381.5 652.5 c 128
 1371.16666667 669.5 1357.66666667 683.5 1341 694.5 c 128
 1324.33333333 705.5 1305.83333333 714.333333333 1285.5 721 c 128
 1265.16666667 727.666666667 1245 733.666666667 1225 739 c 1
 1219 739 l 1
 1217 739.666666667 1213.16666667 740.5 1207.5 741.5 c 128
 1201.83333333 742.5 1195.66666667 743.666666667 1189 745 c 128
 1182.33333333 746.333333333 1176.16666667 747.5 1170.5 748.5 c 128
 1164.83333333 749.5 1161.66666667 750 1161 750 c 2
 1096 750 l 2
 1077.33333333 750 1056.5 749.333333333 1033.5 748 c 128
 1010.5 746.666666667 987 743.833333333 963 739.5 c 128
 939 735.166666667 915.5 729.166666667 892.5 721.5 c 128
 869.5 713.833333333 849.166666667 703.5 831.5 690.5 c 128
 813.833333333 677.5 799.5 661.833333333 788.5 643.5 c 128
 777.5 625.166666667 772 603.333333333 772 578 c 0
553 688 m 0
 551 688 550 687.333333333 550 686 c 128
 550 684.666666667 551 684 553 684 c 0
 554.333333333 684 555 684.666666667 555 686 c 128
 555 687.333333333 554.333333333 688 553 688 c 0
543 711 m 0
 541 711 540 710 540 708 c 128
 540 706 541 705.666666667 543 707 c 1
 544.333333333 707 545 707.666666667 545 709 c 128
 545 710.333333333 544.333333333 711 543 711 c 0
571 737 m 256
 569.666666667 737 569 736.333333333 569 735 c 128
 569 733.666666667 569.666666667 733 571 733 c 256
 572.333333333 733 573 733.666666667 573 735 c 128
 573 736.333333333 572.333333333 737 571 737 c 256
473 846 m 256
 471.666666667 846 471 845 471 843 c 128
 471 841 471.666666667 840 473 840 c 256
 474.333333333 840 475 841 475 843 c 128
 475 845 474.333333333 846 473 846 c 256
547 893 m 0
 545.666666667 893 545 892 545 890 c 128
 545 888 545.666666667 887 547 887 c 0
 551 889 551 891 547 893 c 0
262 899 m 256
 260.666666667 899 260 898.333333333 260 897 c 128
 260 895.666666667 260.666666667 895 262 895 c 256
 263.333333333 895 264 895.666666667 264 897 c 128
 264 898.333333333 263.333333333 899 262 899 c 256
719 958 m 256
 717.666666667 958 717 957 717 955 c 128
 717 953 717.666666667 952 719 952 c 256
 720.333333333 952 721 953 721 955 c 128
 721 957 720.333333333 958 719 958 c 256
821 993 m 256
 819.666666667 993 819 992 819 990 c 128
 819 988 819.666666667 987 821 987 c 256
 822.333333333 987 823 988 823 990 c 128
 823 992 822.333333333 993 821 993 c 256
283 999 m 1
 281 1000.33333333 280 999.666666667 280 997 c 128
 280 994.333333333 281 993.666666667 283 995 c 1
 284.333333333 995 285 995.666666667 285 997 c 128
 285 998.333333333 284.333333333 999 283 999 c 1
571 1059 m 1
 575 1063 l 1
 571 1063 l 1
 571 1059 l 1
406 1143 m 1
 410 1147 l 1
 406 1147 l 1
 406 1143 l 1
121 1171 m 0
 119.666666667 1171.66666667 118.833333333 1171.16666667 118.5 1169.5 c 128
 118.166666667 1167.83333333 118 1166 118 1164 c 128
 118 1162 118.166666667 1160.16666667 118.5 1158.5 c 128
 118.833333333 1156.83333333 119.666666667 1156.33333333 121 1157 c 0
 122.333333333 1158.33333333 123 1160.66666667 123 1164 c 128
 123 1167.33333333 122.333333333 1169.66666667 121 1171 c 0
479 1208 m 0
 477 1208 476 1207.33333333 476 1206 c 128
 476 1204.66666667 477 1204 479 1204 c 0
 480.333333333 1204 481 1204.66666667 481 1206 c 128
 481 1207.33333333 480.333333333 1208 479 1208 c 0
233 1317 m 256
 231.666666667 1317 231 1316 231 1314 c 128
 231 1312 231.666666667 1311 233 1311 c 256
 234.333333333 1311 235 1312 235 1314 c 128
 235 1316 234.333333333 1317 233 1317 c 256
244 1319 m 1
 246 1319 l 2
 248.666666667 1319 250.666666667 1320.33333333 252 1323 c 1
 244 1319 l 1
262 1331 m 256
 260.666666667 1331 260 1330.33333333 260 1329 c 128
 260 1327.66666667 260.666666667 1327 262 1327 c 256
 263.333333333 1327 264 1327.66666667 264 1329 c 128
 264 1330.33333333 263.333333333 1331 262 1331 c 256
276 1333 m 1
 277.333333333 1335 277 1336 275 1336 c 128
 273 1336 272 1335 272 1333 c 0
 272 1331.66666667 272.666666667 1331 274 1331 c 128
 275.333333333 1331 276 1331.66666667 276 1333 c 1
EndSplineSet
EndChar

StartChar: seven
Encoding: 55 55 32
Width: 2109
Flags: HW
LayerCount: 2
Fore
SplineSet
326 63 m 1
 291 70 l 1
 291 80 l 1
 291 98 l 1
 292.333333333 105.333333333 293.666666667 114.833333333 295 126.5 c 128
 296.333333333 138.166666667 297.666666667 149.666666667 299 161 c 0
 301 173.666666667 303 187 305 201 c 1
 311 207 l 1
 317.666666667 244.333333333 327.5 281.5 340.5 318.5 c 128
 353.5 355.5 369.666666667 390 389 422 c 1
 392.333333333 424 396.333333333 428.666666667 401 436 c 128
 405.666666667 443.333333333 410.333333333 451.5 415 460.5 c 128
 422 474 422 474 429 487.5 c 128
 433.666666667 496.5 438 504 442 510 c 1
 471.333333333 546 499.666666667 579.833333333 527 611.5 c 128
 554.333333333 643.166666667 585.666666667 675 621 707 c 0
 633 718.333333333 646.166666667 730.166666667 660.5 742.5 c 128
 674.833333333 754.833333333 688.666666667 766 702 776 c 0
 707.333333333 779.333333333 713.666666667 783 721 787 c 128
 728.333333333 791 733.666666667 795.666666667 737 801 c 1
 889 907 l 1
 894.333333333 909 903.666666667 914.333333333 917 923 c 128
 930.333333333 931.666666667 945.833333333 941.833333333 963.5 953.5 c 128
 981.166666667 965.166666667 999.5 977.5 1018.5 990.5 c 128
 1037.5 1003.5 1055 1015.33333333 1071 1026 c 128
 1087 1036.66666667 1100.5 1045.33333333 1111.5 1052 c 128
 1122.5 1058.66666667 1128.66666667 1061.66666667 1130 1061 c 1
 1164 1083.66666667 1197 1108.33333333 1229 1135 c 128
 1261 1161.66666667 1290.33333333 1191 1317 1223 c 1
 1317 1225 l 2
 1317 1226.33333333 1316.5 1227.66666667 1315.5 1229 c 128
 1314.5 1230.33333333 1313 1231 1311 1231 c 2
 954 1231 l 1
 944 1232.33333333 935.166666667 1233.5 927.5 1234.5 c 128
 919.833333333 1235.5 912.5 1236.16666667 905.5 1236.5 c 128
 898.5 1236.83333333 891.5 1237 884.5 1237 c 128
 874 1237 874 1237 860 1237 c 2
 825 1237 l 2
 823.666666667 1237 819.833333333 1236.66666667 813.5 1236 c 128
 807.166666667 1235.33333333 800.5 1234.66666667 793.5 1234 c 128
 786.5 1233.33333333 779.833333333 1232.66666667 773.5 1232 c 128
 767.166666667 1231.33333333 763.333333333 1231 762 1231 c 0
 759.333333333 1231 753 1231.33333333 743 1232 c 128
 733 1232.66666667 722.333333333 1233.33333333 711 1234 c 128
 699.666666667 1234.66666667 688.833333333 1235.33333333 678.5 1236 c 128
 668.166666667 1236.66666667 661.666666667 1237 659 1237 c 2
 373 1237 l 1
 188 1237 l 1
 178 1231 l 1
 178 1237 l 1
 80 1237 l 2
 76.6666666667 1237 73.5 1238.5 70.5 1241.5 c 128
 67.5 1244.5 66 1247.66666667 66 1251 c 2
 66 1335 l 2
 66 1385 67 1434.33333333 69 1483 c 128
 71 1531.66666667 71.3333333333 1580 70 1628 c 1
 72 1632 74.1666666667 1636 76.5 1640 c 128
 78.8333333333 1644 82 1647 86 1649 c 1
 154.666666667 1647.66666667 223.166666667 1648.33333333 291.5 1651 c 128
 359.833333333 1653.66666667 428.666666667 1655 498 1655 c 0
 702 1655 904.666666667 1653.83333333 1106 1651.5 c 128
 1307.33333333 1649.16666667 1510 1647 1714 1645 c 1
 1978 1645 l 2
 1983.33333333 1645 1990.66666667 1645.5 2000 1646.5 c 128
 2009.33333333 1647.5 2018.66666667 1647.5 2028 1646.5 c 128
 2037.33333333 1645.5 2045.33333333 1643 2052 1639 c 128
 2058.66666667 1635 2062 1628 2062 1618 c 2
 2062 1614 l 1
 2061.33333333 1606.66666667 2060.33333333 1593.5 2059 1574.5 c 128
 2057.66666667 1555.5 2056.33333333 1535.33333333 2055 1514 c 128
 2053.66666667 1492.66666667 2052.33333333 1472.5 2051 1453.5 c 128
 2049.66666667 1434.5 2048.66666667 1421 2048 1413 c 0
 2047.33333333 1410.33333333 2046.33333333 1406 2045 1400 c 128
 2043.66666667 1394 2042.16666667 1387.66666667 2040.5 1381 c 128
 2038.83333333 1374.33333333 2037.16666667 1368 2035.5 1362 c 128
 2033.83333333 1356 2032.66666667 1352 2032 1350 c 0
 2029.33333333 1342.66666667 2025 1331.5 2019 1316.5 c 128
 2013 1301.5 2007 1286.16666667 2001 1270.5 c 128
 1995 1254.83333333 1989.33333333 1240.5 1984 1227.5 c 128
 1978.66666667 1214.5 1975.33333333 1206 1974 1202 c 0
 1970.66666667 1195.33333333 1965.33333333 1186 1958 1174 c 128
 1950.66666667 1162 1943.16666667 1149.66666667 1935.5 1137 c 128
 1927.83333333 1124.33333333 1920.66666667 1113 1914 1103 c 128
 1907.33333333 1093 1903 1087 1901 1085 c 2
 1655 844 l 1
 1580.33333333 785.333333333 1506.66666667 723 1434 657 c 0
 1428 651.666666667 1421 646.333333333 1413 641 c 128
 1405 635.666666667 1397 630 1389 624 c 128
 1381 618 1373.5 611.666666667 1366.5 605 c 128
 1359.5 598.333333333 1354.66666667 591.333333333 1352 584 c 1
 1257 492 l 1
 1255 488 1255 488 1251.5 481 c 128
 1249.16666667 476.333333333 1246.33333333 473 1243 471 c 1
 1213 429.666666667 1187.16666667 388 1165.5 346 c 128
 1143.83333333 304 1125.33333333 259 1110 211 c 0
 1108 205 1105.83333333 193.666666667 1103.5 177 c 128
 1101.16666667 160.333333333 1098.33333333 143.166666667 1095 125.5 c 128
 1091.66666667 107.833333333 1087.66666667 92.3333333333 1083 79 c 128
 1078.33333333 65.6666666667 1073 59 1067 59 c 2
 987 59 l 1
 979 63 l 1
 326 63 l 1
735 952 m 1
 735 938 l 1
 719 942 l 1
 735 952 l 1
713 950 m 256
 714.333333333 950 715 949 715 947 c 128
 715 945 714.333333333 944 713 944 c 256
 711.666666667 944 711 945 711 947 c 128
 711 949 711.666666667 950 713 950 c 256
727 963 m 1
 727 956 l 1
 723 963 l 1
 727 963 l 1
748 995 m 1
 736.666666667 995 726.166666667 992.666666667 716.5 988 c 128
 706.833333333 983.333333333 702 975 702 963 c 1
 700 963 l 1
 700 976.333333333 704.333333333 985.666666667 713 991 c 128
 721.666666667 996.333333333 733.333333333 999.666666667 748 1001 c 1
 748 995 l 1
719 969 m 0
 720.333333333 969 721 968.333333333 721 967 c 128
 721 965.666666667 720.333333333 965 719 965 c 0
 717 965 716 965.666666667 716 967 c 128
 716 968.333333333 717 969 719 969 c 0
831 1264 m 0
 829 1264 828 1263.33333333 828 1262 c 128
 828 1260.66666667 829 1260 831 1260 c 0
 832.333333333 1260 833 1260.66666667 833 1262 c 128
 833 1263.33333333 832.333333333 1264 831 1264 c 0
557 1417 m 1
 555 1418.33333333 554 1418 554 1416 c 128
 554 1414 555 1413 557 1413 c 0
 558.333333333 1413 559 1413.66666667 559 1415 c 128
 559 1416.33333333 558.333333333 1417 557 1417 c 1
1282 1520 m 256
 1280.66666667 1520 1280 1518.83333333 1280 1516.5 c 128
 1280 1514.16666667 1280.66666667 1513 1282 1513 c 256
 1283.33333333 1513 1284 1514.16666667 1284 1516.5 c 128
 1284 1518.83333333 1283.33333333 1520 1282 1520 c 256
727 1538 m 0
 725.666666667 1538 725 1537.33333333 725 1536 c 128
 725 1534.66666667 725.666666667 1534 727 1534 c 0
 729 1534 730 1534.66666667 730 1536 c 128
 730 1537.33333333 729 1538 727 1538 c 0
EndSplineSet
EndChar

StartChar: eight
Encoding: 56 56 33
Width: 2157
Flags: HW
LayerCount: 2
Fore
SplineSet
332 154 m 1
 291.333333333 172 255 195.5 223 224.5 c 128
 191 253.5 163.833333333 286.166666667 141.5 322.5 c 128
 119.166666667 358.833333333 102 398 90 440 c 128
 78 482 72 525 72 569 c 0
 72 597 74.1666666667 625.833333333 78.5 655.5 c 128
 82.8333333333 685.166666667 92 712.333333333 106 737 c 0
 106.666666667 738.333333333 108.833333333 742 112.5 748 c 128
 116.166666667 754 120.333333333 760.333333333 125 767 c 128
 129.666666667 773.666666667 133.833333333 779.666666667 137.5 785 c 128
 141.166666667 790.333333333 143.666666667 793.666666667 145 795 c 1
 145 796.333333333 145.666666667 798.333333333 147 801 c 0
 147.666666667 802.333333333 148.666666667 803.666666667 150 805 c 0
 167.333333333 827.666666667 187.333333333 847.166666667 210 863.5 c 128
 232.666666667 879.833333333 257 893 283 903 c 1
 283 913 l 1
 258.333333333 925.666666667 234.833333333 941.333333333 212.5 960 c 128
 190.166666667 978.666666667 170.666666667 999.333333333 154 1022 c 128
 137.333333333 1044.66666667 124.166666667 1069.33333333 114.5 1096 c 128
 104.833333333 1122.66666667 100 1150.66666667 100 1180 c 0
 100 1254 116.5 1318.83333333 149.5 1374.5 c 128
 182.5 1430.16666667 228.333333333 1478 287 1518 c 0
 289 1519 289 1519 302 1525.5 c 128
 310.666666667 1529.83333333 320 1534.66666667 330 1540 c 128
 340 1545.33333333 349 1550.5 357 1555.5 c 128
 365 1560.5 369.666666667 1563.66666667 371 1565 c 0
 399.666666667 1579 430.166666667 1590.83333333 462.5 1600.5 c 128
 494.833333333 1610.16666667 526.333333333 1618 557 1624 c 1
 559.666666667 1623.33333333 564.833333333 1623.66666667 572.5 1625 c 128
 580.166666667 1626.33333333 588 1627.83333333 596 1629.5 c 128
 604 1631.16666667 611.666666667 1632.83333333 619 1634.5 c 128
 626.333333333 1636.16666667 631.666666667 1637.33333333 635 1638 c 0
 665.666666667 1643.33333333 697.666666667 1649 731 1655 c 128
 764.333333333 1661 796.333333333 1665.66666667 827 1669 c 0
 873 1673 919.333333333 1674.66666667 966 1674 c 128
 1012.66666667 1673.33333333 1058.66666667 1673 1104 1673 c 2
 1253 1673 l 1
 1279 1669 1304.66666667 1666.5 1330 1665.5 c 128
 1355.33333333 1664.5 1380.33333333 1662.33333333 1405 1659 c 0
 1407 1659 1411.66666667 1658.5 1419 1657.5 c 128
 1426.33333333 1656.5 1434.16666667 1655.5 1442.5 1654.5 c 128
 1450.83333333 1653.5 1458.66666667 1652.5 1466 1651.5 c 128
 1473.33333333 1650.5 1477.66666667 1649.66666667 1479 1649 c 1
 1489 1649 l 1
 1529.66666667 1642.33333333 1571.66666667 1633.66666667 1615 1623 c 128
 1658.33333333 1612.33333333 1700.5 1599 1741.5 1583 c 128
 1782.5 1567 1821.33333333 1547.83333333 1858 1525.5 c 128
 1894.66666667 1503.16666667 1926.83333333 1476.83333333 1954.5 1446.5 c 128
 1982.16666667 1416.16666667 2004 1381.16666667 2020 1341.5 c 128
 2036 1301.83333333 2044 1256.66666667 2044 1206 c 0
 2044 1158.66666667 2036.16666667 1113.16666667 2020.5 1069.5 c 128
 2004.83333333 1025.83333333 1978.66666667 988 1942 956 c 0
 1940 954.666666667 1936.33333333 952.166666667 1931 948.5 c 128
 1925.66666667 944.833333333 1919.83333333 941 1913.5 937 c 128
 1907.16666667 933 1901.33333333 929 1896 925 c 128
 1890.66666667 921 1887.33333333 918.666666667 1886 918 c 2
 1882 913 l 1
 1886 907.666666667 1891.33333333 903.333333333 1898 900 c 128
 1904.66666667 896.666666667 1911 893 1917 889 c 0
 1945 867.666666667 1969.33333333 846.5 1990 825.5 c 128
 2010.66666667 804.5 2027.83333333 782 2041.5 758 c 128
 2055.16666667 734 2065.5 707.666666667 2072.5 679 c 128
 2079.5 650.333333333 2083 618 2083 582 c 0
 2083 552 2081.5 524.5 2078.5 499.5 c 128
 2075.5 474.5 2070.33333333 450.833333333 2063 428.5 c 128
 2055.66666667 406.166666667 2046.16666667 383.833333333 2034.5 361.5 c 128
 2022.83333333 339.166666667 2008.33333333 315.666666667 1991 291 c 0
 1987.66666667 287 1984.33333333 280.833333333 1981 272.5 c 128
 1977.66666667 264.166666667 1974 260 1970 260 c 2
 1966 260 l 1
 1954.66666667 244.666666667 1941.5 230.666666667 1926.5 218 c 128
 1911.5 205.333333333 1895.5 193.666666667 1878.5 183 c 128
 1861.5 172.333333333 1844 162.666666667 1826 154 c 128
 1808 145.333333333 1790.66666667 137 1774 129 c 1
 1770.66666667 129.666666667 1766.83333333 129.333333333 1762.5 128 c 128
 1758.16666667 126.666666667 1754 125 1750 123 c 128
 1746 121 1742.66666667 119.166666667 1740 117.5 c 128
 1737.33333333 115.833333333 1735.66666667 115 1735 115 c 2
 1563 66 l 1
 1561.66666667 64.6666666667 1553.83333333 62.6666666667 1539.5 60 c 128
 1525.16666667 57.3333333333 1507.5 54.5 1486.5 51.5 c 128
 1465.5 48.5 1442.66666667 45.5 1418 42.5 c 128
 1393.33333333 39.5 1370 36.8333333333 1348 34.5 c 128
 1326 32.1666666667 1306.83333333 30 1290.5 28 c 128
 1274.16666667 26 1264 25 1260 25 c 0
 1256.66666667 25 1250.83333333 24.8333333333 1242.5 24.5 c 128
 1234.16666667 24.1666666667 1225.33333333 24 1216 24 c 128
 1206.66666667 24 1197.83333333 23.8333333333 1189.5 23.5 c 128
 1181.16666667 23.1666666667 1175 23 1171 23 c 2
 1155 23 l 1
 1085.66666667 25 1015.83333333 27 945.5 29 c 128
 875.166666667 31 805.5 36 736.5 44 c 128
 667.5 52 599.333333333 64.3333333333 532 81 c 128
 464.666666667 97.6666666667 399.333333333 122 336 154 c 1
 332 154 l 1
782 549 m 0
 782 521.666666667 790.5 500.166666667 807.5 484.5 c 128
 824.5 468.833333333 845.166666667 456.666666667 869.5 448 c 128
 893.833333333 439.333333333 919.166666667 433 945.5 429 c 128
 971.833333333 425 994.666666667 421.333333333 1014 418 c 1
 1018 422 1022 424 1026 424 c 256
 1030 424 1034 422 1038 418 c 1
 1077 418 l 1
 1116 418 l 1
 1120 418.666666667 1127.33333333 419.666666667 1138 421 c 128
 1148.66666667 422.333333333 1160 423.666666667 1172 425 c 128
 1184 426.333333333 1195.5 427.666666667 1206.5 429 c 128
 1217.5 430.333333333 1225 431.333333333 1229 432 c 1
 1231.66666667 434.666666667 1233.83333333 436.166666667 1235.5 436.5 c 128
 1237.16666667 436.833333333 1238.66666667 437 1240 437 c 128
 1241.33333333 437 1243 436.833333333 1245 436.5 c 128
 1247 436.166666667 1249.66666667 436.666666667 1253 438 c 0
 1272.33333333 443.333333333 1292 451.166666667 1312 461.5 c 128
 1332 471.833333333 1348.66666667 485.333333333 1362 502 c 0
 1366 507.333333333 1369.5 514 1372.5 522 c 128
 1375.5 530 1380 536.333333333 1386 541 c 1
 1386 559 l 2
 1386 579.666666667 1380.66666667 597.333333333 1370 612 c 128
 1359.33333333 626.666666667 1345.66666667 639.166666667 1329 649.5 c 128
 1312.33333333 659.833333333 1293.33333333 668.166666667 1272 674.5 c 128
 1250.66666667 680.833333333 1229.16666667 685.666666667 1207.5 689 c 128
 1185.83333333 692.333333333 1165.16666667 694.666666667 1145.5 696 c 128
 1125.83333333 697.333333333 1109.33333333 698 1096 698 c 0
 1073.33333333 698 1049.66666667 696.833333333 1025 694.5 c 128
 1000.33333333 692.166666667 976.666666667 690 954 688 c 1
 946.666666667 686.666666667 941.666666667 685 939 683 c 128
 936.333333333 681 932 680.666666667 926 682 c 1
 907.333333333 676.666666667 889.333333333 670.666666667 872 664 c 128
 854.666666667 657.333333333 839.333333333 648.833333333 826 638.5 c 128
 812.666666667 628.166666667 802 615.833333333 794 601.5 c 128
 786 587.166666667 782 569.666666667 782 549 c 0
1917 780 m 1
 1915 781.333333333 1914 781 1914 779 c 128
 1914 777 1915 776 1917 776 c 0
 1918.33333333 776 1919 776.666666667 1919 778 c 128
 1919 779.333333333 1918.33333333 780 1917 780 c 1
803 1171 m 0
 803 1161.66666667 805.333333333 1153.16666667 810 1145.5 c 128
 814.666666667 1137.83333333 820.5 1130.83333333 827.5 1124.5 c 128
 834.5 1118.16666667 842.5 1112.83333333 851.5 1108.5 c 128
 860.5 1104.16666667 869 1101.33333333 877 1100 c 0
 883.666666667 1098.66666667 893.333333333 1096.83333333 906 1094.5 c 128
 918.666666667 1092.16666667 931.166666667 1090 943.5 1088 c 128
 955.833333333 1086 966.833333333 1084.16666667 976.5 1082.5 c 128
 986.166666667 1080.83333333 991.666666667 1079.66666667 993 1079 c 1
 1057 1079 l 1
 1137 1079 l 1
 1153.66666667 1079.66666667 1174.5 1080.83333333 1199.5 1082.5 c 128
 1224.5 1084.16666667 1248.83333333 1088.16666667 1272.5 1094.5 c 128
 1296.16666667 1100.83333333 1316.33333333 1110.66666667 1333 1124 c 128
 1349.66666667 1137.33333333 1358 1156 1358 1180 c 0
 1358 1196.66666667 1352.33333333 1210.83333333 1341 1222.5 c 128
 1329.66666667 1234.16666667 1315 1243.66666667 1297 1251 c 128
 1279 1258.33333333 1258.83333333 1264.16666667 1236.5 1268.5 c 128
 1214.16666667 1272.83333333 1192.33333333 1276 1171 1278 c 128
 1149.66666667 1280 1129.83333333 1281.16666667 1111.5 1281.5 c 128
 1093.16666667 1281.83333333 1079 1282 1069 1282 c 0
 1033.66666667 1282 997.666666667 1279.33333333 961 1274 c 128
 924.333333333 1268.66666667 889.333333333 1259.66666667 856 1247 c 1
 851.333333333 1239.66666667 846 1233.83333333 840 1229.5 c 128
 834 1225.16666667 828.166666667 1220.5 822.5 1215.5 c 128
 816.833333333 1210.5 812.166666667 1204.66666667 808.5 1198 c 128
 804.833333333 1191.33333333 803 1182.33333333 803 1171 c 0
1847 1122 m 256
 1845.66666667 1122 1845 1121 1845 1119 c 128
 1845 1117 1845.66666667 1116 1847 1116 c 256
 1848.33333333 1116 1849 1117 1849 1119 c 128
 1849 1121 1848.33333333 1122 1847 1122 c 256
528 1348 m 256
 526.666666667 1348 526 1347.16666667 526 1345.5 c 128
 526 1343.83333333 526.666666667 1343 528 1343 c 256
 529.333333333 1343 530 1343.83333333 530 1345.5 c 128
 530 1347.16666667 529.333333333 1348 528 1348 c 256
1147 1376 m 0
 1145 1376 1144 1375.33333333 1144 1374 c 128
 1144 1372.66666667 1145 1372 1147 1372 c 0
 1148.33333333 1372 1149 1372.66666667 1149 1374 c 128
 1149 1375.33333333 1148.33333333 1376 1147 1376 c 0
EndSplineSet
EndChar

StartChar: ampersand
Encoding: 38 38 34
Width: 2267
Flags: HW
LayerCount: 2
Fore
SplineSet
1403 133 m 1
 1357 101.666666667 1301 73.6666666667 1235 49 c 0
 1207 38.3333333333 1175.33333333 28 1140 18 c 128
 1104.66666667 8 1065.83333333 -1 1023.5 -9 c 128
 981.166666667 -17 935.333333333 -23.3333333333 886 -28 c 128
 836.666666667 -32.6666666667 783.666666667 -35 727 -35 c 0
 681 -35 633 -30.6666666667 583 -22 c 128
 533 -13.3333333333 483.666666667 -0.166666666667 435 17.5 c 128
 386.333333333 35.1666666667 340 57.6666666667 296 85 c 128
 252 112.333333333 213.166666667 144.833333333 179.5 182.5 c 128
 145.833333333 220.166666667 119.166666667 262.833333333 99.5 310.5 c 128
 79.8333333333 358.166666667 70 411.666666667 70 471 c 0
 70 545 86 611.166666667 118 669.5 c 128
 150 727.833333333 192.666666667 778.666666667 246 822 c 128
 299.333333333 865.333333333 360.666666667 901.5 430 930.5 c 128
 499.333333333 959.5 571 981 645 995 c 1
 629 1013.66666667 613.666666667 1032.16666667 599 1050.5 c 128
 584.333333333 1068.83333333 571.666666667 1088.33333333 561 1109 c 128
 550.333333333 1129.66666667 541.833333333 1152.33333333 535.5 1177 c 128
 529.166666667 1201.66666667 526 1230 526 1262 c 0
 526 1316 536.833333333 1363 558.5 1403 c 128
 580.166666667 1443 609.166666667 1477 645.5 1505 c 128
 681.833333333 1533 723.666666667 1556 771 1574 c 128
 818.333333333 1592 867.166666667 1606 917.5 1616 c 128
 967.833333333 1626 1018.16666667 1632.83333333 1068.5 1636.5 c 128
 1118.83333333 1640.16666667 1165.33333333 1642 1208 1642 c 0
 1260.66666667 1642 1313.16666667 1638.66666667 1365.5 1632 c 128
 1417.83333333 1625.33333333 1467.83333333 1615 1515.5 1601 c 128
 1563.16666667 1587 1607.33333333 1569 1648 1547 c 128
 1688.66666667 1525 1724.16666667 1498.5 1754.5 1467.5 c 128
 1784.83333333 1436.5 1808.5 1401.16666667 1825.5 1361.5 c 128
 1842.5 1321.83333333 1851 1277 1851 1227 c 0
 1851 1175 1839.16666667 1129 1815.5 1089 c 128
 1791.83333333 1049 1760.33333333 1014 1721 984 c 128
 1681.66666667 954 1636.16666667 927.833333333 1584.5 905.5 c 128
 1532.83333333 883.166666667 1479 863.333333333 1423 846 c 1
 1439 827.333333333 1458.66666667 805.333333333 1482 780 c 128
 1505.33333333 754.666666667 1527.66666667 730.333333333 1549 707 c 0
 1574.33333333 679.666666667 1600.66666667 651.666666667 1628 623 c 1
 1674 654.333333333 1719 686 1763 718 c 0
 1781.66666667 732 1800.83333333 746.5 1820.5 761.5 c 128
 1840.16666667 776.5 1859.66666667 791.666666667 1879 807 c 128
 1898.33333333 822.333333333 1916.66666667 837.666666667 1934 853 c 128
 1951.33333333 868.333333333 1966.66666667 883 1980 897 c 1
 2189 651 l 1
 2177 638.333333333 2163 624.666666667 2147 610 c 128
 2131 595.333333333 2113.83333333 580.333333333 2095.5 565 c 128
 2077.16666667 549.666666667 2058.16666667 534.166666667 2038.5 518.5 c 128
 2018.83333333 502.833333333 1999.66666667 488 1981 474 c 0
 1937 440.666666667 1891 407 1843 373 c 1
 2198 0 l 1
 1518 0 l 1
 1403 133 l 1
846 748 m 1
 832 744 814.666666667 738 794 730 c 128
 773.333333333 722 753.333333333 710.666666667 734 696 c 128
 714.666666667 681.333333333 698.166666667 662.833333333 684.5 640.5 c 128
 670.833333333 618.166666667 664 590.333333333 664 557 c 0
 664 513 673 475.5 691 444.5 c 128
 709 413.5 732.666666667 388.333333333 762 369 c 128
 791.333333333 349.666666667 824.5 335.5 861.5 326.5 c 128
 898.5 317.5 935.666666667 313 973 313 c 0
 998.333333333 313 1023.33333333 316 1048 322 c 128
 1072.66666667 328 1094.66666667 334.666666667 1114 342 c 0
 1136.66666667 350 1158.66666667 359.666666667 1180 371 c 1
 846 748 l 1
1116 1219 m 0
 1116 1208.33333333 1120.66666667 1194.5 1130 1177.5 c 128
 1139.33333333 1160.5 1149.66666667 1143.66666667 1161 1127 c 0
 1173.66666667 1107.66666667 1188.66666667 1087 1206 1065 c 1
 1244 1075.66666667 1278.33333333 1088.66666667 1309 1104 c 0
 1321.66666667 1110 1334.33333333 1117 1347 1125 c 128
 1359.66666667 1133 1370.83333333 1141.66666667 1380.5 1151 c 128
 1390.16666667 1160.33333333 1398 1170.16666667 1404 1180.5 c 128
 1410 1190.83333333 1413 1202 1413 1214 c 0
 1413 1233.33333333 1408.5 1250.5 1399.5 1265.5 c 128
 1390.5 1280.5 1378.83333333 1293.16666667 1364.5 1303.5 c 128
 1350.16666667 1313.83333333 1333.83333333 1321.66666667 1315.5 1327 c 128
 1297.16666667 1332.33333333 1278.66666667 1335 1260 1335 c 256
 1241.33333333 1335 1223.33333333 1332.5 1206 1327.5 c 128
 1188.66666667 1322.5 1173.33333333 1315.16666667 1160 1305.5 c 128
 1146.66666667 1295.83333333 1136 1283.83333333 1128 1269.5 c 128
 1120 1255.16666667 1116 1238.33333333 1116 1219 c 0
EndSplineSet
EndChar

StartChar: a
Encoding: 97 97 35
Width: 2044
Flags: HW
LayerCount: 2
Fore
SplineSet
696 -41 m 0
 651.333333333 -41 604.833333333 -38.5 556.5 -33.5 c 128
 508.166666667 -28.5 460.833333333 -19.6666666667 414.5 -7 c 128
 368.166666667 5.66666666667 324.333333333 22.5 283 43.5 c 128
 241.666666667 64.5 205.333333333 91 174 123 c 128
 142.666666667 155 117.833333333 193 99.5 237 c 128
 81.1666666667 281 72 332.333333333 72 391 c 0
 72 451.666666667 87.3333333333 503.5 118 546.5 c 128
 148.666666667 589.5 189.5 625.666666667 240.5 655 c 128
 291.5 684.333333333 349.666666667 707.5 415 724.5 c 128
 480.333333333 741.5 547.833333333 754.333333333 617.5 763 c 128
 687.166666667 771.666666667 756 777.333333333 824 780 c 128
 892 782.666666667 954 784 1010 784 c 0
 1048 784 1084.16666667 783.166666667 1118.5 781.5 c 128
 1152.83333333 779.833333333 1183 778.333333333 1209 777 c 1
 1239.66666667 774.333333333 1268 772 1294 770 c 1
 1295.33333333 808 1292.33333333 839.166666667 1285 863.5 c 128
 1277.66666667 887.833333333 1263.33333333 907 1242 921 c 128
 1220.66666667 935 1191.16666667 944.666666667 1153.5 950 c 128
 1115.83333333 955.333333333 1067.33333333 958 1008 958 c 0
 960 958 909.5 955.833333333 856.5 951.5 c 128
 803.5 947.166666667 751.166666667 941 699.5 933 c 128
 647.833333333 925 598.5 915.5 551.5 904.5 c 128
 504.5 893.5 462.666666667 881.333333333 426 868 c 1
 426 868 426 868 418.5 881 c 128
 413.5 889.666666667 406.666666667 900.833333333 398 914.5 c 128
 389.333333333 928.166666667 379.666666667 943.833333333 369 961.5 c 128
 358.333333333 979.166666667 347.666666667 997.333333333 337 1016 c 1
 310.333333333 1058.66666667 280.666666667 1107.66666667 248 1163 c 1
 277.333333333 1176.33333333 311.666666667 1188.33333333 351 1199 c 128
 390.333333333 1209.66666667 432.5 1219.33333333 477.5 1228 c 128
 522.5 1236.66666667 569.333333333 1244.16666667 618 1250.5 c 128
 666.666666667 1256.83333333 714.833333333 1262.33333333 762.5 1267 c 128
 810.166666667 1271.66666667 856.333333333 1275 901 1277 c 128
 945.666666667 1279 986.666666667 1280 1024 1280 c 0
 1068 1280 1119.66666667 1279.66666667 1179 1279 c 128
 1238.33333333 1278.33333333 1299.66666667 1274 1363 1266 c 128
 1426.33333333 1258 1488.66666667 1245 1550 1227 c 128
 1611.33333333 1209 1666.33333333 1182.66666667 1715 1148 c 128
 1763.66666667 1113.33333333 1803 1068.66666667 1833 1014 c 128
 1863 959.333333333 1878 891.666666667 1878 811 c 2
 1878 399 l 2
 1878 379 1879.83333333 362.666666667 1883.5 350 c 128
 1887.16666667 337.333333333 1892.66666667 327.5 1900 320.5 c 128
 1907.33333333 313.5 1916.5 308.833333333 1927.5 306.5 c 128
 1938.5 304.166666667 1951.33333333 303 1966 303 c 1
 1966 0 l 1
 1753 0 l 2
 1721 0 1689 -0.166666666667 1657 -0.5 c 128
 1625 -0.833333333333 1594 0.5 1564 3.5 c 128
 1534 6.5 1505.5 12 1478.5 20 c 128
 1451.5 28 1427 40 1405 56 c 128
 1383 72 1363.83333333 92.8333333333 1347.5 118.5 c 128
 1331.16666667 144.166666667 1319 176.333333333 1311 215 c 1
 1286.33333333 176.333333333 1257.66666667 141.333333333 1225 110 c 128
 1192.33333333 78.6666666667 1152 51.8333333333 1104 29.5 c 128
 1056 7.16666666667 999 -10.1666666667 933 -22.5 c 128
 867 -34.8333333333 788 -41 696 -41 c 0
696 389 m 0
 696 360.333333333 703.5 337.333333333 718.5 320 c 128
 733.5 302.666666667 752.5 289.166666667 775.5 279.5 c 128
 798.5 269.833333333 823.666666667 263.5 851 260.5 c 128
 878.333333333 257.5 904 256 928 256 c 0
 956.666666667 256 985.833333333 257.833333333 1015.5 261.5 c 128
 1045.16666667 265.166666667 1074 271.333333333 1102 280 c 128
 1130 288.666666667 1156.33333333 300.166666667 1181 314.5 c 128
 1205.66666667 328.833333333 1227.16666667 346.666666667 1245.5 368 c 128
 1263.83333333 389.333333333 1278.33333333 414.5 1289 443.5 c 128
 1299.66666667 472.5 1305 506.333333333 1305 545 c 1
 1286.33333333 546.333333333 1266 548 1244 550 c 0
 1225.33333333 551.333333333 1203.66666667 552.5 1179 553.5 c 128
 1154.33333333 554.5 1128 555 1100 555 c 0
 1056 555 1010.16666667 553.166666667 962.5 549.5 c 128
 914.833333333 545.833333333 871.333333333 538.166666667 832 526.5 c 128
 792.666666667 514.833333333 760.166666667 498.166666667 734.5 476.5 c 128
 708.833333333 454.833333333 696 425.666666667 696 389 c 0
EndSplineSet
EndChar

StartChar: b
Encoding: 98 98 36
Width: 1954
Flags: HW
LayerCount: 2
Fore
SplineSet
68 1645 m 1
 643 1645 l 1
 643 1130 l 1
 674.333333333 1156.66666667 711.333333333 1179.5 754 1198.5 c 128
 796.666666667 1217.5 841.5 1233 888.5 1245 c 128
 935.5 1257 982.666666667 1265.83333333 1030 1271.5 c 128
 1077.33333333 1277.16666667 1121.66666667 1280 1163 1280 c 0
 1229.66666667 1280 1294 1273.33333333 1356 1260 c 128
 1418 1246.66666667 1475.83333333 1227.33333333 1529.5 1202 c 128
 1583.16666667 1176.66666667 1632 1145.33333333 1676 1108 c 128
 1720 1070.66666667 1757.66666667 1028 1789 980 c 128
 1820.33333333 932 1844.66666667 878.833333333 1862 820.5 c 128
 1879.33333333 762.166666667 1888 699 1888 631 c 0
 1888 522.333333333 1869.83333333 426.333333333 1833.5 343 c 128
 1797.16666667 259.666666667 1746.16666667 189.666666667 1680.5 133 c 128
 1614.83333333 76.3333333333 1535.83333333 33.5 1443.5 4.5 c 128
 1351.16666667 -24.5 1249 -39 1137 -39 c 0
 1099.66666667 -39 1057.16666667 -34.6666666667 1009.5 -26 c 128
 961.833333333 -17.3333333333 914.5 -3.66666666667 867.5 15 c 128
 820.5 33.6666666667 776.333333333 57.5 735 86.5 c 128
 693.666666667 115.5 660.333333333 150 635 190 c 1
 635 0 l 1
 68 0 l 1
 68 1645 l 1
629 612 m 0
 629 568 638.5 529.333333333 657.5 496 c 128
 676.5 462.666666667 701.333333333 435 732 413 c 128
 762.666666667 391 797.666666667 374.333333333 837 363 c 128
 876.333333333 351.666666667 916 346 956 346 c 256
 996 346 1035.5 351.833333333 1074.5 363.5 c 128
 1113.5 375.166666667 1148.33333333 392.166666667 1179 414.5 c 128
 1209.66666667 436.833333333 1234.5 464.5 1253.5 497.5 c 128
 1272.5 530.5 1282 568.666666667 1282 612 c 0
 1282 708 1253.33333333 779.5 1196 826.5 c 128
 1138.66666667 873.5 1056 897 948 897 c 0
 902 897 859.5 890.666666667 820.5 878 c 128
 781.5 865.333333333 747.833333333 846.833333333 719.5 822.5 c 128
 691.166666667 798.166666667 669 768.333333333 653 733 c 128
 637 697.666666667 629 657.333333333 629 612 c 0
EndSplineSet
EndChar

StartChar: c
Encoding: 99 99 37
Width: 2003
Flags: HW
LayerCount: 2
Fore
SplineSet
1303 721 m 1
 1292.33333333 757 1277.16666667 788.166666667 1257.5 814.5 c 128
 1237.83333333 840.833333333 1214.83333333 862.5 1188.5 879.5 c 128
 1162.16666667 896.5 1133 909.166666667 1101 917.5 c 128
 1069 925.833333333 1035 930 999 930 c 0
 957.666666667 930 918.166666667 923.666666667 880.5 911 c 128
 842.833333333 898.333333333 809.666666667 879.166666667 781 853.5 c 128
 752.333333333 827.833333333 729.5 795.5 712.5 756.5 c 128
 695.5 717.5 687.333333333 671.333333333 688 618 c 0
 689.333333333 520.666666667 716.666666667 446.166666667 770 394.5 c 128
 823.333333333 342.833333333 906 317 1018 317 c 0
 1098.66666667 317 1162.5 333.333333333 1209.5 366 c 128
 1256.5 398.666666667 1290.33333333 450 1311 520 c 1
 1929 481 l 1
 1922.33333333 407.666666667 1904 343.833333333 1874 289.5 c 128
 1844 235.166666667 1805.33333333 188.666666667 1758 150 c 128
 1710.66666667 111.333333333 1656.66666667 79.6666666667 1596 55 c 128
 1535.33333333 30.3333333333 1470.66666667 10.8333333333 1402 -3.5 c 128
 1333.33333333 -17.8333333333 1262.5 -27.6666666667 1189.5 -33 c 128
 1116.5 -38.3333333333 1044.33333333 -41 973 -41 c 0
 897.666666667 -41 823 -36.3333333333 749 -27 c 128
 675 -17.6666666667 604.5 -2.5 537.5 18.5 c 128
 470.5 39.5 408.166666667 66.8333333333 350.5 100.5 c 128
 292.833333333 134.166666667 243 175.5 201 224.5 c 128
 159 273.5 126 330.5 102 395.5 c 128
 78 460.5 66 534.666666667 66 618 c 0
 66 707.333333333 79.1666666667 785.833333333 105.5 853.5 c 128
 131.833333333 921.166666667 168 979.5 214 1028.5 c 128
 260 1077.5 314 1118.16666667 376 1150.5 c 128
 438 1182.83333333 504.833333333 1208.66666667 576.5 1228 c 128
 648.166666667 1247.33333333 722.833333333 1260.83333333 800.5 1268.5 c 128
 878.166666667 1276.16666667 955.333333333 1280 1032 1280 c 0
 1137.33333333 1280 1230.83333333 1274 1312.5 1262 c 128
 1394.16666667 1250 1466 1232.83333333 1528 1210.5 c 128
 1590 1188.16666667 1643.33333333 1161.33333333 1688 1130 c 128
 1732.66666667 1098.66666667 1770.5 1063.5 1801.5 1024.5 c 128
 1832.5 985.5 1857.66666667 943.166666667 1877 897.5 c 128
 1896.33333333 851.833333333 1912.33333333 804 1925 754 c 1
 1813 750 1712 746 1622 742 c 0
 1584 740 1546.5 738.166666667 1509.5 736.5 c 128
 1472.5 734.833333333 1439.16666667 733 1409.5 731 c 128
 1379.83333333 729 1355.33333333 727.166666667 1336 725.5 c 128
 1316.66666667 723.833333333 1305.66666667 722.333333333 1303 721 c 1
EndSplineSet
EndChar

StartChar: d
Encoding: 100 100 38
Width: 1948
Flags: HW
LayerCount: 2
Fore
SplineSet
1888 0 m 1
 1321 0 l 1
 1321 190 l 1
 1295.66666667 150 1262.16666667 115.5 1220.5 86.5 c 128
 1178.83333333 57.5 1134.5 33.6666666667 1087.5 15 c 128
 1040.5 -3.66666666667 993.333333333 -17.3333333333 946 -26 c 128
 898.666666667 -34.6666666667 856.333333333 -39 819 -39 c 0
 707 -39 604.833333333 -24.5 512.5 4.5 c 128
 420.166666667 33.5 341.166666667 76.3333333333 275.5 133 c 128
 209.833333333 189.666666667 158.833333333 259.666666667 122.5 343 c 128
 86.1666666667 426.333333333 68 522.333333333 68 631 c 0
 68 733 86.8333333333 824.166666667 124.5 904.5 c 128
 162.166666667 984.833333333 213.833333333 1052.83333333 279.5 1108.5 c 128
 345.166666667 1164.16666667 422 1206.66666667 510 1236 c 128
 598 1265.33333333 692.333333333 1280 793 1280 c 0
 833.666666667 1280 877.833333333 1277.16666667 925.5 1271.5 c 128
 973.166666667 1265.83333333 1020.5 1257 1067.5 1245 c 128
 1114.5 1233 1159.33333333 1217.5 1202 1198.5 c 128
 1244.66666667 1179.5 1281.66666667 1156.66666667 1313 1130 c 1
 1313 1645 l 1
 1888 1645 l 1
 1888 0 l 1
1327 612 m 0
 1327 657.333333333 1319 697.666666667 1303 733 c 128
 1287 768.333333333 1264.83333333 798.166666667 1236.5 822.5 c 128
 1208.16666667 846.833333333 1174.5 865.333333333 1135.5 878 c 128
 1096.5 890.666666667 1054 897 1008 897 c 0
 900 897 817.333333333 873.5 760 826.5 c 128
 702.666666667 779.5 674 708 674 612 c 0
 674 568.666666667 683.5 530.5 702.5 497.5 c 128
 721.5 464.5 746.333333333 436.833333333 777 414.5 c 128
 807.666666667 392.166666667 842.333333333 375.166666667 881 363.5 c 128
 919.666666667 351.833333333 959 346 999 346 c 0
 1039.66666667 346 1079.5 351.666666667 1118.5 363 c 128
 1157.5 374.333333333 1192.5 391 1223.5 413 c 128
 1254.5 435 1279.5 462.666666667 1298.5 496 c 128
 1317.5 529.333333333 1327 568 1327 612 c 0
EndSplineSet
EndChar

StartChar: e
Encoding: 101 101 39
Width: 1954
Flags: HW
LayerCount: 2
Fore
SplineSet
684 512 m 1
 686.666666667 478 697 446.833333333 715 418.5 c 128
 733 390.166666667 757 365.666666667 787 345 c 128
 817 324.333333333 852.333333333 308.166666667 893 296.5 c 128
 933.666666667 284.833333333 978 279 1026 279 c 0
 1067.33333333 279 1108.66666667 284 1150 294 c 128
 1191.33333333 304 1227 323.333333333 1257 352 c 1
 1858 305 l 1
 1835.33333333 259.666666667 1806.83333333 219.5 1772.5 184.5 c 128
 1738.16666667 149.5 1699.5 119.333333333 1656.5 94 c 128
 1613.5 68.6666666667 1567.33333333 47.5 1518 30.5 c 128
 1468.66666667 13.5 1417.83333333 -0.166666666667 1365.5 -10.5 c 128
 1313.16666667 -20.8333333333 1260.5 -28.1666666667 1207.5 -32.5 c 128
 1154.5 -36.8333333333 1103 -39 1053 -39 c 0
 979 -39 903.166666667 -35.5 825.5 -28.5 c 128
 747.833333333 -21.5 672.5 -8.66666666667 599.5 10 c 128
 526.5 28.6666666667 457.666666667 54.1666666667 393 86.5 c 128
 328.333333333 118.833333333 271.666666667 160 223 210 c 128
 174.333333333 260 136 320 108 390 c 128
 80 460 66 542.333333333 66 637 c 0
 66 723.666666667 78 799.833333333 102 865.5 c 128
 126 931.166666667 159 987.833333333 201 1035.5 c 128
 243 1083.16666667 292.833333333 1122.66666667 350.5 1154 c 128
 408.166666667 1185.33333333 470.333333333 1210.33333333 537 1229 c 128
 603.666666667 1247.66666667 673.833333333 1260.83333333 747.5 1268.5 c 128
 821.166666667 1276.16666667 895 1280 969 1280 c 0
 1107 1280 1232.66666667 1266.33333333 1346 1239 c 128
 1459.33333333 1211.66666667 1556.5 1167.66666667 1637.5 1107 c 128
 1718.5 1046.33333333 1781.16666667 967.166666667 1825.5 869.5 c 128
 1869.83333333 771.833333333 1892 652.666666667 1892 512 c 1
 684 512 l 1
1268 743 m 1
 1265.33333333 761.666666667 1258.33333333 784.5 1247 811.5 c 128
 1235.66666667 838.5 1219 864.166666667 1197 888.5 c 128
 1175 912.833333333 1147 933.666666667 1113 951 c 128
 1079 968.333333333 1037.66666667 977 989 977 c 0
 956.333333333 977 923.5 973 890.5 965 c 128
 857.5 957 827.5 943.833333333 800.5 925.5 c 128
 773.5 907.166666667 750.833333333 883.166666667 732.5 853.5 c 128
 714.166666667 823.833333333 703.333333333 787 700 743 c 1
 1268 743 l 1
EndSplineSet
EndChar

StartChar: f
Encoding: 102 102 40
Width: 973
Flags: HW
LayerCount: 2
Fore
SplineSet
907 1362 m 1
 864 1362 l 2
 850 1362 836.666666667 1361.5 824 1360.5 c 128
 811.333333333 1359.5 800.166666667 1356.16666667 790.5 1350.5 c 128
 780.833333333 1344.83333333 773.333333333 1336 768 1324 c 128
 762.666666667 1312 760 1295.33333333 760 1274 c 2
 760 1229 l 1
 905 1229 l 1
 905 885 l 1
 760 885 l 1
 760 0 l 1
 188 0 l 1
 188 893 l 1
 57 893 l 1
 57 1229 l 1
 188 1229 l 1
 187.333333333 1278.33333333 188.333333333 1323.5 191 1364.5 c 128
 193.666666667 1405.5 199.5 1442.5 208.5 1475.5 c 128
 217.5 1508.5 230.666666667 1537.5 248 1562.5 c 128
 265.333333333 1587.5 288.333333333 1608.33333333 317 1625 c 128
 345.666666667 1641.66666667 381 1654.16666667 423 1662.5 c 128
 465 1670.83333333 515.666666667 1675 575 1675 c 0
 600.333333333 1675 627.166666667 1674.5 655.5 1673.5 c 128
 683.833333333 1672.5 712.5 1670.83333333 741.5 1668.5 c 128
 770.5 1666.16666667 799 1663 827 1659 c 128
 855 1655 881.666666667 1650.33333333 907 1645 c 1
 907 1362 l 1
EndSplineSet
EndChar

StartChar: g
Encoding: 103 103 41
Width: 1972
Flags: HW
LayerCount: 2
Fore
SplineSet
203 100 m 1
 240.333333333 78 284.166666667 58.1666666667 334.5 40.5 c 128
 384.833333333 22.8333333333 438.666666667 7.83333333333 496 -4.5 c 128
 553.333333333 -16.8333333333 612.833333333 -26.3333333333 674.5 -33 c 128
 736.166666667 -39.6666666667 796.666666667 -43 856 -43 c 0
 884 -43 914.833333333 -42.5 948.5 -41.5 c 128
 982.166666667 -40.5 1016 -37.8333333333 1050 -33.5 c 128
 1084 -29.1666666667 1116.83333333 -22.5 1148.5 -13.5 c 128
 1180.16666667 -4.5 1208.33333333 7.66666666667 1233 23 c 128
 1257.66666667 38.3333333333 1277.83333333 57.5 1293.5 80.5 c 128
 1309.16666667 103.5 1317.66666667 131.333333333 1319 164 c 1
 1281 142 1237.33333333 122.333333333 1188 105 c 0
 1145.33333333 90.3333333333 1094 77 1034 65 c 128
 974 53 905.666666667 47 829 47 c 0
 769.666666667 47 709.5 52 648.5 62 c 128
 587.5 72 528.666666667 87.5 472 108.5 c 128
 415.333333333 129.5 362.333333333 156.333333333 313 189 c 128
 263.666666667 221.666666667 220.666666667 260.666666667 184 306 c 128
 147.333333333 351.333333333 118.5 403.166666667 97.5 461.5 c 128
 76.5 519.833333333 66 585.666666667 66 659 c 0
 66 726.333333333 75.5 788.5 94.5 845.5 c 128
 113.5 902.5 139.833333333 954 173.5 1000 c 128
 207.166666667 1046 247.5 1086.5 294.5 1121.5 c 128
 341.5 1156.5 393.166666667 1185.66666667 449.5 1209 c 128
 505.833333333 1232.33333333 565.5 1250 628.5 1262 c 128
 691.5 1274 756.333333333 1280 823 1280 c 0
 900.333333333 1280 966.333333333 1274.66666667 1021 1264 c 128
 1075.66666667 1253.33333333 1122.33333333 1240.33333333 1161 1225 c 128
 1199.66666667 1209.66666667 1232 1193.16666667 1258 1175.5 c 128
 1284 1157.83333333 1307.66666667 1142 1329 1128 c 1
 1329 1229 l 1
 1896 1229 l 1
 1896 264 l 2
 1896 176 1887.16666667 99.5 1869.5 34.5 c 128
 1851.83333333 -30.5 1825.33333333 -85.8333333333 1790 -131.5 c 128
 1754.66666667 -177.166666667 1710.5 -214.5 1657.5 -243.5 c 128
 1604.5 -272.5 1542.66666667 -295.166666667 1472 -311.5 c 128
 1401.33333333 -327.833333333 1321.66666667 -339 1233 -345 c 128
 1144.33333333 -351 1046.66666667 -354 940 -354 c 0
 844 -354 755 -349.833333333 673 -341.5 c 128
 591 -333.166666667 515.166666667 -321.833333333 445.5 -307.5 c 128
 375.833333333 -293.166666667 311.666666667 -276.166666667 253 -256.5 c 128
 194.333333333 -236.833333333 140.666666667 -215.666666667 92 -193 c 1
 203 100 l 1
678 643 m 0
 678 615.666666667 683.166666667 591.166666667 693.5 569.5 c 128
 703.833333333 547.833333333 717.833333333 528.333333333 735.5 511 c 128
 753.166666667 493.666666667 773.5 478.833333333 796.5 466.5 c 128
 819.5 454.166666667 843.666666667 444 869 436 c 128
 894.333333333 428 920.166666667 422 946.5 418 c 128
 972.833333333 414 998 412 1022 412 c 0
 1058 412 1094 417 1130 427 c 128
 1166 437 1198.66666667 452 1228 472 c 128
 1257.33333333 492 1281.16666667 517.166666667 1299.5 547.5 c 128
 1317.83333333 577.833333333 1327 613 1327 653 c 0
 1327 698.333333333 1317.33333333 736.5 1298 767.5 c 128
 1278.66666667 798.5 1253.5 823.666666667 1222.5 843 c 128
 1191.5 862.333333333 1156.5 876.166666667 1117.5 884.5 c 128
 1078.5 892.833333333 1039.66666667 897 1001 897 c 0
 960.333333333 897 920.666666667 892.666666667 882 884 c 128
 843.333333333 875.333333333 808.833333333 861.166666667 778.5 841.5 c 128
 748.166666667 821.833333333 723.833333333 795.833333333 705.5 763.5 c 128
 687.166666667 731.166666667 678 691 678 643 c 0
EndSplineSet
EndChar

StartChar: h
Encoding: 104 104 42
Width: 1853
Flags: HW
LayerCount: 2
Fore
SplineSet
1786 0 m 1
 1210 0 l 1
 1212 471 l 2
 1212 501 1211.66666667 532.333333333 1211 565 c 128
 1210.33333333 597.666666667 1207.66666667 629.666666667 1203 661 c 128
 1198.33333333 692.333333333 1191 722 1181 750 c 128
 1171 778 1156.83333333 802.666666667 1138.5 824 c 128
 1120.16666667 845.333333333 1096.5 862.166666667 1067.5 874.5 c 128
 1038.5 886.833333333 1003 893 961 893 c 0
 910.333333333 893 864.666666667 886.833333333 824 874.5 c 128
 783.333333333 862.166666667 748.833333333 843.166666667 720.5 817.5 c 128
 692.166666667 791.833333333 670.5 759.333333333 655.5 720 c 128
 640.5 680.666666667 633 634 633 580 c 2
 633 0 l 1
 78 0 l 1
 78 822 l 2
 78 925 78 925 78 1026 c 128
 78 1127 78 1127 78 1218 c 128
 78 1278.66666667 78.1666666667 1335.16666667 78.5 1387.5 c 128
 78.8333333333 1439.83333333 79 1485 79 1523 c 128
 79 1561 79.1666666667 1590.83333333 79.5 1612.5 c 128
 80 1645 l 1
 643 1645 l 1
 643 1114 l 1
 705.666666667 1163.33333333 780.166666667 1203.33333333 866.5 1234 c 128
 952.833333333 1264.66666667 1049.66666667 1280 1157 1280 c 0
 1253 1280 1339.83333333 1270.16666667 1417.5 1250.5 c 128
 1495.16666667 1230.83333333 1561.33333333 1199.66666667 1616 1157 c 128
 1670.66666667 1114.33333333 1712.66666667 1059.66666667 1742 993 c 128
 1771.33333333 926.333333333 1786 846 1786 752 c 2
 1786 0 l 1
EndSplineSet
EndChar

StartChar: i
Encoding: 105 105 43
Width: 729
Flags: HW
LayerCount: 2
Fore
SplineSet
88 1229 m 1
 647 1229 l 1
 647 0 l 1
 88 0 l 1
 88 1229 l 1
88 1649 m 1
 647 1649 l 1
 647 1329 l 1
 88 1329 l 1
 88 1649 l 1
EndSplineSet
EndChar

StartChar: j
Encoding: 106 106 44
Width: 819
Flags: HW
LayerCount: 2
Fore
SplineSet
88 1229 m 1
 647 1229 l 1
 647 0 l 2
 647 -30 646.333333333 -60 645 -90 c 128
 643.666666667 -120 639.166666667 -148.5 631.5 -175.5 c 128
 623.833333333 -202.5 612 -227.5 596 -250.5 c 128
 580 -273.5 557.5 -293.5 528.5 -310.5 c 128
 499.5 -327.5 462.833333333 -340.833333333 418.5 -350.5 c 128
 374.166666667 -360.166666667 320 -365 256 -365 c 0
 234.666666667 -365 208.333333333 -364.5 177 -363.5 c 128
 145.666666667 -362.5 115.333333333 -361.333333333 86 -360 c 0
 51.3333333333 -358 16 -356 -20 -354 c 1
 -20 -47 l 1
 1.33333333333 -47 19 -46.5 33 -45.5 c 128
 47 -44.5 58 -42.3333333333 66 -39 c 128
 74 -35.6666666667 79.6666666667 -30.8333333333 83 -24.5 c 128
 86.3333333333 -18.1666666667 88 -10 88 0 c 2
 88 1229 l 1
88 1649 m 1
 647 1649 l 1
 647 1329 l 1
 88 1329 l 1
 88 1649 l 1
EndSplineSet
EndChar

StartChar: k
Encoding: 107 107 45
Width: 1911
Flags: HW
LayerCount: 2
Fore
SplineSet
86 1645 m 1
 649 1645 l 1
 649 852 l 1
 1075 1229 l 1
 1806 1229 l 1
 1806 1208 l 1
 1327 801 l 1
 1841 0 l 1
 1149 0 l 1
 856 465 l 1
 649 293 l 1
 649 0 l 1
 86 0 l 1
 86 1645 l 1
EndSplineSet
EndChar

StartChar: l
Encoding: 108 108 46
Width: 731
Flags: HW
LayerCount: 2
Fore
SplineSet
88 1645 m 1
 647 1645 l 1
 647 0 l 1
 88 0 l 1
 88 1645 l 1
EndSplineSet
EndChar

StartChar: m
Encoding: 109 109 47
Width: 3009
Flags: HW
LayerCount: 2
Fore
SplineSet
84 0 m 1
 84 1229 l 1
 666 1229 l 1
 666 1071 l 1
 716.666666667 1112.33333333 765.666666667 1146.5 813 1173.5 c 128
 860.333333333 1200.5 907.333333333 1221.83333333 954 1237.5 c 128
 1000.66666667 1253.16666667 1047.83333333 1264.16666667 1095.5 1270.5 c 128
 1143.16666667 1276.83333333 1193 1280 1245 1280 c 0
 1287.66666667 1280 1330.83333333 1275.83333333 1374.5 1267.5 c 128
 1418.16666667 1259.16666667 1460.5 1245.5 1501.5 1226.5 c 128
 1542.5 1207.5 1581.66666667 1182.66666667 1619 1152 c 128
 1656.33333333 1121.33333333 1690.66666667 1084 1722 1040 c 1
 1754.66666667 1070.66666667 1792.16666667 1100.5 1834.5 1129.5 c 128
 1876.83333333 1158.5 1924.5 1184.16666667 1977.5 1206.5 c 128
 2030.5 1228.83333333 2088.66666667 1246.66666667 2152 1260 c 128
 2215.33333333 1273.33333333 2284.33333333 1280 2359 1280 c 0
 2443.66666667 1280 2521.16666667 1270 2591.5 1250 c 128
 2661.83333333 1230 2722.33333333 1198 2773 1154 c 128
 2823.66666667 1110 2863 1052.83333333 2891 982.5 c 128
 2919 912.166666667 2933 827 2933 727 c 2
 2933 0 l 1
 2359 0 l 1
 2359 571 l 2
 2359 613.666666667 2355.33333333 654.5 2348 693.5 c 128
 2340.66666667 732.5 2327.66666667 766.833333333 2309 796.5 c 128
 2290.33333333 826.166666667 2264.83333333 849.666666667 2232.5 867 c 128
 2200.16666667 884.333333333 2159 893 2109 893 c 0
 2090.33333333 893 2070 892.166666667 2048 890.5 c 128
 2026 888.833333333 2003.5 884.833333333 1980.5 878.5 c 128
 1957.5 872.166666667 1935.33333333 862.5 1914 849.5 c 128
 1892.66666667 836.5 1873.66666667 818.5 1857 795.5 c 128
 1840.33333333 772.5 1827 743.833333333 1817 709.5 c 128
 1807 675.166666667 1802 633.333333333 1802 584 c 2
 1802 0 l 1
 1227 0 l 1
 1225 639 l 1
 1223.66666667 671.666666667 1218.16666667 703.166666667 1208.5 733.5 c 128
 1198.83333333 763.833333333 1184 790.666666667 1164 814 c 128
 1144 837.333333333 1118.33333333 856 1087 870 c 128
 1055.66666667 884 1018.33333333 891 975 891 c 0
 936.333333333 891 898.333333333 885.833333333 861 875.5 c 128
 823.666666667 865.166666667 790.166666667 849.833333333 760.5 829.5 c 128
 730.833333333 809.166666667 707 783.833333333 689 753.5 c 128
 671 723.166666667 662 688.333333333 662 649 c 2
 657 2 l 1
 84 0 l 1
EndSplineSet
EndChar

StartChar: n
Encoding: 110 110 48
Width: 1864
Flags: HW
LayerCount: 2
Fore
SplineSet
1214 0 m 1
 1214 522 l 2
 1214 569.333333333 1211.83333333 614.333333333 1207.5 657 c 128
 1203.16666667 699.666666667 1193 737 1177 769 c 128
 1161 801 1137 826.5 1105 845.5 c 128
 1073 864.5 1029 874 973 874 c 0
 906.333333333 874 851.833333333 866.333333333 809.5 851 c 128
 767.166666667 835.666666667 734 812.833333333 710 782.5 c 128
 686 752.166666667 669.5 714 660.5 668 c 128
 651.5 622 647 568.666666667 647 508 c 2
 647 0 l 1
 76 0 l 1
 76 1229 l 1
 653 1229 l 1
 653 1067 l 1
 801.666666667 1209 991.666666667 1280 1223 1280 c 0
 1297 1280 1368.16666667 1271.16666667 1436.5 1253.5 c 128
 1504.83333333 1235.83333333 1565 1206.66666667 1617 1166 c 128
 1669 1125.33333333 1710.5 1072 1741.5 1006 c 128
 1772.5 940 1788 858.666666667 1788 762 c 2
 1788 0 l 1
 1214 0 l 1
EndSplineSet
EndChar

StartChar: o
Encoding: 111 111 49
Width: 2025
Flags: HW
LayerCount: 2
Fore
SplineSet
1014 1280 m 256
 1094.66666667 1280 1173.16666667 1276.33333333 1249.5 1269 c 128
 1325.83333333 1261.66666667 1398 1248.66666667 1466 1230 c 128
 1534 1211.33333333 1596.83333333 1186 1654.5 1154 c 128
 1712.16666667 1122 1762.5 1081.66666667 1805.5 1033 c 128
 1848.5 984.333333333 1883 926 1909 858 c 128
 1935 790 1950.66666667 711 1956 621 c 1
 1956 531 1944 452.166666667 1920 384.5 c 128
 1896 316.833333333 1862.5 258.5 1819.5 209.5 c 128
 1776.5 160.5 1725.5 120 1666.5 88 c 128
 1607.5 56 1543.16666667 30.6666666667 1473.5 12 c 128
 1403.83333333 -6.66666666667 1330 -19.8333333333 1252 -27.5 c 128
 1174 -35.1666666667 1094.66666667 -39 1014 -39 c 0
 932.666666667 -39 853 -35.1666666667 775 -27.5 c 128
 697 -19.8333333333 623.166666667 -6.66666666667 553.5 12 c 128
 483.833333333 30.6666666667 419.5 56 360.5 88 c 128
 301.5 120 250.666666667 160.5 208 209.5 c 128
 165.333333333 258.5 132 316.833333333 108 384.5 c 128
 84 452.166666667 72 531 72 621 c 256
 72 711 84 790 108 858 c 128
 132 926 165.5 984.333333333 208.5 1033 c 128
 251.5 1081.66666667 302.5 1122 361.5 1154 c 128
 420.5 1186 484.833333333 1211.33333333 554.5 1230 c 128
 624.166666667 1248.66666667 698 1261.66666667 776 1269 c 128
 854 1276.33333333 933.333333333 1280 1014 1280 c 256
1014 293 m 256
 1122 293 1204.66666667 321 1262 377 c 128
 1319.33333333 433 1348 513.333333333 1348 618 c 0
 1348 670 1339.83333333 716.166666667 1323.5 756.5 c 128
 1307.16666667 796.833333333 1284.33333333 830.833333333 1255 858.5 c 128
 1225.66666667 886.166666667 1190.5 907 1149.5 921 c 128
 1108.5 935 1063.33333333 942 1014 942 c 0
 964 942 918.5 935 877.5 921 c 128
 836.5 907 801.333333333 886.166666667 772 858.5 c 128
 742.666666667 830.833333333 720 796.833333333 704 756.5 c 128
 688 716.166666667 680 670 680 618 c 0
 680 513.333333333 708.666666667 433 766 377 c 128
 823.333333333 321 906 293 1014 293 c 256
EndSplineSet
EndChar

StartChar: p
Encoding: 112 112 50
Width: 1976
Flags: HW
LayerCount: 2
Fore
SplineSet
68 1229 m 1
 635 1229 l 1
 635 1038 l 1
 660.333333333 1082 693.666666667 1119.33333333 735 1150 c 128
 776.333333333 1180.66666667 820.5 1205.66666667 867.5 1225 c 128
 914.5 1244.33333333 961.833333333 1258.33333333 1009.5 1267 c 128
 1057.16666667 1275.66666667 1099.66666667 1280 1137 1280 c 0
 1249 1280 1351.16666667 1265.33333333 1443.5 1236 c 128
 1535.83333333 1206.66666667 1614.83333333 1163.33333333 1680.5 1106 c 128
 1746.16666667 1048.66666667 1797.16666667 977.5 1833.5 892.5 c 128
 1869.83333333 807.5 1888 709.333333333 1888 598 c 0
 1888 496 1869 405.5 1831 326.5 c 128
 1793 247.5 1741.33333333 180.833333333 1676 126.5 c 128
 1610.66666667 72.1666666667 1534 31 1446 3 c 128
 1358 -25 1263.66666667 -39 1163 -39 c 0
 1121.66666667 -39 1077.33333333 -36.8333333333 1030 -32.5 c 128
 982.666666667 -28.1666666667 935.5 -20.8333333333 888.5 -10.5 c 128
 841.5 -0.166666666667 796.666666667 13.8333333333 754 31.5 c 128
 711.333333333 49.1666666667 674.333333333 71.3333333333 643 98 c 1
 643 -356 l 1
 68 -356 l 1
 68 1229 l 1
629 616 m 0
 629 570.666666667 637 530.5 653 495.5 c 128
 669 460.5 691.166666667 430.833333333 719.5 406.5 c 128
 747.833333333 382.166666667 781.5 363.666666667 820.5 351 c 128
 859.5 338.333333333 902 332 948 332 c 0
 1056 332 1138.66666667 355.5 1196 402.5 c 128
 1253.33333333 449.5 1282 520.666666667 1282 616 c 0
 1282 658.666666667 1272.5 696.666666667 1253.5 730 c 128
 1234.5 763.333333333 1209.66666667 791.333333333 1179 814 c 128
 1148.33333333 836.666666667 1113.5 853.833333333 1074.5 865.5 c 128
 1035.5 877.166666667 996 883 956 883 c 256
 916 883 876.333333333 877.333333333 837 866 c 128
 797.666666667 854.666666667 762.666666667 837.833333333 732 815.5 c 128
 701.333333333 793.166666667 676.5 765.333333333 657.5 732 c 128
 638.5 698.666666667 629 660 629 616 c 0
EndSplineSet
EndChar

StartChar: q
Encoding: 113 113 51
Width: 1974
Flags: HW
LayerCount: 2
Fore
SplineSet
1888 -356 m 1
 1313 -356 l 1
 1313 98 l 1
 1281.66666667 71.3333333333 1244.66666667 49.1666666667 1202 31.5 c 128
 1159.33333333 13.8333333333 1114.5 -0.166666666667 1067.5 -10.5 c 128
 1020.5 -20.8333333333 973.166666667 -28.1666666667 925.5 -32.5 c 128
 877.833333333 -36.8333333333 833.666666667 -39 793 -39 c 0
 692.333333333 -39 598 -25 510 3 c 128
 422 31 345.166666667 72.1666666667 279.5 126.5 c 128
 213.833333333 180.833333333 162.166666667 247.5 124.5 326.5 c 128
 86.8333333333 405.5 68 496 68 598 c 0
 68 706.666666667 86.1666666667 803.333333333 122.5 888 c 128
 158.833333333 972.666666667 209.833333333 1044 275.5 1102 c 128
 341.166666667 1160 420.166666667 1204.16666667 512.5 1234.5 c 128
 604.833333333 1264.83333333 707 1280 819 1280 c 0
 856.333333333 1280 898.666666667 1275 946 1265 c 128
 993.333333333 1255 1040.5 1240 1087.5 1220 c 128
 1134.5 1200 1178.83333333 1174.83333333 1220.5 1144.5 c 128
 1262.16666667 1114.16666667 1295.66666667 1078.66666667 1321 1038 c 1
 1321 1229 l 1
 1888 1229 l 1
 1888 -356 l 1
1327 616 m 0
 1327 660 1317.5 698.666666667 1298.5 732 c 128
 1279.5 765.333333333 1254.5 793.166666667 1223.5 815.5 c 128
 1192.5 837.833333333 1157.5 854.666666667 1118.5 866 c 128
 1079.5 877.333333333 1039.66666667 883 999 883 c 0
 959 883 919.666666667 877.166666667 881 865.5 c 128
 842.333333333 853.833333333 807.666666667 836.666666667 777 814 c 128
 746.333333333 791.333333333 721.5 763.333333333 702.5 730 c 128
 683.5 696.666666667 674 658.666666667 674 616 c 0
 674 520.666666667 702.666666667 449.5 760 402.5 c 128
 817.333333333 355.5 900 332 1008 332 c 0
 1054 332 1096.5 338.333333333 1135.5 351 c 128
 1174.5 363.666666667 1208.16666667 382.166666667 1236.5 406.5 c 128
 1264.83333333 430.833333333 1287 460.5 1303 495.5 c 128
 1319 530.5 1327 570.666666667 1327 616 c 0
EndSplineSet
EndChar

StartChar: r
Encoding: 114 114 52
Width: 1227
Flags: HW
LayerCount: 2
Fore
SplineSet
1178 686 m 1
 1172 688.666666667 1162.33333333 691.833333333 1149 695.5 c 128
 1135.66666667 699.166666667 1119.83333333 702.333333333 1101.5 705 c 128
 1083.16666667 707.666666667 1062.83333333 710 1040.5 712 c 128
 1018.16666667 714 995 715 971 715 c 0
 939 715 906.166666667 712.833333333 872.5 708.5 c 128
 838.833333333 704.166666667 807.333333333 696.5 778 685.5 c 128
 748.666666667 674.5 723 659.666666667 701 641 c 128
 679 622.333333333 663 599 653 571 c 1
 653 0 l 1
 74 0 l 1
 74 1229 l 1
 647 1229 l 1
 647 1059 l 1
 653 1053 l 1
 679 1084.33333333 708 1111.83333333 740 1135.5 c 128
 772 1159.16666667 805.666666667 1179 841 1195 c 128
 876.333333333 1211 912.833333333 1223 950.5 1231 c 128
 988.166666667 1239 1025.66666667 1243 1063 1243 c 0
 1082.33333333 1243 1101.66666667 1242 1121 1240 c 128
 1140.33333333 1238 1159.33333333 1234.33333333 1178 1229 c 1
 1178 686 l 1
EndSplineSet
EndChar

StartChar: s
Encoding: 115 115 53
Width: 1890
Flags: HW
LayerCount: 2
Fore
SplineSet
737 412 m 1
 743.666666667 386.666666667 758.5 366.833333333 781.5 352.5 c 128
 804.5 338.166666667 830 327.333333333 858 320 c 128
 886 312.666666667 913.833333333 308 941.5 306 c 128
 969.166666667 304 990.666666667 303 1006 303 c 0
 1017.33333333 303 1032 303.833333333 1050 305.5 c 128
 1068 307.166666667 1085.5 310.666666667 1102.5 316 c 128
 1119.5 321.333333333 1134.16666667 329.166666667 1146.5 339.5 c 128
 1158.83333333 349.833333333 1165 363.666666667 1165 381 c 0
 1165 393.666666667 1157.16666667 405 1141.5 415 c 128
 1125.83333333 425 1105.33333333 433.5 1080 440.5 c 128
 1054.66666667 447.5 1026 453.5 994 458.5 c 128
 962 463.5 929.333333333 467.833333333 896 471.5 c 128
 862.666666667 475.166666667 830.333333333 478.166666667 799 480.5 c 128
 767.666666667 482.833333333 740.333333333 485 717 487 c 0
 674.333333333 491 629.333333333 496 582 502 c 128
 534.666666667 508 488.333333333 516.666666667 443 528 c 128
 397.666666667 539.333333333 354.333333333 554 313 572 c 128
 271.666666667 590 235.333333333 612.666666667 204 640 c 128
 172.666666667 667.333333333 147.833333333 700.166666667 129.5 738.5 c 128
 111.166666667 776.833333333 102 822 102 874 c 0
 102 938.666666667 114 993.666666667 138 1039 c 128
 162 1084.33333333 194.166666667 1122.16666667 234.5 1152.5 c 128
 274.833333333 1182.83333333 321.666666667 1206.5 375 1223.5 c 128
 428.333333333 1240.5 484.333333333 1253.16666667 543 1261.5 c 128
 601.666666667 1269.83333333 661.166666667 1275 721.5 1277 c 128
 781.833333333 1279 839.666666667 1280 895 1280 c 0
 959 1280 1022.66666667 1279.16666667 1086 1277.5 c 128
 1149.33333333 1275.83333333 1210.66666667 1271.5 1270 1264.5 c 128
 1329.33333333 1257.5 1385.5 1246.33333333 1438.5 1231 c 128
 1491.5 1215.66666667 1539.83333333 1194.33333333 1583.5 1167 c 128
 1627.16666667 1139.66666667 1665.16666667 1105.16666667 1697.5 1063.5 c 128
 1729.83333333 1021.83333333 1754.66666667 971 1772 911 c 1
 1112 885 l 1
 1100.66666667 904.333333333 1086.33333333 919.666666667 1069 931 c 128
 1051.66666667 942.333333333 1033.16666667 950.833333333 1013.5 956.5 c 128
 993.833333333 962.166666667 973.833333333 965.666666667 953.5 967 c 128
 933.166666667 968.333333333 914.333333333 969 897 969 c 0
 895 969 895 969 881.5 969 c 128
 872.5 969 861.666666667 968.5 849 967.5 c 128
 836.333333333 966.5 822.666666667 964.833333333 808 962.5 c 128
 793.333333333 960.166666667 779.833333333 956.833333333 767.5 952.5 c 128
 755.166666667 948.166666667 745 942.166666667 737 934.5 c 128
 729 926.833333333 725 917.666666667 725 907 c 0
 725 891.666666667 732.333333333 879.666666667 747 871 c 128
 761.666666667 862.333333333 778.833333333 855.666666667 798.5 851 c 128
 818.166666667 846.333333333 838.166666667 843.166666667 858.5 841.5 c 128
 878.833333333 839.833333333 895 838.666666667 907 838 c 0
 941.666666667 835.333333333 981.166666667 832.666666667 1025.5 830 c 128
 1069.83333333 827.333333333 1116.66666667 823.833333333 1166 819.5 c 128
 1215.33333333 815.166666667 1265.66666667 809 1317 801 c 128
 1368.33333333 793 1418.33333333 782.333333333 1467 769 c 128
 1515.66666667 755.666666667 1561.5 738.666666667 1604.5 718 c 128
 1647.5 697.333333333 1685 672 1717 642 c 128
 1749 612 1774.33333333 576.833333333 1793 536.5 c 128
 1811.66666667 496.166666667 1821 449 1821 395 c 0
 1821 336.333333333 1808.83333333 284.833333333 1784.5 240.5 c 128
 1760.16666667 196.166666667 1727.66666667 158 1687 126 c 128
 1646.33333333 94 1599.66666667 67.3333333333 1547 46 c 128
 1494.33333333 24.6666666667 1439.83333333 7.66666666667 1383.5 -5 c 128
 1327.16666667 -17.6666666667 1271 -26.5 1215 -31.5 c 128
 1159 -36.5 1107.66666667 -39 1061 -39 c 0
 989 -39 916.166666667 -37.8333333333 842.5 -35.5 c 128
 768.833333333 -33.1666666667 697.166666667 -27.3333333333 627.5 -18 c 128
 557.833333333 -8.66666666667 491.833333333 4.83333333333 429.5 22.5 c 128
 367.166666667 40.1666666667 311.333333333 64.5 262 95.5 c 128
 212.666666667 126.5 171.666666667 164.833333333 139 210.5 c 128
 106.333333333 256.166666667 84.6666666667 311.666666667 74 377 c 1
 737 412 l 1
EndSplineSet
EndChar

StartChar: t
Encoding: 116 116 54
Width: 969
Flags: HW
LayerCount: 2
Fore
SplineSet
760 1620 m 1
 760 1229 l 1
 905 1229 l 1
 905 885 l 1
 760 885 l 1
 760 362 l 2
 760 340.666666667 762.666666667 324 768 312 c 128
 773.333333333 300 780.833333333 291.166666667 790.5 285.5 c 128
 800.166666667 279.833333333 811.333333333 276.5 824 275.5 c 128
 836.666666667 274.5 850 274 864 274 c 2
 907 274 l 1
 907 -8 l 1
 881.666666667 -14 855 -18.8333333333 827 -22.5 c 128
 799 -26.1666666667 770.5 -29.3333333333 741.5 -32 c 128
 712.5 -34.6666666667 683.833333333 -36.5 655.5 -37.5 c 128
 627.166666667 -38.5 600.333333333 -39 575 -39 c 0
 489.666666667 -39 421.5 -30.3333333333 370.5 -13 c 128
 319.5 4.33333333333 280.5 30.3333333333 253.5 65 c 128
 226.5 99.6666666667 208.833333333 142.833333333 200.5 194.5 c 128
 192.166666667 246.166666667 188 306.333333333 188 375 c 2
 188 885 l 1
 57 885 l 1
 57 1229 l 1
 188 1229 l 1
 188 1473 l 1
 737 1620 l 1
 760 1620 l 1
EndSplineSet
EndChar

StartChar: u
Encoding: 117 117 55
Width: 1853
Flags: HW
LayerCount: 2
Fore
SplineSet
649 1229 m 1
 649 707 l 2
 649 659.666666667 651.166666667 614.666666667 655.5 572 c 128
 659.833333333 529.333333333 670.166666667 491.833333333 686.5 459.5 c 128
 702.833333333 427.166666667 727 401.5 759 382.5 c 128
 791 363.5 835 354 891 354 c 0
 957.666666667 354 1012.16666667 361.666666667 1054.5 377 c 128
 1096.83333333 392.333333333 1130 415.333333333 1154 446 c 128
 1178 476.666666667 1194.5 514.833333333 1203.5 560.5 c 128
 1212.5 606.166666667 1217 659.666666667 1217 721 c 2
 1217 1229 l 1
 1788 1229 l 1
 1788 0 l 1
 1210 0 l 1
 1210 162 l 1
 1135.33333333 97.3333333333 1053.16666667 47.6666666667 963.5 13 c 128
 873.833333333 -21.6666666667 771.666666667 -39 657 -39 c 0
 583 -39 511 -30 441 -12 c 128
 371 6 309 35 255 75 c 128
 201 115 157.666666667 167.166666667 125 231.5 c 128
 92.3333333333 295.833333333 76 374.333333333 76 467 c 2
 76 1229 l 1
 649 1229 l 1
EndSplineSet
EndChar

StartChar: v
Encoding: 118 118 56
Width: 1872
Flags: HW
LayerCount: 2
Fore
SplineSet
1249 0 m 1
 618 0 l 1
 70 1229 l 1
 662 1229 l 1
 967 520 l 1
 1227 1229 l 1
 1819 1229 l 1
 1249 0 l 1
EndSplineSet
EndChar

StartChar: w
Encoding: 119 119 57
Width: 2976
Flags: HW
LayerCount: 2
Fore
SplineSet
1778 1229 m 1
 1828 1110.33333333 1873 1003.66666667 1913 909 c 0
 1929.66666667 869 1946.33333333 829.5 1963 790.5 c 128
 1979.66666667 751.5 1994.5 716.666666667 2007.5 686 c 128
 2020.5 655.333333333 2031.16666667 630.166666667 2039.5 610.5 c 128
 2047.83333333 590.833333333 2052.66666667 580 2054 578 c 1
 2329 1229 l 1
 2933 1229 l 1
 2378 0 l 1
 1808 0 l 1
 1497 670 l 1
 1186 0 l 1
 616 0 l 1
 61 1229 l 1
 666 1229 l 1
 940 578 l 1
 940.666666667 580 945.333333333 590.833333333 954 610.5 c 128
 962.666666667 630.166666667 973.5 655.333333333 986.5 686 c 128
 999.5 716.666666667 1014.16666667 751.5 1030.5 790.5 c 128
 1046.83333333 829.5 1063.66666667 869 1081 909 c 0
 1121 1003.66666667 1166.33333333 1110.33333333 1217 1229 c 1
 1778 1229 l 1
EndSplineSet
EndChar

StartChar: x
Encoding: 120 120 58
Width: 2089
Flags: HW
LayerCount: 2
Fore
SplineSet
1038 307 m 1
 776 0 l 1
 57 0 l 1
 668 670 l 1
 143 1227 l 1
 815 1229 l 1
 1034 985 l 1
 1253 1229 l 1
 1925 1227 l 1
 1401 670 l 1
 2011 0 l 1
 1292 0 l 1
 1038 307 l 1
EndSplineSet
EndChar

StartChar: y
Encoding: 121 121 59
Width: 1864
Flags: HW
LayerCount: 2
Fore
SplineSet
1329 76 m 2
 1301.66666667 10.6666666667 1272.5 -45.1666666667 1241.5 -91.5 c 128
 1210.5 -137.833333333 1177.66666667 -176.833333333 1143 -208.5 c 128
 1108.33333333 -240.166666667 1071.33333333 -265.5 1032 -284.5 c 128
 992.666666667 -303.5 950.666666667 -318 906 -328 c 128
 861.333333333 -338 813.5 -344.5 762.5 -347.5 c 128
 711.5 -350.5 657.333333333 -352 600 -352 c 0
 525.333333333 -352 456.166666667 -347.166666667 392.5 -337.5 c 128
 328.833333333 -327.833333333 273.333333333 -317 226 -305 c 0
 170.666666667 -291.666666667 120 -276 74 -258 c 1
 76.6666666667 -252 82.3333333333 -236 91 -210 c 0
 98.3333333333 -188 109.5 -154.833333333 124.5 -110.5 c 128
 139.5 -66.1666666667 160 -4.66666666667 186 74 c 1
 232.666666667 57.3333333333 281.5 41.5 332.5 26.5 c 128
 383.5 11.5 435 4 487 4 c 0
 515 4 537 6.16666666667 553 10.5 c 128
 569 14.8333333333 580.666666667 19.6666666667 588 25 c 0
 596.666666667 31.6666666667 602 39 604 47 c 1
 555 158 l 1
 55 1229 l 1
 666 1229 l 1
 977 494 l 1
 1262 1229 l 1
 1817 1229 l 1
 1329 76 l 2
EndSplineSet
EndChar

StartChar: z
Encoding: 122 122 60
Width: 1802
Flags: HW
LayerCount: 2
Fore
SplineSet
1710 371 m 1
 1710 0 l 1
 72 0 l 1
 74 293 l 1
 821 858 l 1
 160 858 l 1
 160 1229 l 1
 1722 1229 l 1
 1722 940 l 1
 909 371 l 1
 1710 371 l 1
EndSplineSet
EndChar

StartChar: zero
Encoding: 48 48 61
Width: 2177
Flags: HW
LayerCount: 2
Fore
SplineSet
924 2 m 1
 918 2.66666666667 907.166666667 4.16666666667 891.5 6.5 c 128
 875.833333333 8.83333333333 859.5 11.3333333333 842.5 14 c 128
 825.5 16.6666666667 809.333333333 19.1666666667 794 21.5 c 128
 778.666666667 23.8333333333 768 25.6666666667 762 27 c 0
 760.666666667 27 757.166666667 27.6666666667 751.5 29 c 128
 745.833333333 30.3333333333 742.333333333 31 741 31 c 2
 737 31 l 1
 629 61 l 1
 625 61 l 2
 623 61 616.333333333 63 605 67 c 128
 593.666666667 71 580.833333333 75.8333333333 566.5 81.5 c 128
 552.166666667 87.1666666667 537.5 93.1666666667 522.5 99.5 c 128
 507.5 105.833333333 495.666666667 111 487 115 c 0
 483.666666667 116.333333333 478 119.166666667 470 123.5 c 128
 462 127.833333333 453.5 132.166666667 444.5 136.5 c 128
 435.5 140.833333333 427.166666667 145.166666667 419.5 149.5 c 128
 411.833333333 153.833333333 406.333333333 156.666666667 403 158 c 1
 401 161.333333333 395.833333333 165.833333333 387.5 171.5 c 128
 379.166666667 177.166666667 369.833333333 183.166666667 359.5 189.5 c 128
 349.166666667 195.833333333 339.166666667 202 329.5 208 c 128
 319.833333333 214 313 219 309 223 c 2
 266 266 l 2
 262.666666667 270 257 277.333333333 249 288 c 128
 237 304 237 304 223.5 322 c 128
 214.5 334 206.166666667 345.5 198.5 356.5 c 128
 190.833333333 367.5 185.333333333 375 182 379 c 2
 178 385 l 1
 176.666666667 385.666666667 173.666666667 390.833333333 169 400.5 c 128
 164.333333333 410.166666667 159.166666667 421.166666667 153.5 433.5 c 128
 147.833333333 445.833333333 142 458.333333333 136 471 c 128
 130 483.666666667 125.666666667 494 123 502 c 0
 122.333333333 504 120.833333333 509.166666667 118.5 517.5 c 128
 116.166666667 525.833333333 113.666666667 534.666666667 111 544 c 128
 108.333333333 553.333333333 105.666666667 562.166666667 103 570.5 c 128
 100.333333333 578.833333333 98.6666666667 584 98 586 c 0
 98 587.333333333 97.3333333333 589 96 591 c 128
 94.6666666667 593 94 594.666666667 94 596 c 0
 92.6666666667 602 90.8333333333 613 88.5 629 c 128
 86.1666666667 645 83.6666666667 661.666666667 81 679 c 128
 78.3333333333 696.333333333 76 713 74 729 c 128
 72 745 70.6666666667 756 70 762 c 1
 70 791 l 2
 70 801 70.1666666667 811.833333333 70.5 823.5 c 128
 70.8333333333 835.166666667 71.1666666667 847 71.5 859 c 128
 71.8333333333 871 72.1666666667 882.666666667 72.5 894 c 128
 72.8333333333 905.333333333 73.3333333333 915.333333333 74 924 c 256
 74.6666666667 932.666666667 76.1666666667 944.166666667 78.5 958.5 c 128
 80.8333333333 972.833333333 83 987 85 1001 c 128
 87 1015 88.8333333333 1027.5 90.5 1038.5 c 128
 92.1666666667 1049.5 93.3333333333 1055.66666667 94 1057 c 2
 164 1229 l 2
 164 1229.66666667 165.666666667 1232.66666667 169 1238 c 128
 172.333333333 1243.33333333 176.333333333 1249.5 181 1256.5 c 128
 185.666666667 1263.5 190.333333333 1270.66666667 195 1278 c 128
 199.666666667 1285.33333333 203.666666667 1291.33333333 207 1296 c 0
 234.333333333 1337.33333333 266.666666667 1374.33333333 304 1407 c 128
 341.333333333 1439.66666667 381.666666667 1468.5 425 1493.5 c 128
 468.333333333 1518.5 513.5 1539.83333333 560.5 1557.5 c 128
 607.5 1575.16666667 654.666666667 1590 702 1602 c 1
 708 1600 716 1599.66666667 726 1601 c 128
 736 1602.33333333 746.166666667 1604.33333333 756.5 1607 c 128
 766.833333333 1609.66666667 777 1612.16666667 787 1614.5 c 128
 797 1616.83333333 805 1618.66666667 811 1620 c 0
 839.666666667 1626 869.666666667 1629.5 901 1630.5 c 128
 932.333333333 1631.5 962.333333333 1632.66666667 991 1634 c 1
 1001 1634 l 1
 1002.33333333 1635.33333333 1004.16666667 1636.66666667 1006.5 1638 c 128
 1008.83333333 1639.33333333 1010.66666667 1640 1012 1640 c 256
 1013.33333333 1640 1015 1639.33333333 1017 1638 c 128
 1019 1636.66666667 1020.66666667 1635.33333333 1022 1634 c 1
 1188 1634 l 1
 1198 1640 l 1
 1198 1634 l 2
 1198 1633.33333333 1203.5 1632.33333333 1214.5 1631 c 128
 1225.5 1629.66666667 1238.16666667 1628.33333333 1252.5 1627 c 128
 1266.83333333 1625.66666667 1281 1624.33333333 1295 1623 c 128
 1309 1621.66666667 1319 1620.66666667 1325 1620 c 1
 1346 1620 l 1
 1581 1567 l 2
 1595 1563.66666667 1607.66666667 1559.83333333 1619 1555.5 c 128
 1630.33333333 1551.16666667 1641.33333333 1546.33333333 1652 1541 c 128
 1662.66666667 1535.66666667 1673.33333333 1530.16666667 1684 1524.5 c 128
 1694.66666667 1518.83333333 1706 1513 1718 1507 c 0
 1796.66666667 1471 1861.66666667 1426.16666667 1913 1372.5 c 128
 1964.33333333 1318.83333333 2004.66666667 1258.83333333 2034 1192.5 c 128
 2063.33333333 1126.16666667 2083.33333333 1054.83333333 2094 978.5 c 128
 2104.66666667 902.166666667 2108.33333333 823 2105 741 c 1
 2106.33333333 741 2107.33333333 740 2108 738 c 128
 2108.66666667 736 2109 734.333333333 2109 733 c 256
 2109 731.666666667 2108.66666667 729.666666667 2108 727 c 128
 2107.33333333 724.333333333 2106.33333333 723 2105 723 c 1
 2103 681 2097.83333333 640.833333333 2089.5 602.5 c 128
 2081.16666667 564.166666667 2070.16666667 527.166666667 2056.5 491.5 c 128
 2042.83333333 455.833333333 2026.5 421.166666667 2007.5 387.5 c 128
 1988.5 353.833333333 1967.33333333 320.333333333 1944 287 c 0
 1943.33333333 287 1940.66666667 284.666666667 1936 280 c 128
 1931.33333333 275.333333333 1925.33333333 269.166666667 1918 261.5 c 128
 1910.66666667 253.833333333 1902.66666667 245.666666667 1894 237 c 128
 1881 224 1881 224 1868.5 211.5 c 128
 1860.16666667 203.166666667 1852.66666667 196 1846 190 c 128
 1839.33333333 184 1834.33333333 180 1831 178 c 0
 1804.33333333 160.666666667 1778.66666667 144.833333333 1754 130.5 c 128
 1729.33333333 116.166666667 1702.33333333 102.666666667 1673 90 c 1
 1669 86 l 1
 1665 84 1658.16666667 81 1648.5 77 c 128
 1638.83333333 73 1628.5 68.8333333333 1617.5 64.5 c 128
 1606.5 60.1666666667 1596.16666667 56.1666666667 1586.5 52.5 c 128
 1576.83333333 48.8333333333 1570.33333333 46.3333333333 1567 45 c 0
 1565.66666667 45 1562.83333333 44.5 1558.5 43.5 c 128
 1554.16666667 42.5 1549.5 41.5 1544.5 40.5 c 128
 1539.5 39.5 1534.66666667 38.6666666667 1530 38 c 128
 1525.33333333 37.3333333333 1522.66666667 37 1522 37 c 0
 1520.66666667 35.6666666667 1518.83333333 34.6666666667 1516.5 34 c 128
 1514.16666667 33.3333333333 1512.33333333 32.3333333333 1511 31 c 1
 1350 2 l 1
 1332.66666667 3.33333333333 1314.5 2 1295.5 -2 c 128
 1276.5 -6 1258.33333333 -8 1241 -8 c 2
 1161 -8 l 2
 1129 -8 1097.33333333 -7.66666666667 1066 -7 c 128
 1034.66666667 -6.33333333333 1003.66666667 -5.33333333333 973 -4 c 0
 971.666666667 -3.33333333333 968.833333333 -2.66666666667 964.5 -2 c 128
 960.166666667 -1.33333333333 955.5 -0.666666666667 950.5 0 c 128
 945.5 0.666666666667 940.666666667 1.16666666667 936 1.5 c 128
 931.333333333 1.83333333333 928.666666667 2 928 2 c 2
 924 2 l 1
1567 57 m 0
 1565 57 1564 56.3333333333 1564 55 c 128
 1564 53.6666666667 1565 53 1567 53 c 0
 1568.33333333 53 1569 53.6666666667 1569 55 c 128
 1569 56.3333333333 1568.33333333 57 1567 57 c 0
854 463 m 1
 874.666666667 447.666666667 894.833333333 435.333333333 914.5 426 c 128
 934.166666667 416.666666667 954.166666667 409.166666667 974.5 403.5 c 128
 994.833333333 397.833333333 1015.83333333 394 1037.5 392 c 128
 1059.16666667 390 1082 389 1106 389 c 0
 1157.33333333 389 1203.83333333 398.5 1245.5 417.5 c 128
 1287.16666667 436.5 1323.16666667 462 1353.5 494 c 128
 1383.83333333 526 1408.16666667 563.333333333 1426.5 606 c 128
 1444.83333333 648.666666667 1456.66666667 693.666666667 1462 741 c 0
 1462 744.333333333 1462.16666667 749.833333333 1462.5 757.5 c 128
 1462.83333333 765.166666667 1463 773.166666667 1463 781.5 c 128
 1463 789.833333333 1463.16666667 797.666666667 1463.5 805 c 128
 1463.83333333 812.333333333 1464 817.666666667 1464 821 c 0
 1464 881.666666667 1456 938.166666667 1440 990.5 c 128
 1424 1042.83333333 1400 1088.5 1368 1127.5 c 128
 1336 1166.5 1296 1197.16666667 1248 1219.5 c 128
 1200 1241.83333333 1143.66666667 1253 1079 1253 c 0
 1055.66666667 1253 1030.33333333 1251.33333333 1003 1248 c 128
 975.666666667 1244.66666667 950.666666667 1238.33333333 928 1229 c 0
 914.666666667 1223 902.333333333 1215.33333333 891 1206 c 128
 879.666666667 1196.66666667 867.333333333 1189.33333333 854 1184 c 1
 826 1159.33333333 802.833333333 1132.83333333 784.5 1104.5 c 128
 766.166666667 1076.16666667 751.666666667 1046.33333333 741 1015 c 128
 730.333333333 983.666666667 723 950.833333333 719 916.5 c 128
 715 882.166666667 713 847 713 811 c 0
 713 792.333333333 713.666666667 774.833333333 715 758.5 c 128
 716.333333333 742.166666667 718.333333333 726 721 710 c 128
 723.666666667 694 727.333333333 677.833333333 732 661.5 c 128
 736.666666667 645.166666667 742 628 748 610 c 1
 756.666666667 595.333333333 764.5 581.833333333 771.5 569.5 c 128
 778.5 557.166666667 785.833333333 545.166666667 793.5 533.5 c 128
 801.166666667 521.833333333 809.666666667 510.333333333 819 499 c 128
 828.333333333 487.666666667 840 475.666666667 854 463 c 1
1663 436 m 0
 1661.66666667 436 1661 435 1661 433 c 128
 1661 431 1661.66666667 430 1663 430 c 0
 1665 430 1666 431 1666 433 c 128
 1666 435 1665 436 1663 436 c 0
649 483 m 1
 647 483 646 482 646 480 c 128
 646 478 647 477 649 477 c 0
 650.333333333 477 651 477.666666667 651 479 c 128
 651 480.333333333 650.333333333 481.666666667 649 483 c 1
614 504 m 256
 612.666666667 504 612 503.333333333 612 502 c 128
 612 500.666666667 612.666666667 500 614 500 c 256
 615.333333333 500 616 500.666666667 616 502 c 128
 616 503.333333333 615.333333333 504 614 504 c 256
471 711 m 0
 469.666666667 711 469 710.333333333 469 709 c 128
 469 707.666666667 469.666666667 707 471 707 c 0
 473 707 474 707.666666667 474 709 c 128
 474 710.333333333 473 711 471 711 c 0
457 713 m 1
 463 713 l 1
 457 717 l 1
 457 713 l 1
487 887 m 0
 485 887 484 886.333333333 484 885 c 128
 484 883.666666667 485 883 487 883 c 0
 488.333333333 883 489 883.666666667 489 885 c 128
 489 886.333333333 488.333333333 887 487 887 c 0
1649 999 m 256
 1647.66666667 999 1647 998.333333333 1647 997 c 128
 1647 995.666666667 1647.66666667 995 1649 995 c 256
 1650.33333333 995 1651 995.666666667 1651 997 c 128
 1651 998.333333333 1650.33333333 999 1649 999 c 256
1257 1241 m 0
 1255 1241 1254 1240 1254 1238 c 128
 1254 1236 1255 1235 1257 1235 c 0
 1258.33333333 1235 1259 1236 1259 1238 c 128
 1259 1240 1258.33333333 1241 1257 1241 c 0
819 1280 m 0
 817.666666667 1280 817 1279 817 1277 c 128
 817 1275 817.666666667 1274 819 1274 c 0
 821 1274 822 1275 822 1277 c 128
 822 1279 821 1280 819 1280 c 0
1438 1554 m 256
 1436.66666667 1554 1436 1553 1436 1551 c 128
 1436 1549 1436.66666667 1548 1438 1548 c 256
 1439.33333333 1548 1440 1549 1440 1551 c 128
 1440 1553 1439.33333333 1554 1438 1554 c 256
EndSplineSet
EndChar

StartChar: nine
Encoding: 57 57 62
Width: 2152
Flags: HW
LayerCount: 2
Fore
SplineSet
494 76 m 1
 468 84 442.5 93.8333333333 417.5 105.5 c 128
 392.5 117.166666667 368.666666667 129.666666667 346 143 c 1
 342 149 337.166666667 154 331.5 158 c 128
 325.833333333 162 319.666666667 165.5 313 168.5 c 128
 306.333333333 171.5 299.833333333 174.5 293.5 177.5 c 128
 287.166666667 180.5 281.333333333 184 276 188 c 0
 274 190 274 190 270 194 c 128
 266 198 266 198 261.5 202.5 c 128
 257 207 257 207 253 211 c 128
 250.333333333 213.666666667 248.666666667 215.666666667 248 217 c 0
 242.666666667 223 239 229.333333333 237 236 c 128
 235 242.666666667 230.333333333 248 223 252 c 1
 219 252 l 1
 192.333333333 287.333333333 169.666666667 324.833333333 151 364.5 c 128
 132.333333333 404.166666667 123 447.333333333 123 494 c 1
 768 494 l 2
 770 494 772.666666667 492 776 488 c 128
 779.333333333 484 783 479.333333333 787 474 c 128
 791 468.666666667 795.166666667 463.166666667 799.5 457.5 c 128
 803.833333333 451.833333333 807.666666667 447.333333333 811 444 c 0
 827 430.666666667 843.833333333 420.166666667 861.5 412.5 c 128
 879.166666667 404.833333333 897.5 399 916.5 395 c 128
 935.5 391 954.833333333 388.333333333 974.5 387 c 128
 994.166666667 385.666666667 1014 385 1034 385 c 0
 1056 385 1080 386.166666667 1106 388.5 c 128
 1132 390.833333333 1158.16666667 394.833333333 1184.5 400.5 c 128
 1210.83333333 406.166666667 1236 413.666666667 1260 423 c 128
 1284 432.333333333 1305 444.333333333 1323 459 c 0
 1334.33333333 468.333333333 1345.66666667 479.166666667 1357 491.5 c 128
 1368.33333333 503.833333333 1378.66666667 517.166666667 1388 531.5 c 128
 1397.33333333 545.833333333 1404.83333333 560.833333333 1410.5 576.5 c 128
 1416.16666667 592.166666667 1419 607.666666667 1419 623 c 1
 1407.66666667 623 1396.16666667 622.666666667 1384.5 622 c 128
 1372.83333333 621.333333333 1362 617.333333333 1352 610 c 1
 1314 602.666666667 1276.33333333 595.666666667 1239 589 c 128
 1201.66666667 582.333333333 1164 576.333333333 1126 571 c 0
 1108.66666667 569 1091.16666667 568.333333333 1073.5 569 c 128
 1055.83333333 569.666666667 1038.66666667 567 1022 561 c 1
 975 561 l 2
 893.666666667 561 812.166666667 563.833333333 730.5 569.5 c 128
 648.833333333 575.166666667 570 588.666666667 494 610 c 1
 487 610 l 1
 360 655 l 1
 356 653 351.833333333 652.833333333 347.5 654.5 c 128
 343.166666667 656.166666667 339 658.5 335 661.5 c 128
 331 664.5 327 667.833333333 323 671.5 c 128
 319 675.166666667 315 678 311 680 c 0
 276.333333333 699.333333333 244 720.5 214 743.5 c 128
 184 766.5 157.666666667 795.666666667 135 831 c 0
 133.666666667 833.666666667 131 838.333333333 127 845 c 128
 123 851.666666667 118.833333333 858.666666667 114.5 866 c 128
 110.166666667 873.333333333 106.166666667 880.166666667 102.5 886.5 c 128
 98.8333333333 892.833333333 96.6666666667 897 96 899 c 1
 94.6666666667 900.333333333 93.6666666667 903.833333333 93 909.5 c 128
 92.3333333333 915.166666667 91.3333333333 918.666666667 90 920 c 1
 90 921.333333333 89.3333333333 923 88 925 c 128
 86.6666666667 927 86 928.666666667 86 930 c 0
 78 960 71.8333333333 988.5 67.5 1015.5 c 128
 63.1666666667 1042.5 61 1072 61 1104 c 0
 61 1112.66666667 61.6666666667 1122.66666667 63 1134 c 128
 64.3333333333 1145.33333333 66.1666666667 1156.66666667 68.5 1168 c 128
 70.8333333333 1179.33333333 73.1666666667 1190.33333333 75.5 1201 c 128
 77.8333333333 1211.66666667 80 1221 82 1229 c 0
 89.3333333333 1259.66666667 102 1289.33333333 120 1318 c 128
 138 1346.66666667 157.333333333 1372.33333333 178 1395 c 0
 182 1399 182 1399 189 1406 c 128
 193.666666667 1410.66666667 198.166666667 1415 202.5 1419 c 128
 206.833333333 1423 210.5 1426.5 213.5 1429.5 c 128
 216.5 1432.5 218.333333333 1434 219 1434 c 2
 223 1434 l 1
 243.666666667 1457.33333333 266.166666667 1476.16666667 290.5 1490.5 c 128
 314.833333333 1504.83333333 341.666666667 1518.66666667 371 1532 c 0
 419.666666667 1554.66666667 470 1573.5 522 1588.5 c 128
 574 1603.5 627 1615.33333333 681 1624 c 128
 735 1632.66666667 789.333333333 1638.66666667 844 1642 c 128
 898.666666667 1645.33333333 952.666666667 1647 1006 1647 c 0
 1038.66666667 1647 1071 1645.66666667 1103 1643 c 128
 1135 1640.33333333 1167.33333333 1638 1200 1636 c 0
 1224.66666667 1634 1248.5 1631.66666667 1271.5 1629 c 128
 1294.5 1626.33333333 1317.16666667 1623.33333333 1339.5 1620 c 128
 1361.83333333 1616.66666667 1384.33333333 1613 1407 1609 c 128
 1429.66666667 1605 1453.66666667 1600.33333333 1479 1595 c 1
 1485 1595 l 1
 1563 1577.66666667 1636.83333333 1551 1706.5 1515 c 128
 1776.16666667 1479 1839.33333333 1432.66666667 1896 1376 c 1
 1901 1376 l 1
 1902.33333333 1374 1904.16666667 1370 1906.5 1364 c 128
 1908.83333333 1358 1911.66666667 1354 1915 1352 c 1
 2005 1229 l 2
 2019 1209.66666667 2031 1183.33333333 2041 1150 c 128
 2051 1116.66666667 2059.5 1081.5 2066.5 1044.5 c 128
 2073.5 1007.5 2078.66666667 971.333333333 2082 936 c 128
 2085.33333333 900.666666667 2087 871.333333333 2087 848 c 256
 2087 824.666666667 2085.83333333 798.333333333 2083.5 769 c 128
 2081.16666667 739.666666667 2081 712.666666667 2083 688 c 1
 2052 532 l 1
 2047.33333333 524.666666667 2042.66666667 515.333333333 2038 504 c 128
 2033.33333333 492.666666667 2028.66666667 480.666666667 2024 468 c 128
 2019.33333333 455.333333333 2014.83333333 443.166666667 2010.5 431.5 c 128
 2006.16666667 419.833333333 2002.33333333 410.333333333 1999 403 c 0
 1998.33333333 401.666666667 1996.83333333 399.333333333 1994.5 396 c 128
 1992.16666667 392.666666667 1989.66666667 389 1987 385 c 128
 1983 379 1983 379 1979 373 c 128
 1976.33333333 369 1974.66666667 366.333333333 1974 365 c 0
 1971.33333333 361.666666667 1966.83333333 355.833333333 1960.5 347.5 c 128
 1954.16666667 339.166666667 1947.5 330.166666667 1940.5 320.5 c 128
 1933.5 310.833333333 1926.83333333 301.833333333 1920.5 293.5 c 128
 1914.16666667 285.166666667 1909.66666667 279.333333333 1907 276 c 1
 1905.66666667 271.333333333 1899.5 264 1888.5 254 c 128
 1877.5 244 1863.83333333 232.833333333 1847.5 220.5 c 128
 1831.16666667 208.166666667 1813.83333333 195.5 1795.5 182.5 c 128
 1777.16666667 169.5 1759.5 157.666666667 1742.5 147 c 128
 1725.5 136.333333333 1710.83333333 128 1698.5 122 c 128
 1686.16666667 116 1678.33333333 113.666666667 1675 115 c 1
 1606 86 l 1
 1602 86 l 1
 1600 85 1600 85 1597 83.5 c 128
 1595 82.5 1593 81.3333333333 1591 80 c 2
 1583 76 l 2
 1579.66666667 74.6666666667 1574.33333333 72.8333333333 1567 70.5 c 128
 1559.66666667 68.1666666667 1551.83333333 65.8333333333 1543.5 63.5 c 128
 1535.16666667 61.1666666667 1527.16666667 58.6666666667 1519.5 56 c 128
 1511.83333333 53.3333333333 1506.33333333 51.6666666667 1503 51 c 1
 1501.66666667 51.6666666667 1498.66666667 51.5 1494 50.5 c 128
 1489.33333333 49.5 1484.33333333 48.5 1479 47.5 c 128
 1473.66666667 46.5 1468.66666667 45.3333333333 1464 44 c 128
 1459.33333333 42.6666666667 1456 41.6666666667 1454 41 c 0
 1408.66666667 33.6666666667 1364 27.5 1320 22.5 c 128
 1276 17.5 1231.33333333 12 1186 6 c 1
 860 6 l 1
 818.666666667 10 777.666666667 14.5 737 19.5 c 128
 696.333333333 24.5 656 31.6666666667 616 41 c 0
 594.666666667 46.3333333333 574.833333333 52.1666666667 556.5 58.5 c 128
 538.166666667 64.8333333333 518.666666667 70.6666666667 498 76 c 1
 494 76 l 1
885 18 m 0
 883.666666667 18 883 17.3333333333 883 16 c 128
 883 14.6666666667 883.666666667 14 885 14 c 0
 887 14 888 14.6666666667 888 16 c 128
 888 17.3333333333 887 18 885 18 c 0
248 731 m 256
 246.666666667 731 246 730 246 728 c 128
 246 726 246.666666667 725 248 725 c 256
 249.333333333 725 250 726 250 728 c 128
 250 730 249.333333333 731 248 731 c 256
842 963 m 1
 842 964.333333333 842.666666667 965 844 965 c 128
 845.333333333 965 846 964.333333333 846 963 c 1
 883.333333333 951.666666667 919.666666667 943 955 937 c 128
 990.333333333 931 1027.66666667 928 1067 928 c 0
 1071 928 1071 928 1082.5 928 c 128
 1094 928 1094 928 1106.5 928 c 128
 1114.83333333 928 1122.66666667 928.166666667 1130 928.5 c 128
 1137.33333333 928.833333333 1142.33333333 929.333333333 1145 930 c 0
 1149.66666667 930.666666667 1155.83333333 932 1163.5 934 c 128
 1171.16666667 936 1179 938 1187 940 c 128
 1195 942 1202.66666667 943.333333333 1210 944 c 128
 1217.33333333 944.666666667 1223.66666667 944.666666667 1229 944 c 1
 1313 973 l 1
 1321 984.333333333 1330 993 1340 999 c 128
 1350 1005 1359.16666667 1011.33333333 1367.5 1018 c 128
 1375.83333333 1024.66666667 1382.83333333 1033.33333333 1388.5 1044 c 128
 1394.16666667 1054.66666667 1397 1070.66666667 1397 1092 c 0
 1397 1117.33333333 1391.33333333 1138.83333333 1380 1156.5 c 128
 1368.66666667 1174.16666667 1353.83333333 1188.83333333 1335.5 1200.5 c 128
 1317.16666667 1212.16666667 1296.33333333 1221.33333333 1273 1228 c 128
 1249.66666667 1234.66666667 1225.83333333 1239.5 1201.5 1242.5 c 128
 1177.16666667 1245.5 1153.5 1247.33333333 1130.5 1248 c 128
 1107.5 1248.66666667 1087 1249 1069 1249 c 256
 1051 1249 1030.66666667 1248.5 1008 1247.5 c 128
 985.333333333 1246.5 962.333333333 1244 939 1240 c 128
 915.666666667 1236 893 1230.33333333 871 1223 c 128
 849 1215.66666667 829.333333333 1205.66666667 812 1193 c 128
 794.666666667 1180.33333333 780.666666667 1164.83333333 770 1146.5 c 128
 759.333333333 1128.16666667 754 1106.33333333 754 1081 c 0
 754 1053 762.833333333 1029.33333333 780.5 1010 c 128
 798.166666667 990.666666667 818.666666667 975 842 963 c 1
1552 1155 m 1
 1552 1156.33333333 1550.83333333 1156 1548.5 1154 c 128
 1546.16666667 1152 1546 1150.33333333 1548 1149 c 1
 1549.33333333 1149 1550.66666667 1149.66666667 1552 1151 c 128
 1553.33333333 1152.33333333 1553.33333333 1153.66666667 1552 1155 c 1
553 1446 m 0
 551 1446 550 1445.33333333 550 1444 c 128
 550 1442.66666667 551 1442 553 1442 c 0
 554.333333333 1442 555 1442.66666667 555 1444 c 128
 555 1445.33333333 554.333333333 1446 553 1446 c 0
EndSplineSet
EndChar

StartChar: dollar
Encoding: 36 36 63
Width: 2152
Flags: HW
LayerCount: 2
Fore
SplineSet
1217 1622 m 1
 1269 1618 1324.16666667 1612.5 1382.5 1605.5 c 128
 1440.83333333 1598.5 1499 1588 1557 1574 c 128
 1615 1560 1670.66666667 1541.5 1724 1518.5 c 128
 1777.33333333 1495.5 1824.83333333 1466.16666667 1866.5 1430.5 c 128
 1908.16666667 1394.83333333 1941.83333333 1351.5 1967.5 1300.5 c 128
 1993.16666667 1249.5 2007.66666667 1189.33333333 2011 1120 c 1
 1378 1120 l 1
 1360.66666667 1160 1340.5 1190.83333333 1317.5 1212.5 c 128
 1294.5 1234.16666667 1263 1245 1223 1245 c 1
 1223 1018 l 1
 1353 1008.66666667 1465 994.5 1559 975.5 c 128
 1653 956.5 1732.33333333 934 1797 908 c 128
 1861.66666667 882 1913.66666667 852.833333333 1953 820.5 c 128
 1992.33333333 788.166666667 2022.66666667 754.166666667 2044 718.5 c 128
 2065.33333333 682.833333333 2079.5 646 2086.5 608 c 128
 2093.5 570 2097 532 2097 494 c 0
 2097 438 2088.33333333 388 2071 344 c 128
 2053.66666667 300 2030.16666667 261 2000.5 227 c 128
 1970.83333333 193 1936 163.666666667 1896 139 c 128
 1856 114.333333333 1813 93.3333333333 1767 76 c 128
 1721 58.6666666667 1673.16666667 44.5 1623.5 33.5 c 128
 1573.83333333 22.5 1524.83333333 13.6666666667 1476.5 7 c 128
 1428.16666667 0.333333333333 1381.33333333 -4.5 1336 -7.5 c 128
 1290.66666667 -10.5 1249.33333333 -12.6666666667 1212 -14 c 1
 1212 -213 l 1
 922 -213 l 1
 922 -14 l 1
 770 0 640.333333333 21.1666666667 533 49.5 c 128
 425.666666667 77.8333333333 337.666666667 113.833333333 269 157.5 c 128
 200.333333333 201.166666667 149.666666667 252.833333333 117 312.5 c 128
 84.3333333333 372.166666667 66.3333333333 440.666666667 63 518 c 1
 727 518 l 1
 727 501.333333333 730.166666667 484.166666667 736.5 466.5 c 128
 742.833333333 448.833333333 753.5 432.833333333 768.5 418.5 c 128
 783.5 404.166666667 803.666666667 392.333333333 829 383 c 128
 854.333333333 373.666666667 886 369 924 369 c 1
 924 684 l 1
 874 690.666666667 818.833333333 697.5 758.5 704.5 c 128
 698.166666667 711.5 637.333333333 720.666666667 576 732 c 128
 514.666666667 743.333333333 455.333333333 758.5 398 777.5 c 128
 340.666666667 796.5 289.833333333 821.5 245.5 852.5 c 128
 201.166666667 883.5 165.5 921.666666667 138.5 967 c 128
 111.5 1012.33333333 98 1067.66666667 98 1133 c 0
 98 1186.33333333 105.5 1234 120.5 1276 c 128
 135.5 1318 156.166666667 1355.33333333 182.5 1388 c 128
 208.833333333 1420.66666667 240 1448.83333333 276 1472.5 c 128
 312 1496.16666667 351 1516.66666667 393 1534 c 128
 435 1551.33333333 479 1565.5 525 1576.5 c 128
 571 1587.5 617.333333333 1596.33333333 664 1603 c 128
 710.666666667 1609.66666667 756.666666667 1614.66666667 802 1618 c 128
 847.333333333 1621.33333333 890 1624 930 1626 c 1
 930 1751 l 1
 1217 1751 l 1
 1217 1622 l 1
1212 360 m 1
 1236 360 1260 362.666666667 1284 368 c 128
 1308 373.333333333 1329.66666667 382 1349 394 c 128
 1368.33333333 406 1384.16666667 421.833333333 1396.5 441.5 c 128
 1408.83333333 461.166666667 1415 485.333333333 1415 514 c 0
 1415 558 1399.16666667 591 1367.5 613 c 128
 1335.83333333 635 1284 649.666666667 1212 657 c 1
 1212 360 l 1
745 1137 m 0
 745 1115.66666667 750.833333333 1098 762.5 1084 c 128
 774.166666667 1070 789 1058.83333333 807 1050.5 c 128
 825 1042.16666667 844.833333333 1036.33333333 866.5 1033 c 128
 888.166666667 1029.66666667 908.666666667 1028 928 1028 c 1
 928 1249 l 1
 912 1249 893.5 1247.33333333 872.5 1244 c 128
 851.5 1240.66666667 831.5 1234.83333333 812.5 1226.5 c 128
 793.5 1218.16666667 777.5 1206.83333333 764.5 1192.5 c 128
 751.5 1178.16666667 745 1159.66666667 745 1137 c 0
EndSplineSet
EndChar

StartChar: D
Encoding: 68 68 64
Width: 2236
Flags: HW
LayerCount: 2
Fore
SplineSet
1198 1645 m 2
 1356 1645 1495 1628 1615 1594 c 128
 1735 1560 1835.66666667 1509.66666667 1917 1443 c 128
 1998.33333333 1376.33333333 2059.66666667 1294 2101 1196 c 128
 2142.33333333 1098 2163 984.666666667 2163 856 c 0
 2163 786.666666667 2158.16666667 717.5 2148.5 648.5 c 128
 2138.83333333 579.5 2121.66666667 513.333333333 2097 450 c 128
 2072.33333333 386.666666667 2038.83333333 327.666666667 1996.5 273 c 128
 1954.16666667 218.333333333 1900.5 170.833333333 1835.5 130.5 c 128
 1770.5 90.1666666667 1692.83333333 58.3333333333 1602.5 35 c 128
 1512.16666667 11.6666666667 1406.66666667 0 1286 0 c 2
 78 0 l 1
 78 1645 l 1
 1198 1645 l 2
715 1231 m 1
 715 422 l 1
 997 422 l 2
 1077 422 1148.16666667 426.666666667 1210.5 436 c 128
 1272.83333333 445.333333333 1325.5 465.333333333 1368.5 496 c 128
 1411.5 526.666666667 1444.33333333 571 1467 629 c 128
 1489.66666667 687 1501 764.666666667 1501 862 c 0
 1501 912.666666667 1494.66666667 957 1482 995 c 128
 1469.33333333 1033 1451.66666667 1065.66666667 1429 1093 c 128
 1406.33333333 1120.33333333 1379.16666667 1143 1347.5 1161 c 128
 1315.83333333 1179 1281.33333333 1193.16666667 1244 1203.5 c 128
 1206.66666667 1213.83333333 1166.83333333 1221 1124.5 1225 c 128
 1082.16666667 1229 1039 1231 995 1231 c 2
 715 1231 l 1
EndSplineSet
EndChar

StartChar: cedilla
Encoding: 184 184 65
Width: 969
Flags: HW
LayerCount: 2
Fore
SplineSet
604 0 m 1
 592 -82 l 1
 639.333333333 -90 682.166666667 -101.333333333 720.5 -116 c 128
 758.833333333 -130.666666667 791.5 -149.166666667 818.5 -171.5 c 128
 845.5 -193.833333333 866.333333333 -220 881 -250 c 128
 895.666666667 -280 903 -314 903 -352 c 0
 903 -398 895.5 -437.833333333 880.5 -471.5 c 128
 865.5 -505.166666667 844.666666667 -533.333333333 818 -556 c 128
 791.333333333 -578.666666667 760 -595.5 724 -606.5 c 128
 688 -617.5 648.666666667 -623 606 -623 c 0
 562 -623 515.333333333 -618 466 -608 c 128
 416.666666667 -598 365 -582.333333333 311 -561 c 1
 334 -416 l 1
 366.666666667 -428 397.5 -436.5 426.5 -441.5 c 128
 455.5 -446.5 480.666666667 -449 502 -449 c 0
 532 -449 556.333333333 -444.833333333 575 -436.5 c 128
 593.666666667 -428.166666667 608 -417.833333333 618 -405.5 c 128
 628 -393.166666667 634.666666667 -380 638 -366 c 128
 641.333333333 -352 643 -339.333333333 643 -328 c 0
 643 -314 638.666666667 -299.833333333 630 -285.5 c 128
 621.333333333 -271.166666667 606.666666667 -257.166666667 586 -243.5 c 128
 565.333333333 -229.833333333 537.5 -217.166666667 502.5 -205.5 c 128
 467.5 -193.833333333 423.666666667 -184 371 -176 c 1
 399 0 l 1
 604 0 l 1
EndSplineSet
EndChar

StartChar: acute
Encoding: 180 180 68
Width: 729
Flags: HW
LayerCount: 2
Fore
SplineSet
-14 1526 m 1
 688 1935 l 1
 852 1513 l 1
 88 1329 l 1
 -14 1526 l 1
EndSplineSet
EndChar

StartChar: dotlessi
Encoding: 305 305 69
Width: 729
Flags: HW
LayerCount: 2
Fore
SplineSet
88 1229 m 1
 647 1229 l 1
 647 0 l 1
 88 0 l 1
 88 1229 l 1
EndSplineSet
EndChar

StartChar: period
Encoding: 46 46 76
Width: 729
Flags: HW
LayerCount: 2
Fore
SplineSet
88 381 m 1
 647 381 l 1
 647 0 l 1
 88 0 l 1
 88 381 l 1
EndSplineSet
EndChar

StartChar: grave
Encoding: 96 96 77
Width: 729
Flags: HW
LayerCount: 2
Fore
SplineSet
692 1329 m 1
 -72 1513 l 1
 92 1935 l 1
 795 1526 l 1
 692 1329 l 1
EndSplineSet
EndChar

StartChar: circumflex
Encoding: 710 710 94
Width: 1110
Flags: HW
LayerCount: 2
Fore
SplineSet
771 1877 m 1
 1092 1389 l 1
 671 1389 l 1
 554 1691 l 1
 437 1389 l 1
 16 1389 l 1
 337 1877 l 1
 771 1877 l 1
EndSplineSet
EndChar

StartChar: dieresis
Encoding: 168 168 105
Width: 1289
Flags: HW
LayerCount: 2
Fore
SplineSet
88 1646 m 1
 543 1646 l 1
 543 1355 l 1
 88 1355 l 1
 88 1646 l 1
728 1646 m 1
 1183 1646 l 1
 1183 1355 l 1
 728 1355 l 1
 728 1646 l 1
EndSplineSet
EndChar

StartChar: caron
Encoding: 711 711 117
Width: 1110
Flags: HW
LayerCount: 2
Fore
SplineSet
337 1389 m 1
 16 1877 l 1
 437 1877 l 1
 554 1575 l 1
 671 1877 l 1
 1092 1877 l 1
 771 1389 l 1
 337 1389 l 1
EndSplineSet
EndChar

StartChar: OE
Encoding: 338 338 122
Width: 4356
Flags: HW
LayerCount: 2
Fore
SplineSet
3124 1644 m 1
 3124 1229 l 1
 2126 1229 l 1
 2126 1030 l 1
 2952 1030 l 1
 2952 614 l 1
 2126 614 l 1
 2126 418 l 1
 3181 416 l 1
 3181 2 l 1
 1178 -1 l 2
 1099.33333333 -1 1017.16666667 3 931.5 11 c 128
 845.833333333 19 761.666666667 33.8333333333 679 55.5 c 128
 596.333333333 77.1666666667 517.666666667 107.5 443 146.5 c 128
 368.333333333 185.5 302.666666667 236 246 298 c 128
 189.333333333 360 144.333333333 435 111 523 c 128
 77.6666666667 611 61 715.333333333 61 836 c 0
 61 934.666666667 73.6666666667 1023.16666667 99 1101.5 c 128
 124.333333333 1179.83333333 160.5 1249 207.5 1309 c 128
 254.5 1369 311.5 1420.33333333 378.5 1463 c 128
 445.5 1505.66666667 520.333333333 1540.66666667 603 1568 c 128
 685.666666667 1595.33333333 775.333333333 1615.16666667 872 1627.5 c 128
 968.666666667 1639.83333333 1070.66666667 1646 1178 1646 c 2
 3124 1644 l 1
1178 1262 m 0
 1113.33333333 1262 1054.66666667 1253.5 1002 1236.5 c 128
 949.333333333 1219.5 904.166666667 1193.5 866.5 1158.5 c 128
 828.833333333 1123.5 799.666666667 1079.16666667 779 1025.5 c 128
 758.333333333 971.833333333 748 908 748 834 c 0
 748 762 756.333333333 698 773 642 c 128
 789.666666667 586 815.5 538.833333333 850.5 500.5 c 128
 885.5 462.166666667 930 433 984 413 c 128
 1038 393 1102.66666667 383 1178 383 c 0
 1233 383 1233 383 1288 383 c 128
 1324.66666667 383 1358 383.333333333 1388 384 c 0
 1422.66666667 384.666666667 1455.66666667 385.333333333 1487 386 c 1
 1487 1261 l 1
 1384 1261 l 2
 1354 1261 1320.83333333 1261.16666667 1284.5 1261.5 c 128
 1248.16666667 1261.83333333 1212.66666667 1262 1178 1262 c 0
EndSplineSet
EndChar

StartChar: oe
Encoding: 339 339 123
Width: 3979
Flags: HW
LayerCount: 2
Fore
SplineSet
1963 512 m 1
 1965.66666667 478 1975.16666667 446.833333333 1991.5 418.5 c 128
 2007.83333333 390.166666667 2029.16666667 365.666666667 2055.5 345 c 128
 2081.83333333 324.333333333 2112.83333333 308.166666667 2148.5 296.5 c 128
 2184.16666667 284.833333333 2223 279 2265 279 c 0
 2281.66666667 279 2298.83333333 280.166666667 2316.5 282.5 c 128
 2334.16666667 284.833333333 2351.33333333 288.666666667 2368 294 c 128
 2384.66666667 299.333333333 2400.5 306.833333333 2415.5 316.5 c 128
 2430.5 326.166666667 2444 338 2456 352 c 1
 3057 305 l 1
 3035.66666667 259.666666667 3008.66666667 219.5 2976 184.5 c 128
 2943.33333333 149.5 2906.66666667 119.333333333 2866 94 c 128
 2825.33333333 68.6666666667 2781.5 47.5 2734.5 30.5 c 128
 2687.5 13.5 2639 -0.166666666667 2589 -10.5 c 128
 2539 -20.8333333333 2488.83333333 -28.1666666667 2438.5 -32.5 c 128
 2388.16666667 -36.8333333333 2339.33333333 -39 2292 -39 c 0
 2238 -39 2183 -35.6666666667 2127 -29 c 128
 2071 -22.3333333333 2015.16666667 -11 1959.5 5 c 128
 1903.83333333 21 1849.5 42.8333333333 1796.5 70.5 c 128
 1743.5 98.1666666667 1693.66666667 133 1647 175 c 1
 1605 133 1559.83333333 98.3333333333 1511.5 71 c 128
 1463.16666667 43.6666666667 1412.5 21.8333333333 1359.5 5.5 c 128
 1306.5 -10.8333333333 1251.83333333 -22.3333333333 1195.5 -29 c 128
 1139.16666667 -35.6666666667 1082 -39 1024 -39 c 0
 945.333333333 -39 868.333333333 -35.1666666667 793 -27.5 c 128
 717.666666667 -19.8333333333 646.166666667 -6.66666666667 578.5 12 c 128
 510.833333333 30.6666666667 448.5 56 391.5 88 c 128
 334.5 120 285.333333333 160.5 244 209.5 c 128
 202.666666667 258.5 170.333333333 316.833333333 147 384.5 c 128
 123.666666667 452.166666667 112 531 112 621 c 256
 112 711 123.666666667 790 147 858 c 128
 170.333333333 926 202.666666667 984.333333333 244 1033 c 128
 285.333333333 1081.66666667 334.666666667 1122 392 1154 c 128
 449.333333333 1186 511.666666667 1211.33333333 579 1230 c 128
 646.333333333 1248.66666667 717.833333333 1261.66666667 793.5 1269 c 128
 869.166666667 1276.33333333 946 1280 1024 1280 c 0
 1080 1280 1135 1277 1189 1271 c 128
 1243 1265 1295.33333333 1254.5 1346 1239.5 c 128
 1396.66666667 1224.5 1445.16666667 1204.33333333 1491.5 1179 c 128
 1537.83333333 1153.66666667 1581.33333333 1122 1622 1084 c 1
 1663.33333333 1122 1707.16666667 1153.5 1753.5 1178.5 c 128
 1799.83333333 1203.5 1847.83333333 1223.5 1897.5 1238.5 c 128
 1947.16666667 1253.5 1998.16666667 1264.16666667 2050.5 1270.5 c 128
 2102.83333333 1276.83333333 2155.33333333 1280 2208 1280 c 0
 2340 1280 2460.16666667 1266.33333333 2568.5 1239 c 128
 2676.83333333 1211.66666667 2769.66666667 1167.66666667 2847 1107 c 128
 2924.33333333 1046.33333333 2984.33333333 967.166666667 3027 869.5 c 128
 3069.66666667 771.833333333 3091 652.666666667 3091 512 c 1
 1963 512 l 1
1024 293 m 0
 1076.66666667 293 1121.5 301.333333333 1158.5 318 c 128
 1195.5 334.666666667 1225.66666667 358 1249 388 c 128
 1272.33333333 418 1289.16666667 454.166666667 1299.5 496.5 c 128
 1309.83333333 538.833333333 1315 585.666666667 1315 637 c 0
 1315 678.333333333 1308.66666667 717.5 1296 754.5 c 128
 1283.33333333 791.5 1264.66666667 823.833333333 1240 851.5 c 128
 1215.33333333 879.166666667 1184.83333333 901.166666667 1148.5 917.5 c 128
 1112.16666667 933.833333333 1070.66666667 942 1024 942 c 0
 978.666666667 942 937.333333333 935 900 921 c 128
 862.666666667 907 830.666666667 886.166666667 804 858.5 c 128
 777.333333333 830.833333333 756.666666667 796.833333333 742 756.5 c 128
 727.333333333 716.166666667 720 670 720 618 c 0
 720 513.333333333 745.833333333 433 797.5 377 c 128
 849.166666667 321 924.666666667 293 1024 293 c 0
2467 743 m 1
 2464.33333333 761.666666667 2458.16666667 784.5 2448.5 811.5 c 128
 2438.83333333 838.5 2424.66666667 864.166666667 2406 888.5 c 128
 2387.33333333 912.833333333 2363.5 933.666666667 2334.5 951 c 128
 2305.5 968.333333333 2270 977 2228 977 c 0
 2196.66666667 977 2165.16666667 973 2133.5 965 c 128
 2101.83333333 957 2072.83333333 943.833333333 2046.5 925.5 c 128
 2020.16666667 907.166666667 1998 883.166666667 1980 853.5 c 128
 1962 823.833333333 1951.66666667 787 1949 743 c 1
 2467 743 l 1
EndSplineSet
EndChar

StartChar: tilde
Encoding: 732 732 124
Width: 1276
Flags: HW
LayerCount: 2
Fore
SplineSet
837 1748 m 0
 862.333333333 1748 878.666666667 1759 886 1781 c 128
 893.333333333 1803 897 1835 897 1877 c 1
 1258 1877 l 1
 1258 1787.66666667 1249.66666667 1710.66666667 1233 1646 c 128
 1216.33333333 1581.33333333 1193.66666667 1527.66666667 1165 1485 c 128
 1136.33333333 1442.33333333 1102.66666667 1410.83333333 1064 1390.5 c 128
 1025.33333333 1370.16666667 984.333333333 1360 941 1360 c 0
 913 1360 882.333333333 1364 849 1372 c 128
 815.666666667 1380 781.666666667 1390 747 1402 c 128
 712.333333333 1414 678.166666667 1426.83333333 644.5 1440.5 c 128
 610.833333333 1454.16666667 580 1467 552 1479 c 128
 524 1491 499.666666667 1501 479 1509 c 128
 458.333333333 1517 443.666666667 1521 435 1521 c 0
 410.333333333 1521 394.5 1510 387.5 1488 c 128
 380.5 1466 377 1433 377 1389 c 1
 16 1389 l 1
 16 1479 24 1556.5 40 1621.5 c 128
 56 1686.5 78 1740 106 1782 c 128
 134 1824 166.666666667 1855 204 1875 c 128
 241.333333333 1895 281 1905 323 1905 c 0
 351 1905 381.833333333 1901.16666667 415.5 1893.5 c 128
 449.166666667 1885.83333333 483.666666667 1876.16666667 519 1864.5 c 128
 554.333333333 1852.83333333 589 1840.16666667 623 1826.5 c 128
 657 1812.83333333 688.333333333 1800.16666667 717 1788.5 c 128
 745.666666667 1776.83333333 770.5 1767.16666667 791.5 1759.5 c 128
 812.5 1751.83333333 827.666666667 1748 837 1748 c 0
EndSplineSet
EndChar

StartChar: A
Encoding: 65 65 129
Width: 2214
Flags: HW
LayerCount: 2
Fore
SplineSet
1518 0 m 1
 1448 188 l 1
 743 188 l 1
 682 0 l 1
 51 0 l 1
 719 1645 l 1
 1487 1645 l 1
 2175 0 l 1
 1518 0 l 1
1077 1118 m 1
 868 530 l 1
 1305 530 l 1
 1077 1118 l 1
EndSplineSet
EndChar

StartChar: B
Encoding: 66 66 130
Width: 2267
Flags: HW
LayerCount: 2
Fore
SplineSet
1231 1645 m 2
 1263 1645 1299.66666667 1645.33333333 1341 1646 c 128
 1382.33333333 1646.66666667 1426.33333333 1646.16666667 1473 1644.5 c 128
 1519.66666667 1642.83333333 1567.33333333 1639.66666667 1616 1635 c 128
 1664.66666667 1630.33333333 1712 1622.66666667 1758 1612 c 128
 1804 1601.33333333 1847.5 1587.16666667 1888.5 1569.5 c 128
 1929.5 1551.83333333 1965.33333333 1529.33333333 1996 1502 c 128
 2026.66666667 1474.66666667 2050.83333333 1441.83333333 2068.5 1403.5 c 128
 2086.16666667 1365.16666667 2095 1320 2095 1268 c 0
 2095 1198.66666667 2079.16666667 1136.5 2047.5 1081.5 c 128
 2015.83333333 1026.5 1967.66666667 983.333333333 1903 952 c 1
 1950.33333333 936 1992.33333333 913.5 2029 884.5 c 128
 2065.66666667 855.5 2096.5 822 2121.5 784 c 128
 2146.5 746 2165.5 704 2178.5 658 c 128
 2191.5 612 2198 564 2198 514 c 0
 2198 444.666666667 2186.5 383.833333333 2163.5 331.5 c 128
 2140.5 279.166666667 2109.33333333 234 2070 196 c 128
 2030.66666667 158 1984.83333333 126.333333333 1932.5 101 c 128
 1880.16666667 75.6666666667 1824.33333333 55.5 1765 40.5 c 128
 1705.66666667 25.5 1644.66666667 15 1582 9 c 128
 1519.33333333 3 1458.33333333 0 1399 0 c 2
 80 0 l 1
 86 1645 l 1
 1231 1645 l 2
1305 414 m 2
 1328.33333333 414 1352 413.833333333 1376 413.5 c 128
 1400 413.166666667 1421.5 415.833333333 1440.5 421.5 c 128
 1459.5 427.166666667 1475 437.166666667 1487 451.5 c 128
 1499 465.833333333 1505 488 1505 518 c 0
 1505 538 1500.5 554.666666667 1491.5 568 c 128
 1482.5 581.333333333 1471.16666667 591.833333333 1457.5 599.5 c 128
 1443.83333333 607.166666667 1428.66666667 612.666666667 1412 616 c 128
 1395.33333333 619.333333333 1379.33333333 621 1364 621 c 2
 721 618 l 1
 721 414 l 1
 1305 414 l 2
727 1036 m 1
 1231 1036 l 2
 1247.66666667 1036 1266.5 1036.16666667 1287.5 1036.5 c 128
 1308.5 1036.83333333 1328.33333333 1040.33333333 1347 1047 c 128
 1365.66666667 1053.66666667 1381.33333333 1064.5 1394 1079.5 c 128
 1406.66666667 1094.5 1413 1117 1413 1147 c 0
 1413 1163 1407.66666667 1176.33333333 1397 1187 c 128
 1386.33333333 1197.66666667 1373.33333333 1206.16666667 1358 1212.5 c 128
 1342.66666667 1218.83333333 1326.5 1223.16666667 1309.5 1225.5 c 128
 1292.5 1227.83333333 1278 1229 1266 1229 c 2
 727 1227 l 1
 727 1036 l 1
EndSplineSet
EndChar

StartChar: C
Encoding: 67 67 131
Width: 2316
Flags: HW
LayerCount: 2
Fore
SplineSet
1133 -57 m 0
 1036.33333333 -57 942.666666667 -50.3333333333 852 -37 c 128
 761.333333333 -23.6666666667 676.333333333 -2.5 597 26.5 c 128
 517.666666667 55.5 445.166666667 93.1666666667 379.5 139.5 c 128
 313.833333333 185.833333333 257.666666667 242.166666667 211 308.5 c 128
 164.333333333 374.833333333 128 451.666666667 102 539 c 128
 76 626.333333333 63 726 63 838 c 0
 63 944 76.3333333333 1038.83333333 103 1122.5 c 128
 129.666666667 1206.16666667 167.166666667 1279.83333333 215.5 1343.5 c 128
 263.833333333 1407.16666667 322.166666667 1461.5 390.5 1506.5 c 128
 458.833333333 1551.5 534.833333333 1588.16666667 618.5 1616.5 c 128
 702.166666667 1644.83333333 792.333333333 1665.5 889 1678.5 c 128
 985.666666667 1691.5 1086.66666667 1698 1192 1698 c 0
 1272.66666667 1698 1354.16666667 1694.16666667 1436.5 1686.5 c 128
 1518.83333333 1678.83333333 1598.33333333 1665.66666667 1675 1647 c 128
 1751.66666667 1628.33333333 1823.66666667 1603.5 1891 1572.5 c 128
 1958.33333333 1541.5 2017 1502.66666667 2067 1456 c 128
 2117 1409.33333333 2156.33333333 1354.16666667 2185 1290.5 c 128
 2213.66666667 1226.83333333 2228 1153 2228 1069 c 1
 1544 1026 l 1
 1522 1079.33333333 1496.66666667 1121.83333333 1468 1153.5 c 128
 1439.33333333 1185.16666667 1407.66666667 1209.5 1373 1226.5 c 128
 1338.33333333 1243.5 1300.5 1254.66666667 1259.5 1260 c 128
 1218.5 1265.33333333 1174.66666667 1268 1128 1268 c 0
 1073.33333333 1268 1025.83333333 1260.33333333 985.5 1245 c 128
 945.166666667 1229.66666667 910.666666667 1209.5 882 1184.5 c 128
 853.333333333 1159.5 829.833333333 1131.33333333 811.5 1100 c 128
 793.166666667 1068.66666667 778.833333333 1037 768.5 1005 c 128
 758.166666667 973 751 942 747 912 c 128
 743 882 741 856 741 834 c 0
 741 766.666666667 750.166666667 704.833333333 768.5 648.5 c 128
 786.833333333 592.166666667 814.333333333 543.5 851 502.5 c 128
 887.666666667 461.5 933.5 429.666666667 988.5 407 c 128
 1043.5 384.333333333 1107.33333333 373 1180 373 c 0
 1224.66666667 373 1266.66666667 379.5 1306 392.5 c 128
 1345.33333333 405.5 1381 424 1413 448 c 128
 1445 472 1473.16666667 500.833333333 1497.5 534.5 c 128
 1521.83333333 568.166666667 1541.33333333 605.666666667 1556 647 c 1
 2257 602 l 1
 2257 518.666666667 2240.33333333 444.5 2207 379.5 c 128
 2173.66666667 314.5 2128.83333333 257.666666667 2072.5 209 c 128
 2016.16666667 160.333333333 1950.5 119 1875.5 85 c 128
 1800.5 51 1721.33333333 23.5 1638 2.5 c 128
 1554.66666667 -18.5 1469.66666667 -33.6666666667 1383 -43 c 128
 1296.33333333 -52.3333333333 1213 -57 1133 -57 c 0
EndSplineSet
EndChar
